<svg width="298" height="75" viewBox="0 0 298 75" fill="none" xmlns="http://www.w3.org/2000/svg">
<g clip-path="url(#clip0_42_527)">
<path d="M168.932 24.4467C168.932 15.6942 169.082 7.54527 169.534 0L146.518 4.37626V6.48893L148.774 6.79074C150.429 6.94165 151.482 7.54527 152.084 8.4507C152.686 9.50704 153.137 11.0161 153.438 13.2797C153.739 17.6559 154.039 27.6157 153.889 43.3099C153.889 58.8531 153.739 68.662 153.438 72.4346C161.711 74.2455 168.18 75 172.993 75C182.019 75 189.089 72.4346 194.204 67.1529C199.319 62.0221 202.026 54.7787 202.026 45.8753C202.026 38.7827 200.071 32.8974 196.16 28.2193C192.248 23.5412 187.284 21.2777 181.417 21.2777C177.506 21.2777 173.445 22.334 168.932 24.4467ZM169.383 70.9256C169.082 66.0966 168.781 51.6097 168.781 27.9175C170.135 27.4648 171.94 27.163 174.197 27.163C177.807 27.163 180.665 28.9738 182.771 32.7465C184.877 36.5191 185.93 41.0463 185.93 46.7807C185.93 53.8732 184.727 59.6076 182.32 64.4366C179.913 69.1147 176.905 71.5292 173.144 71.5292C171.94 71.2274 170.737 71.0765 169.383 70.9256ZM60.1716 1.50905H0V4.52716L3.15901 4.82897C5.56588 5.28169 7.2206 6.18712 8.2736 7.54527C9.3266 9.05433 9.92832 11.4688 10.0787 14.7887C11.2822 31.0865 11.2822 46.328 10.0787 60.3622C9.77789 63.6821 9.17617 66.0966 8.2736 67.6056C7.2206 69.1147 5.56588 70.0201 3.15901 70.3219L0 70.7747V73.7928H38.8107V70.7747L34.7491 70.4728C32.3423 70.171 30.6875 69.1147 29.6345 67.7565C28.5815 66.2475 27.9798 63.833 27.8294 60.5131C27.3781 54.4769 27.0772 47.5352 27.0772 39.839L35.2004 39.9899C39.5628 40.1408 42.5714 43.4608 44.0757 50.1006H47.0843V25.503H44.0757C42.5714 31.992 39.7133 35.3119 35.2004 35.4628L27.0772 35.6137C27.0772 22.0322 27.3781 12.3742 27.8294 6.48893H39.7133C48.1373 6.48893 53.8536 11.9215 57.163 22.7867L60.7733 21.7304L60.1716 1.50905ZM53.1015 47.9879C53.1015 55.835 55.3579 62.3239 59.7203 67.4547C64.0828 72.5855 70.5512 75 78.6744 75C86.7976 75 93.4165 72.4346 98.2302 67.1529C103.044 62.0221 105.3 55.5332 105.3 47.6861C105.3 39.839 103.044 33.3501 98.6815 28.2193C94.319 23.0885 87.8506 20.674 79.7274 20.674C71.6042 20.674 64.9854 23.2394 60.1716 28.5211C55.3579 33.6519 53.1015 40.1408 53.1015 47.9879ZM86.6471 30.7847C88.4523 35.161 89.2044 40.8954 89.2044 47.837C89.2044 63.833 85.895 71.6801 79.4265 71.6801C76.1171 71.6801 73.5598 69.4165 71.7547 64.8893C69.9495 60.3622 69.1974 54.6278 69.1974 47.837C69.1974 31.992 72.5068 24.1449 78.9753 24.1449C82.2847 23.994 84.842 26.2575 86.6471 30.7847ZM213.76 67.4547C218.724 72.4346 225.042 75 232.563 75C237.227 75 241.288 74.0946 244.899 72.1328C248.509 70.3219 251.367 68.0583 253.323 65.342L251.818 63.5312C248.509 66.0966 244.748 67.3038 240.386 67.3038C234.368 67.3038 229.705 65.342 226.546 61.2676C223.237 57.1932 221.732 52.0624 222.033 45.4225H254.225C254.225 38.1791 252.42 32.2938 248.659 27.6157C244.899 23.0885 239.634 20.8249 232.864 20.8249C224.44 20.8249 217.972 23.5412 213.308 28.8229C208.645 34.1046 206.389 40.5936 206.389 48.2897C206.389 56.1368 208.796 62.4748 213.76 67.4547ZM224.891 29.5775C226.546 25.9557 228.652 24.1449 231.51 24.1449C236.023 24.1449 238.28 29.8793 238.28 41.499L222.334 41.8008C222.485 37.2736 223.237 33.1992 224.891 29.5775ZM294.691 23.5412C290.629 21.7304 285.514 20.674 279.347 20.674C273.029 20.674 268.065 22.334 264.304 25.503C260.543 28.672 258.588 32.5956 258.588 37.2736C258.588 41.3481 259.791 44.5171 262.047 46.7807C264.304 49.0443 267.914 51.006 272.577 52.666C276.789 54.1751 279.798 55.6841 281.302 57.0423C282.807 58.5513 283.709 60.2113 283.709 62.4748C283.709 64.5875 282.957 66.5493 281.302 68.0583C279.798 69.7183 277.692 70.4728 274.984 70.4728C268.365 70.4728 263.401 65.6439 259.941 55.9859L257.384 56.7404L257.986 71.831C263.401 73.9437 269.418 75 276.037 75C282.957 75 288.222 73.4909 292.133 70.3219C296.044 67.3038 298 62.9276 298 57.495C298 53.8732 297.097 50.8551 295.142 48.5915C293.186 46.328 290.027 44.3662 285.514 42.5553C280.55 40.7445 277.09 39.0845 275.285 37.5755C273.48 36.0664 272.577 34.2555 272.577 31.992C272.577 29.7284 273.179 27.9175 274.533 26.4085C275.887 24.8994 277.542 24.2958 279.648 24.2958C285.665 24.2958 290.027 28.672 292.735 37.2736L295.292 36.5191L294.691 23.5412ZM149.978 22.1831C147.872 21.1268 145.615 20.674 143.058 20.674C140.501 20.674 137.943 21.7304 135.085 23.8431C132.227 25.9557 130.121 28.8229 128.466 32.7465L128.617 20.674L105.752 25.2012V27.3139L108.008 27.4648C110.866 27.7666 112.521 30.0302 112.822 34.1046C113.724 43.4608 113.724 53.4205 112.822 63.9839C112.521 68.0583 110.866 70.171 108.008 70.6237L105.752 70.9256V73.7928H137.643V70.9256L133.581 70.6237C130.723 70.3219 129.068 68.0583 128.767 63.9839C127.865 55.2314 127.714 45.8753 128.466 36.2173C129.369 34.7082 131.325 33.8028 134.333 33.501C137.342 33.1992 140.802 34.1046 144.412 36.2173L149.978 22.1831Z" fill="#242424"/>
</g>
<defs>
<clipPath id="clip0_42_527">
<rect width="298" height="75" fill="white"/>
</clipPath>
</defs>
</svg>
