<svg width="296" height="59" viewBox="0 0 296 59" fill="none" xmlns="http://www.w3.org/2000/svg">
<path d="M42.9787 41.557C42.9787 53.0945 32.8082 59 22.6923 59C14.709 59 8.69416 55.2817 4.9759 50.962L3.22614 58.1251H0V41.4476H3.55422C7.05375 49.1029 14.4903 52.6571 20.6691 52.6571C25.7544 52.6571 29.9101 50.1965 29.9101 45.5487C29.9101 40.19 24.6608 38.3309 17.443 34.886C10.0612 31.3318 1.31233 27.1761 1.31233 16.5134C1.31233 5.90547 9.95181 0 20.0677 0C27.6135 0 32.2614 3.28082 34.9954 6.12419L36.417 0H39.6432V15.4745H36.089C33.7377 8.80352 27.1214 5.90547 21.5987 5.90547C17.1149 5.90547 13.5607 7.87396 13.5607 11.9203C13.5607 17.3336 19.9036 19.4662 27.4495 23.1297C35.1594 26.848 42.9787 31.5505 42.9787 41.557Z" fill="black"/>
<path d="M86.6133 44.9472C83.6606 53.2586 75.9507 58.7813 67.0378 58.7813C54.7347 58.7813 46.2593 48.6108 46.2593 35.8703C46.2593 23.5126 53.9692 14.3263 65.5067 14.3263C74.4743 14.3263 81.0359 19.849 82.731 28.2151L59.4919 38.7137L59.3279 39.1511C62.2806 45.494 67.2018 48.5561 72.4511 48.5561C77.0989 48.5561 81.4187 46.2049 84.9729 42.596L86.6133 44.9472ZM57.6328 35.4876L69.9358 29.4727C68.4048 21.6534 65.8895 19.1928 62.554 19.1928C56.8126 19.1928 55.3362 27.3949 57.6328 35.4876Z" fill="black"/>
<path d="M160.213 54.8989V57.8516H138.068V54.8989L140.419 54.2974C142.114 53.8599 142.77 52.9304 142.77 51.1806V31.4957C142.77 26.5198 140.583 23.1296 136.427 23.1296C134.459 23.1296 131.998 23.8951 129.155 25.6996C129.319 26.5745 129.428 27.504 129.428 28.4336V51.2353C129.428 53.0397 130.03 53.9693 131.78 54.3521L134.076 54.9535V57.9063H112.477V54.9535L114.829 54.3521C116.524 53.9146 117.18 52.985 117.18 51.2353V31.5504C117.18 26.5745 115.157 23.239 111.056 23.239C109.087 23.239 106.627 24.0045 103.783 25.809V51.2353C103.783 53.0397 104.44 53.9693 106.135 54.3521L108.486 54.9535V57.9063H86.3403V54.9535L88.6369 54.3521C90.4413 53.9146 90.9882 52.985 90.9882 51.2353V22.6922L86.7231 21.4345V18.4818L101.323 15.5291H103.127V21.9813H103.455C104.986 19.8488 108.978 14.7089 116.579 14.7089C122.539 14.7089 126.257 17.8256 128.007 21.9813H128.335C129.866 19.8488 134.514 14.7089 142.169 14.7089C150.972 14.7089 155.401 21.6533 155.401 28.4336V51.2353C155.401 53.0397 156.003 53.9693 157.753 54.3521L160.213 54.8989Z" fill="black"/>
<path d="M202.7 57.0862C200.348 58.1252 197.614 58.6173 195.044 58.6173C190.725 58.6173 187.335 57.0316 185.968 53.0399H185.53C183.562 57.0316 179.187 58.8907 174.703 58.8907C168.415 58.8907 161.908 54.735 161.908 45.6581C161.908 34.722 172.079 32.5895 185.585 30.1289C185.585 23.6219 180.937 20.8879 175.742 20.8879C172.461 20.8879 168.962 21.9815 166.228 23.8406L164.369 21.2707C169.454 16.6228 175.961 14.1622 181.921 14.1622C190.889 14.1622 198.052 19.5756 198.052 30.621V49.1029C198.052 51.2901 197.724 54.9537 202.7 54.2975V57.0862ZM185.475 47.6812V33.9565C178.039 35.7609 174.649 36.9092 174.649 43.0334C174.649 48.6108 177.219 51.3448 180.992 51.3448C183.507 51.3448 185.475 49.9778 185.475 47.6812Z" fill="black"/>
<path d="M248.029 51.1259C248.029 52.9304 248.631 53.8599 250.381 54.2427L252.677 54.8442V57.7969H230.532V54.8442L232.883 54.2427C234.578 53.8052 235.234 52.8757 235.234 51.1259V31.441C235.234 26.4651 233.266 23.0749 229.274 23.0749C227.306 23.0749 224.954 23.8405 222.056 25.6449V51.1806C222.056 52.985 222.712 53.9146 224.408 54.2974L226.759 54.8989V57.8516H204.613V54.8989L206.91 54.2974C208.714 53.8599 209.261 52.9304 209.261 51.1806V22.6922L204.996 21.4345V18.4818L219.596 15.5291H221.4V21.9813H221.728C223.259 19.8488 226.978 14.7089 234.633 14.7089C243.436 14.7089 247.865 21.6533 247.865 28.4336V51.1259H248.029Z" fill="black"/>
<path d="M295.164 57.0862C292.813 58.1252 290.079 58.6173 287.509 58.6173C283.189 58.6173 279.799 57.0316 278.432 53.0399H277.994C276.026 57.0316 271.652 58.8907 267.168 58.8907C260.88 58.8907 254.373 54.735 254.373 45.6581C254.373 34.722 264.543 32.5895 278.049 30.1289C278.049 23.6219 273.401 20.8879 268.207 20.8879C264.926 20.8879 261.426 21.9815 258.692 23.8406L256.833 21.2707C261.918 16.6228 268.425 14.1622 274.386 14.1622C283.353 14.1622 290.516 19.5756 290.516 30.621V49.1029C290.516 51.2901 290.188 54.9537 295.164 54.2975V57.0862ZM277.94 47.6812V33.9565C270.503 35.7609 267.113 36.9092 267.113 43.0334C267.113 48.6108 269.683 51.3448 273.456 51.3448C276.026 51.3448 277.94 49.9778 277.94 47.6812Z" fill="black"/>
</svg>
