<svg width="188" height="177" viewBox="0 0 188 177" fill="none" xmlns="http://www.w3.org/2000/svg">
<path d="M96.1969 170.907C139.837 170.907 175.214 135.576 175.214 91.9936C175.214 48.4108 139.837 13.0799 96.1969 13.0799C52.5568 13.0799 17.1794 48.4108 17.1794 91.9936C17.1794 135.576 52.5568 170.907 96.1969 170.907Z" fill="#221531"/>
<path d="M46.9973 29.083C50.0758 26.5811 53.4572 24.5372 56.9207 22.6338C64.4731 18.4813 72.4971 15.5948 80.9689 14.0305C88.6121 12.6197 96.3094 12.3064 104.067 13.0216C113.9 13.929 123.192 16.6383 131.973 21.0912C138.982 24.6474 145.347 29.1197 150.861 34.7523C150.905 36.39 151.541 37.8872 151.958 39.4385C153.401 44.8009 153.418 50.2801 153.241 55.7722C152.884 55.7808 152.527 55.7894 152.168 55.7981C151.802 55.5691 151.441 55.5863 151.08 55.8067C148.2 55.8089 145.319 55.811 142.439 55.8132C142.361 55.7203 142.288 55.7246 142.214 55.8175C141.784 55.8175 141.355 55.8175 140.925 55.8175C140.851 55.7246 140.776 55.7203 140.698 55.8132C140.124 55.8132 139.551 55.8132 138.978 55.8132C137.965 55.5928 136.957 55.5431 135.958 55.8759C132.938 56.3274 130.625 57.896 128.764 60.2769C127.655 61.6985 126.194 62.6664 124.429 63.2347C122.553 63.8396 120.654 63.5674 118.763 63.6408C113.889 63.831 108.97 63.1482 104.152 64.3905C104.199 64.0967 104.121 63.8288 104.026 63.5501C102.925 60.3439 100.863 57.9737 97.8238 56.47C91.4029 53.2897 83.2513 57.3364 81.8126 64.3495C81.5119 65.8165 81.3886 67.3483 80.7287 68.7246C78.9786 72.3802 75.9715 74.1454 72.0017 74.4349C71.0779 74.5019 70.1217 74.4414 69.3234 75.0506C68.9643 75.0614 68.603 75.0809 68.2439 75.0787C56.0251 75.0787 43.8085 75.0787 31.5897 75.0723C27.0855 75.0701 22.5814 75.0485 18.0794 75.0355C18.432 72.996 18.7457 70.9478 19.5548 69.0206C21.2812 69.04 23.0054 69.0724 24.7318 69.0746C30.5578 69.0811 36.3859 69.0789 42.2119 69.0746C43.6332 69.0746 44.7669 68.474 45.351 67.1884C45.9156 65.9461 45.6214 64.7233 44.7777 63.656C43.9707 62.6362 42.7874 62.5865 41.6386 62.5541C39.8776 62.5044 38.1145 62.5303 36.3513 62.526C34.335 62.5195 31.7931 59.7994 33.2512 57.5308C33.461 57.2046 33.6687 56.8762 33.8764 56.5478C34.9278 55.5777 36.2215 55.3919 37.5823 55.3919C46.5214 55.3941 55.4583 55.3573 64.3974 55.3962C69.821 55.42 74.3143 51.8508 74.1131 46.0454C74.0439 44.0728 75.052 42.4697 76.4041 41.0848C77.9099 39.5422 79.7942 38.6866 81.8299 38.1098C83.089 38.1162 84.3502 38.1465 85.6093 38.127C92.1211 38.0276 98.6394 38.3712 105.147 37.9434C107.596 37.7813 109.487 36.4958 111.029 34.7091C113.787 31.5136 113.703 25.6262 110.973 22.3032C108.117 18.8269 104.552 17.7402 100.318 18.4337C96.1731 19.1143 93.7739 21.8366 92.2617 25.5829C91.3985 27.7197 89.6873 28.9642 87.3595 29.0463C83.5844 29.1824 79.805 29.217 76.0256 29.2386C71.1342 29.2688 66.2427 29.1975 61.3535 29.258C56.5659 29.325 51.7827 29.0744 46.9973 29.083ZM145.637 42.7398C145.585 42.608 145.494 42.5734 145.366 42.6274C144.15 42.2169 143.088 42.4784 142.232 43.4204C141.316 44.4272 141.189 45.6349 141.773 46.8146C142.461 48.2059 143.629 48.4911 145.029 48.2729C145.985 48.8087 146.768 48.3831 147.45 47.7609C148.371 46.9183 148.559 45.7775 148.122 44.6972C147.727 43.7207 147.082 42.7916 145.782 42.8111C145.721 42.8111 145.673 42.7873 145.637 42.7398ZM124.933 35.1066C124.864 35.0893 124.795 35.0764 124.73 35.0504C120.645 33.4279 116.232 35.5711 114.75 39.1749C113.166 43.025 114.832 47.4692 118.657 48.9557C118.88 49.4591 119.207 49.9128 119.693 50.1396C121.645 51.0535 123.642 51.639 125.842 51.0751C130.947 49.768 132.983 44.842 131.573 40.4863C130.64 37.6063 128.446 36.0313 125.74 35.0202C125.448 34.91 125.182 34.8949 124.933 35.1066ZM82.8186 48.5646C82.784 48.7979 82.9354 48.8887 83.1214 48.9232C84.1685 49.1134 84.7461 49.7551 84.9408 50.777C84.9928 51.0557 85.1442 51.261 85.4384 51.235C85.7759 51.2069 85.7391 50.8872 85.7954 50.656C85.9987 49.8004 86.3124 49.0723 87.3941 49.1285C87.6191 49.1393 87.8246 49.0529 87.8614 48.7871C87.9112 48.422 87.6645 48.234 87.3725 48.1951C86.479 48.0806 86.0723 47.5427 85.9425 46.7087C85.8927 46.3911 85.698 46.1988 85.367 46.1707C84.9668 46.1383 84.9344 46.471 84.8305 46.726C84.5363 47.4411 84.1966 48.0936 83.2924 48.1822C83.0912 48.2016 82.8813 48.3205 82.8186 48.5646Z" fill="#FAFBFB"/>
<path d="M136.817 124.328C131.981 124.384 127.146 124.438 122.311 124.499C121.954 124.503 121.599 124.542 121.242 124.566C117.517 124.652 114.116 127.39 113.045 131.251C112.037 134.882 109.891 137.322 106.097 138.099C104.608 138.404 103.085 138.188 101.584 138.322C101.082 138.29 100.582 138.231 100.08 138.231C96.5149 138.22 92.9475 138.253 89.3823 138.208C85.2437 138.156 82.0419 135.781 80.9667 131.771C79.7617 127.271 75.9304 124.533 71.2596 124.533C55.3393 124.533 39.419 124.525 23.4987 124.518C21.279 119.973 19.6868 115.206 18.5467 110.285C32.6519 110.283 46.7572 110.293 60.8602 110.25C62.128 110.246 63.1253 110.326 63.4563 111.773C63.4974 111.953 63.7246 112.089 63.8673 112.244C64.4558 112.905 65.2368 113.106 66.0783 113.156C66.1692 113.456 66.4223 113.482 66.6776 113.51C68.1746 113.672 69.3277 112.797 69.6847 111.067C69.8188 110.419 70.0784 110.257 70.6777 110.267C78.0029 110.388 85.3324 110.056 92.6555 110.453C92.9129 110.466 93.1617 110.462 93.3304 110.222C93.8323 110.254 94.3364 110.315 94.8383 110.315C106.659 110.328 118.48 110.334 130.3 110.343C130.385 110.341 130.469 110.337 130.554 110.334C131.624 110.334 132.693 110.334 133.764 110.332C133.846 110.33 133.931 110.33 134.013 110.328C134.435 110.328 134.857 110.328 135.278 110.328C135.363 110.33 135.445 110.33 135.529 110.332C137.169 110.345 138.809 110.358 140.447 110.371C139.644 112.936 138.022 115.079 136.717 117.373C135.549 119.424 134.069 121.297 132.736 123.257C132.6 123.455 132.39 123.734 132.442 123.905C132.55 124.255 132.933 124.067 133.199 124.095C134.402 124.229 135.635 123.868 136.817 124.328ZM88.8068 122.228C88.8241 123.54 89.6873 124.438 90.9356 124.443C92.1903 124.447 93.2244 123.423 93.1985 122.204C93.1682 120.893 92.2271 119.973 90.9356 119.992C89.7457 120.009 88.7917 121.012 88.8068 122.228ZM94.2953 130.816C94.2975 129.941 93.6095 129.267 92.7247 129.282C91.8182 129.297 91.1497 129.941 91.1432 130.81C91.1368 131.735 91.7771 132.441 92.6252 132.439C93.5143 132.437 94.291 131.681 94.2953 130.816ZM107.222 120.856C106.337 120.852 105.677 121.541 105.698 122.446C105.722 123.391 106.287 123.98 107.154 123.967C108.074 123.954 108.738 123.317 108.755 122.431C108.773 121.517 108.132 120.861 107.222 120.856Z" fill="#FAFBFB"/>
<path d="M135.278 110.33C134.857 110.33 134.435 110.33 134.013 110.33C133.931 110.332 133.846 110.332 133.764 110.334C132.693 110.334 131.624 110.334 130.554 110.337C130.469 110.339 130.385 110.343 130.3 110.345C118.48 110.337 106.659 110.33 94.8383 110.317C94.3364 110.317 93.8323 110.257 93.3304 110.224C90.5483 109.544 88.6208 107.891 87.5694 105.216C87.2773 104.477 86.8251 103.823 86.2627 103.25C84.8824 101.841 83.2101 101.172 81.2306 101.172C61.823 101.176 42.4153 101.172 23.0076 101.165C20.9913 101.165 18.975 101.135 16.9609 101.12C16.5282 99.724 16.5001 98.2613 16.366 96.8289C16.2145 95.1955 16.3357 93.5384 16.3379 91.8921C19.2173 91.8985 22.0989 91.9115 24.9784 91.9115C32.468 91.9158 39.9577 91.9201 47.4473 91.9115C50.0823 91.9093 52.012 90.5698 52.7281 88.2991C53.4398 86.0435 52.5464 83.6582 50.4457 82.1804C50.3051 82.0832 50.1991 81.9363 50.078 81.8131C50.4133 81.3983 50.8806 81.569 51.2894 81.569C64.6094 81.556 77.9315 81.5625 91.2514 81.5431C94.1309 81.5388 96.9108 80.8992 99.0958 78.998C100.662 77.6347 102.525 77.3948 103.996 78.03C105.634 78.7365 107.046 78.3195 108.558 78.3174C112.143 78.3131 115.724 78.5723 119.317 78.3692C121.684 78.2353 124.081 78.4384 126.447 78.6523C126.978 78.6998 127.962 78.7927 127.945 79.8254C127.112 79.1816 126.164 79.0088 125.123 79.0131C119.732 79.039 114.341 79.0282 108.952 79.0282C108.414 79.0282 107.886 79.052 107.36 79.2097C106.438 79.4884 105.887 80.0977 105.711 81.0116C105.538 81.9168 105.8 82.7098 106.525 83.3277C106.819 83.5805 107.241 83.6842 107.414 84.0795C107.403 84.1724 107.392 84.2654 107.384 84.3583L107.379 84.3604C104.431 84.8962 101.495 88.0031 100.939 91.1812C100.108 95.915 103.446 100.426 108.23 101.031C108.881 101.28 109.564 101.2 110.235 101.2C117.8 101.21 125.366 101.204 132.931 101.21C136.821 101.215 140.711 101.241 144.6 101.256C143.571 104.384 142.138 107.34 140.685 110.285C140.607 110.313 140.529 110.343 140.449 110.371C138.809 110.358 137.169 110.345 135.532 110.332C135.447 110.332 135.363 110.33 135.278 110.33ZM64.3281 96.2088C64.2351 96.3903 64.3692 96.4573 64.4861 96.5415C66.3661 97.8875 69.265 97.9135 71.1839 96.5999C72.8086 95.4872 73.7929 92.9637 73.3278 91.0991C72.7394 88.7333 70.6279 86.8083 68.3261 86.5404C67.8436 86.4302 67.3634 86.3114 66.8809 86.2142C64.3476 85.7021 61.7256 87.2534 60.8884 89.8374C60.1788 92.0303 61.0658 94.4847 63.4736 95.6449C63.7592 95.8307 64.0447 96.0208 64.3281 96.2088ZM91.617 96.9758C93.2374 97.0017 94.397 96.3449 94.8578 95.1415C95.6561 93.0523 94.2369 91.2893 91.7166 91.246C89.7565 91.2115 88.3417 92.3263 88.3244 93.9208C88.3049 95.7335 89.6094 96.9456 91.617 96.9758ZM79.9845 91.2957C78.2214 91.3044 77.0813 92.4451 77.0986 94.1844C77.1137 95.8653 78.2798 97.086 79.8829 97.1011C81.5963 97.1184 82.944 95.8264 82.9376 94.1736C82.9332 92.4862 81.7044 91.2893 79.9845 91.2957ZM123.821 105.128C123.732 105.54 124.191 105.849 124.699 105.91C125.368 105.99 125.493 105.361 125.554 104.886C125.625 104.317 125.316 103.874 124.708 103.857C124.07 103.838 123.871 104.307 123.821 105.128Z" fill="#5CB878"/>
<path d="M127.947 79.8254C127.962 78.7927 126.978 78.6998 126.45 78.6523C124.081 78.4405 121.686 78.2374 119.319 78.3692C115.724 78.5702 112.145 78.3109 108.561 78.3174C107.048 78.3195 105.636 78.7344 103.998 78.03C102.525 77.3948 100.662 77.6346 99.098 78.9979C96.9152 80.8992 94.133 81.5387 91.2536 81.5431C77.9337 81.5625 64.6137 81.556 51.2916 81.569C50.8827 81.569 50.4154 81.4005 50.0801 81.8131C49.1152 81.4999 48.1331 81.3681 47.112 81.3702C37.0717 81.381 27.0293 81.3745 16.989 81.3724C17.121 79.2226 17.6013 77.1312 18.0794 75.0398C22.5835 75.0528 27.0877 75.0744 31.5897 75.0766C43.8085 75.083 56.0251 75.083 68.2439 75.083C68.603 75.083 68.9643 75.0636 69.3234 75.055C76.4236 75.0701 83.5217 75.0917 90.6219 75.0939C94.1287 75.0939 96.6209 73.5426 97.8714 70.2024C98.7216 67.9317 100.251 66.294 102.401 65.2137C102.977 64.9242 103.57 64.6671 104.154 64.3949C108.974 63.1526 113.891 63.8353 118.765 63.6452C120.656 63.5717 122.553 63.8418 124.431 63.239C126.197 62.6708 127.655 61.7028 128.767 60.2812C130.627 57.8981 132.938 56.3317 135.96 55.8802C136.966 55.8586 137.974 55.837 138.98 55.8175C139.553 55.8175 140.127 55.8175 140.7 55.8175C140.776 55.8197 140.851 55.8197 140.927 55.8218C141.358 55.8218 141.786 55.8218 142.216 55.8218C142.292 55.8197 142.366 55.8197 142.441 55.8175C145.321 55.8154 148.202 55.8132 151.082 55.811C151.445 55.9126 151.809 55.9126 152.17 55.8024C152.527 55.7938 152.884 55.7851 153.243 55.7765C157.637 55.8024 162.031 55.8305 166.425 55.8564C167.441 56.9972 167.991 58.3626 168.318 59.8318C166.596 59.8318 164.873 59.8188 163.151 59.8296C159.638 59.8534 156.125 59.7087 152.616 59.9787C151.867 59.9722 151.119 59.9485 150.372 59.9593C149.334 59.9744 148.685 60.6679 148.694 61.7266C148.702 62.822 149.431 63.5155 150.943 63.8655C150.619 64.1767 150.193 64.2782 149.784 64.4078C146.599 65.4168 144.609 67.6702 143.488 70.6907C142.53 73.2768 141.721 75.9127 140.107 78.2007C139.67 78.8208 139.201 79.3998 138.614 79.8816C138.34 79.6634 138.348 79.8794 138.333 80.0631L138.335 80.0588C138.039 80.0804 137.892 80.2295 137.926 80.5363C137.855 80.6032 137.781 80.6724 137.71 80.7393C136.868 80.7264 136.2 81.2233 135.586 81.6511C133.665 82.9906 131.484 83.4379 129.238 83.7122C128.73 83.7749 128.401 83.5545 128.773 83.0317C129.426 82.107 128.946 81.1931 128.816 80.2791C128.756 79.847 128.401 79.8514 128.057 79.9399C128.005 79.9119 127.97 79.8751 127.947 79.8254ZM132.2 68.2169L132.222 68.2428C132.219 68.4351 132.304 68.5496 132.503 68.5647L132.527 68.5863C133.89 70.3817 136.036 70.6194 137.898 69.1934C139.41 68.0354 140.388 65.4276 138.764 63.6495C138.463 63.1677 138.132 62.7204 137.641 62.4028C136.189 61.463 133.915 61.6359 132.633 62.7593C131.237 63.9822 130.891 66.0066 131.908 67.9338C131.845 68.1909 132.027 68.1974 132.2 68.2169Z" fill="#0E6A5E"/>
<path d="M46.9973 29.083C51.7849 29.0744 56.5659 29.325 61.3557 29.2645C66.2449 29.204 71.1363 29.2753 76.0277 29.2451C79.805 29.2213 83.5866 29.1867 87.3617 29.0528C89.6895 28.9685 91.4007 27.7262 92.2639 25.5894C93.7761 21.8431 96.1731 19.1208 100.32 18.4402C104.554 17.7445 108.119 18.8334 110.975 22.3097C113.705 25.6326 113.79 31.5201 111.031 34.7155C109.491 36.5023 107.598 37.7878 105.149 37.9499C98.6415 38.3777 92.1233 38.0341 85.6115 38.1335C84.3524 38.153 83.0912 38.1249 81.8321 38.1162C81.6655 38.0601 81.4989 37.9564 81.3323 37.9564C78.0916 37.9499 74.8443 37.8505 71.6079 37.9888C68.5316 38.1206 66.2276 39.7604 65.6305 42.4006C65.0096 45.1423 62.8073 46.3349 60.2112 46.3436C50.3051 46.376 40.4012 46.363 30.495 46.3652C31.8883 44.0923 33.6298 42.0895 35.3756 40.0931C38.6683 36.3295 42.1665 32.7754 46.119 29.6901C46.398 29.4676 46.7031 29.2839 46.9973 29.083Z" fill="#B3E4B4"/>
<path d="M23.4986 124.518C39.419 124.525 55.3393 124.533 71.2596 124.533C75.9282 124.533 79.7595 127.271 80.9667 131.771C82.0397 135.781 85.2416 138.153 89.3823 138.208C92.9475 138.253 96.5128 138.218 100.08 138.231C100.582 138.233 101.084 138.292 101.584 138.322C101.298 139.018 101.123 139.787 100.71 140.396C98.4555 143.706 95.3532 145.519 91.2774 145.517C85.2956 145.514 79.3117 145.43 73.3321 145.549C69.2823 145.629 65.8317 144.486 63.0366 141.509C62.7294 141.183 62.42 140.779 61.8619 140.878L61.8835 140.848C61.89 140.612 61.7299 140.569 61.5439 140.558L61.5179 140.521C61.4746 140.448 61.5785 140.249 61.3535 140.331C59.8305 138.709 57.9354 138.091 55.7352 138.108C50.5928 138.145 45.4483 138.108 40.3038 138.112C37.3919 138.115 34.48 138.141 31.5681 138.158C31.3387 138.121 31.183 137.981 31.0618 137.795C29.1472 134.876 27.0552 132.074 25.5885 128.868C25.0671 127.725 24.5674 126.521 23.728 125.536C23.464 125.227 23.49 124.875 23.4986 124.518ZM49.6107 131.877C49.6107 131.879 49.6107 131.884 49.6107 131.886C50.5085 131.886 51.4084 131.886 52.3062 131.886C52.3776 131.886 52.4512 131.886 52.5226 131.879C53.6735 131.778 54.5259 130.929 54.6167 129.792C54.6989 128.783 53.8747 127.5 52.8601 127.433C50.714 127.29 48.5484 127.2 46.411 127.498C45.3055 127.651 44.3969 128.865 44.4726 129.775C44.57 130.955 45.4937 131.81 46.8069 131.866C47.7415 131.91 48.6761 131.877 49.6107 131.877Z" fill="#0E6A5E"/>
<path d="M16.9609 101.118C18.9772 101.133 20.9935 101.163 23.0076 101.163C42.4153 101.169 61.823 101.176 81.2306 101.169C83.2101 101.169 84.8803 101.839 86.2627 103.248C86.823 103.82 87.2773 104.473 87.5694 105.214C88.6229 107.889 90.5505 109.539 93.3304 110.222C93.1617 110.462 92.9129 110.468 92.6555 110.453C85.3324 110.056 78.0029 110.386 70.6777 110.267C70.0784 110.257 69.8188 110.421 69.6847 111.067C69.3256 112.795 68.1746 113.672 66.6776 113.51C66.4223 113.482 66.1692 113.456 66.0783 113.156C68.0989 112.056 68.7025 111.032 68.0578 109.49C68.06 110.304 67.6468 110.665 67.1925 111.099C66.2276 112.015 65.0421 112.059 63.8695 112.244C63.7289 112.089 63.4996 111.953 63.4585 111.773C63.1296 110.326 62.1301 110.246 60.8624 110.25C46.7572 110.293 32.6519 110.28 18.5488 110.285C17.757 107.407 17.2854 104.466 16.8636 101.517C16.8441 101.392 16.9263 101.252 16.9609 101.118Z" fill="#B3E4B4"/>
<path d="M31.5681 138.156C34.48 138.141 37.3919 138.115 40.3038 138.11C45.4483 138.106 50.5907 138.143 55.7352 138.106C57.9354 138.091 59.8305 138.709 61.3535 140.329C61.4076 140.392 61.4617 140.457 61.5179 140.519L61.5439 140.556C61.6109 140.707 61.6737 140.865 61.8857 140.846L61.8641 140.876C62.8289 142.591 63.452 144.374 63.0647 146.394C62.9717 146.878 63.0063 147.394 63.0431 147.891C63.2205 150.287 65.3363 152.461 67.61 152.601C71.7788 152.88 75.9563 152.703 80.1295 152.787C80.6833 152.938 81.2674 153.02 81.7866 153.251C84.3654 154.396 86.1653 156.203 86.6088 159.111C84.6921 158.975 83.4676 159.947 82.7688 161.621C81.8862 163.734 80.2485 164.525 78.0743 164.503C76.5318 164.488 74.9871 164.473 73.4446 164.501C70.9005 164.547 68.352 164.391 65.8122 164.62C63.0626 163.689 60.486 162.369 57.8921 161.088C57.3469 160.818 56.8039 160.547 56.2587 160.275L56.2047 160.316C56.0511 160.061 55.7979 159.973 55.5318 159.904L55.5362 159.936C55.0927 159.517 54.5432 159.29 53.9829 159.08C53.4355 158.426 52.4685 158.339 51.9839 157.598C52.1245 157.577 52.2781 157.585 52.4036 157.527C54.316 156.65 56.4015 154.336 55.7244 150.523C55.3371 148.345 52.9942 146.048 50.5864 145.981C46.4586 145.867 42.3244 145.819 38.1945 145.994C37.9652 145.983 37.777 145.884 37.6299 145.713C35.6677 143.417 33.5605 141.239 31.8601 138.728C31.739 138.553 31.6633 138.348 31.5681 138.156Z" fill="#B3E4B4"/>
<path d="M30.495 46.363C40.4012 46.3587 50.3051 46.3738 60.2112 46.3414C62.8073 46.3328 65.0096 45.1423 65.6305 42.3984C66.2276 39.7582 68.5316 38.1162 71.6079 37.9866C74.8443 37.8483 78.0894 37.9477 81.3323 37.9542C81.4989 37.9542 81.6655 38.06 81.8321 38.1141C79.7963 38.6909 77.912 39.5465 76.4063 41.0891C75.0542 42.474 74.0461 44.0771 74.1153 46.0497C74.3186 51.8551 69.8231 55.4221 64.3995 55.4005C55.4604 55.3616 46.5235 55.3984 37.5844 55.3962C36.2237 55.3962 34.9321 55.5842 33.8786 56.5521C33.3377 56.9648 32.2128 56.3252 32.1089 57.5243C32.0786 57.8808 31.9661 58.1876 31.5551 58.166C31.144 58.1466 31.064 57.8074 31.0467 57.4682C31.0099 56.6753 30.5534 56.4635 29.8244 56.4894C28.8595 56.5262 27.8471 56.6644 26.9406 56.4311C26.1899 56.2388 25.6858 56.2496 25.2142 56.8719C24.9395 56.6299 25.37 56.0897 24.7967 56.1092C24.8075 55.9342 24.7642 55.7333 24.8378 55.5885C26.4884 52.3693 28.2732 49.2322 30.495 46.363Z" fill="#5CB878"/>
<path d="M140.449 110.373C140.527 110.345 140.605 110.315 140.685 110.287C141.851 110.44 143.019 110.33 144.185 110.289C151.813 110.287 159.441 110.285 167.069 110.283C167.662 110.283 168.255 110.283 168.848 110.285C169.192 110.285 169.536 110.287 169.88 110.287C170.182 110.289 170.487 110.291 170.79 110.293C171.208 110.293 171.625 110.295 172.043 110.295C172.253 110.304 172.465 110.313 172.675 110.319C172.46 112.478 171.671 114.491 171.087 116.555C170.384 119.046 169.373 121.429 168.367 123.808C168.268 124.041 168.17 124.272 167.943 124.412L167.902 124.354L167.954 124.307C167.868 124.194 167.792 124.212 167.72 124.324C167.591 124.324 167.459 124.326 167.329 124.326C166.97 123.976 166.513 124.101 166.096 124.101C156.845 124.093 147.597 124.093 138.346 124.099C137.965 124.099 137.543 123.98 137.228 124.328C137.091 124.328 136.955 124.328 136.817 124.326C135.635 123.866 134.402 124.227 133.202 124.095C132.935 124.067 132.553 124.255 132.444 123.905C132.392 123.734 132.602 123.455 132.739 123.257C134.071 121.299 135.551 119.426 136.719 117.373C138.024 115.081 139.644 112.94 140.449 110.373Z" fill="#B3E4B4"/>
<path d="M144.185 110.289C143.019 110.33 141.851 110.44 140.685 110.287C142.138 107.342 143.571 104.386 144.6 101.258C146.673 101.159 148.758 101.401 150.807 100.783C153.827 99.8752 156.934 97.0838 157.414 93.4671C157.927 89.5997 160.724 87.4262 164.408 87.4176C167.898 87.4089 171.387 87.4241 174.875 87.4284C175.031 87.7049 175.305 87.9296 175.284 88.2839C175.197 89.7402 175.465 91.2525 175.193 92.6374C174.847 94.3961 174.998 96.1289 174.851 97.8681C174.689 99.8018 174.503 101.731 174.068 103.639C173.728 105.13 173.642 106.674 173.363 108.183C173.226 108.913 172.908 109.611 172.672 110.321C172.46 110.313 172.251 110.304 172.041 110.296C171.625 109.978 171.208 109.976 170.788 110.293C170.485 110.291 170.18 110.289 169.877 110.287C169.533 109.991 169.189 109.993 168.845 110.285C168.253 110.285 167.66 110.285 167.067 110.283C166.736 109.963 166.319 110.082 165.936 110.079C159.06 110.073 152.185 110.073 145.31 110.079C144.931 110.084 144.512 109.961 144.185 110.289ZM161.7 101.236C163.054 103.425 165.912 104.049 168.082 102.634C170.271 101.206 170.907 98.3413 169.497 96.2693C168.969 95.5369 168.484 94.7742 167.638 94.3356C165.786 93.3742 163.266 93.7998 161.903 95.3295C160.404 97.0104 160.326 99.3005 161.7 101.236Z" fill="#0E6A5E"/>
<path d="M174.875 87.4284C171.385 87.424 167.896 87.4089 164.408 87.4176C160.726 87.4262 157.927 89.5997 157.414 93.4671C156.934 97.0838 153.827 99.8752 150.807 100.783C148.756 101.398 146.673 101.159 144.6 101.258C140.711 101.243 136.821 101.217 132.933 101.213C125.368 101.204 117.803 101.21 110.237 101.202C109.569 101.202 108.885 101.282 108.232 101.033C108.446 100.783 108.74 100.761 109.026 100.804C111.892 101.239 114.774 100.968 117.649 100.992C123.592 101.04 129.537 101.01 135.48 101.001C135.819 101.001 136.287 101.178 136.464 100.787C136.654 100.374 136.157 100.212 135.947 99.9487C135.815 99.7823 135.627 99.644 135.549 99.4582C134.822 97.6974 133.277 97.2631 131.624 97.1443C130.19 97.0428 128.745 97.1249 127.304 97.1227C125.379 97.1184 124.487 96.3039 124.474 94.5495C124.461 92.8211 125.543 91.7278 127.354 91.7213C133.065 91.7041 138.779 91.7538 144.49 91.6976C148.743 91.6565 152.012 89.833 154.63 86.4064C156.847 83.5048 159.733 81.569 163.727 81.4934C166.924 81.4329 170.126 81.4264 173.324 81.3356C174.051 81.3162 174.431 81.4739 174.529 82.2863C174.738 83.9974 174.957 85.7021 174.875 87.4284ZM150.152 94.085C149.472 94.1714 148.99 94.597 149.02 95.2646C149.05 95.8804 149.444 96.4789 150.184 96.4378C150.824 96.4011 151.424 96.0489 151.413 95.323C151.406 94.6035 150.952 94.1433 150.152 94.085Z" fill="#221531"/>
<path d="M16.9869 81.3702C27.0271 81.3724 37.0695 81.381 47.1098 81.3681C48.1287 81.3659 49.1131 81.4977 50.078 81.811C50.1991 81.9341 50.3073 82.0789 50.4457 82.1783C52.5464 83.6561 53.4377 86.0413 52.7281 88.2969C52.012 90.5698 50.0823 91.9072 47.4473 91.9093C39.9577 91.918 32.468 91.9137 24.9784 91.9093C22.0989 91.9072 19.2173 91.8964 16.3379 91.8899C16.0025 88.3509 16.2989 84.8487 16.9869 81.3702Z" fill="#FAFBFB"/>
<path d="M24.7988 56.1092C25.37 56.0898 24.9416 56.632 25.2164 56.8719C25.688 56.2496 26.1942 56.2388 26.9428 56.4311C27.8492 56.6645 28.8617 56.5262 29.8265 56.4894C30.5556 56.4614 31.0099 56.6753 31.0489 57.4682C31.064 57.8095 31.144 58.1466 31.5572 58.166C31.9683 58.1855 32.0808 57.8787 32.1111 57.5243C32.2149 56.3252 33.3399 56.9648 33.8807 56.5521C33.673 56.8805 33.4654 57.2089 33.2555 57.5351C31.7974 59.8037 34.3394 62.5238 36.3556 62.5303C38.1188 62.5368 39.8819 62.5087 41.6429 62.5584C42.7895 62.5908 43.9729 62.6405 44.782 63.6603C45.6257 64.7254 45.9199 65.9504 45.3553 67.1928C44.769 68.4783 43.6354 69.0789 42.2162 69.0789C36.3902 69.0832 30.5621 69.0854 24.7361 69.0789C23.0097 69.0768 21.2855 69.0443 19.5591 69.0249C20.8247 64.5267 22.3759 60.1408 24.7988 56.1092Z" fill="#B3E4B4"/>
<path d="M166.422 55.8542C162.029 55.8283 157.635 55.8002 153.241 55.7743C153.418 50.2822 153.401 44.8031 151.958 39.4406C151.541 37.8894 150.905 36.3921 150.861 34.7544C153.546 37.1591 155.878 39.89 158.098 42.7052C160.99 46.3781 163.571 50.2714 165.808 54.3829C166.061 54.8474 166.39 55.2925 166.422 55.8542Z" fill="#B3E4B4"/>
<path d="M38.1923 145.996C42.3222 145.821 46.4565 145.867 50.5842 145.983C52.992 146.05 55.335 148.345 55.7222 150.525C56.4015 154.338 54.3139 156.654 52.4014 157.529C52.2781 157.585 52.1223 157.579 51.9817 157.601C50.2337 156.808 48.8578 155.477 47.3369 154.362C44.2412 152.091 41.3812 149.54 38.718 146.77C38.506 146.545 38.188 146.377 38.1923 145.996Z" fill="#5CB878"/>
<path d="M127.947 79.8254C127.971 79.8751 128.005 79.9119 128.055 79.9356C128.855 81.7418 128.721 82.3273 127.205 83.6431C127.053 83.6993 126.878 83.7187 126.83 83.9153C121.318 83.9434 115.806 83.9693 110.294 83.9974C109.683 84.0018 109.067 83.9369 108.474 84.153C108.121 84.1292 107.769 84.1055 107.416 84.0839C107.243 83.6906 106.821 83.5848 106.527 83.332C105.805 82.7141 105.541 81.9212 105.714 81.0159C105.889 80.102 106.441 79.4906 107.362 79.214C107.888 79.0541 108.418 79.0325 108.954 79.0325C114.346 79.0325 119.737 79.0412 125.126 79.0174C126.166 79.0088 127.114 79.1816 127.947 79.8254Z" fill="#FAFBFB"/>
<path d="M171.827 69.0962C172.292 70.8614 172.74 72.6308 173.237 74.3852C173.393 74.9383 173.231 75.0831 172.705 75.0809C168.863 75.0615 165.018 75.1047 161.178 75.0182C159.459 74.9793 158.288 73.6506 158.258 72.0129C158.23 70.5265 159.221 69.4829 160.936 69.1869C161.04 69.1697 161.137 69.1156 161.237 69.0789C164.763 69.0854 168.294 69.0897 171.827 69.0962Z" fill="#B3E4B4"/>
<path d="M152.611 59.9766C156.12 59.7065 159.636 59.8513 163.147 59.8275C164.869 59.8145 166.591 59.8275 168.313 59.8297C168.928 61.0633 169.68 62.243 169.804 63.6668C169.687 63.643 169.57 63.6171 169.453 63.5933C168.93 63.3081 168.415 63.2628 167.917 63.656C162.589 63.6841 157.261 63.7121 151.932 63.7402C152.092 62.4742 152.159 61.1908 152.611 59.9766Z" fill="#B3E4B4"/>
<path d="M144.419 82.6536C142.35 81.0267 141.753 77.9566 143.093 75.8284C144.624 73.3957 147.772 72.5271 150.448 73.8018C152.441 79.052 148.248 83.2045 144.419 82.6536Z" fill="#FAFBFB"/>
<path d="M144.419 82.6536C148.248 83.2045 152.44 79.052 150.448 73.8018C152.579 74.8043 153.613 76.5393 153.652 78.8337C153.689 80.9619 152.183 83.0101 150.149 83.8138C148.118 84.6153 145.896 84.166 144.419 82.6536Z" fill="#B3E4B4"/>
<path d="M13.9841 48.7807C13.9819 50.1504 12.963 51.1875 11.626 51.1789C10.354 51.1702 9.2463 50.023 9.26577 48.7288C9.28524 47.3849 10.3388 46.3457 11.6758 46.3501C13.0452 46.3522 13.9863 47.3439 13.9841 48.7807Z" fill="#FAFBFB"/>
<path d="M166.371 25.5959C167.606 25.5851 168.588 26.5206 168.603 27.7262C168.618 28.9404 167.636 29.9407 166.444 29.9278C165.282 29.9148 164.322 28.9793 164.289 27.8342C164.255 26.5336 165.118 25.6067 166.371 25.5959Z" fill="#FAFBFB"/>
<path d="M152.611 59.9766C152.159 61.1908 152.092 62.472 151.934 63.7402C151.865 63.7597 151.796 63.7813 151.727 63.8007C151.463 63.8223 151.199 63.8439 150.937 63.8655C149.425 63.5155 148.696 62.8198 148.687 61.7266C148.678 60.6658 149.327 59.9744 150.366 59.9593C151.117 59.9485 151.865 59.9701 152.611 59.9766Z" fill="#FAFBFB"/>
<path d="M182.873 51.127C182.884 52.1403 182.07 52.985 181.047 53.0196C180.06 53.0542 179.137 52.136 179.106 51.0924C179.08 50.1504 179.995 49.2041 180.945 49.1933C181.958 49.1782 182.862 50.0856 182.873 51.127Z" fill="#FAFBFB"/>
<path d="M32.3469 21.8236C32.3469 22.6252 31.6481 23.3792 30.8736 23.4094C30.0191 23.444 29.277 22.6597 29.2857 21.7307C29.2944 20.7714 29.8979 20.1708 30.8304 20.1924C31.687 20.2118 32.349 20.9227 32.3469 21.8236Z" fill="#FAFBFB"/>
<path d="M108.474 84.1508C109.067 83.9326 109.683 83.9974 110.294 83.9953C115.806 83.965 121.318 83.9391 126.83 83.9132C126.768 84.4447 126.357 84.3712 126.01 84.3712C120.431 84.3755 114.854 84.3755 109.275 84.3755C108.989 84.3755 108.693 84.3971 108.474 84.1508Z" fill="#221531"/>
<path d="M127.205 83.641C128.721 82.3252 128.855 81.7419 128.055 79.9335C128.401 79.8449 128.754 79.8406 128.814 80.2748C128.944 81.1887 129.424 82.1048 128.771 83.0274C128.401 83.5524 128.728 83.7706 129.236 83.7079C131.484 83.4336 133.662 82.9863 135.583 81.6468C136.198 81.219 136.864 80.7199 137.708 80.735C135.177 82.9755 132.185 84.0061 128.836 84.1076C128.23 84.1292 127.709 83.9348 127.205 83.641Z" fill="#5CB878"/>
<path d="M151.729 63.8007C151.798 63.7813 151.867 63.7597 151.936 63.7402C157.265 63.7121 162.593 63.684 167.922 63.656C168.369 63.6624 168.817 63.6689 169.263 63.6754C169.287 63.7921 169.313 63.9087 169.337 64.0254C163.725 64.0405 158.113 64.0578 152.501 64.0708C152.216 64.0708 151.919 64.0859 151.729 63.8007Z" fill="#221531"/>
<path d="M178.663 142.207C179.747 142.23 180.361 142.851 180.266 143.596C180.169 144.363 179.652 144.851 178.905 144.83C178.144 144.806 177.65 144.283 177.709 143.488C177.763 142.755 178.12 142.202 178.663 142.207Z" fill="#B3E4B4"/>
<path d="M2.86432 67.5665C2.09416 67.478 1.79345 67.0242 1.82374 66.3242C1.85186 65.6566 2.20882 65.2375 2.89245 65.2785C3.58473 65.3196 4.01308 65.7625 4.00659 66.4625C3.99793 67.1755 3.55228 67.5341 2.86432 67.5665Z" fill="#B3E4B4"/>
<path d="M157.628 21.7372C156.925 21.5665 156.544 21.1301 156.536 20.5122C156.529 19.9418 156.841 19.4016 157.486 19.4081C158.16 19.4146 158.647 19.8273 158.649 20.5597C158.654 21.2403 158.154 21.5341 157.628 21.7372Z" fill="#B3E4B4"/>
<path d="M17.1794 151.432C17.015 152.009 16.7165 152.445 16.0718 152.415C15.4963 152.387 15.2583 151.931 15.3016 151.447C15.347 150.948 15.5655 150.456 16.2297 150.482C16.8441 150.503 17.0907 150.892 17.1794 151.432Z" fill="#B3E4B4"/>
<path d="M51.7113 11.2089C52.2673 11.3234 52.6632 11.6518 52.6394 12.207C52.6178 12.7493 52.2608 13.1145 51.6594 13.0972C51.0926 13.0799 50.8027 12.678 50.794 12.2027C50.7832 11.6583 51.1532 11.3061 51.7113 11.2089Z" fill="#B3E4B4"/>
<path d="M171.827 69.0962C168.296 69.0897 164.765 69.0854 161.235 69.0789C161.473 68.7894 161.808 68.824 162.128 68.824C165.07 68.8218 168.013 68.8197 170.955 68.824C171.266 68.824 171.615 68.757 171.827 69.0962Z" fill="#221531"/>
<path d="M163.493 151.977C163.995 151.97 164.263 152.216 164.285 152.674C164.304 153.115 164.092 153.452 163.621 153.476C163.104 153.502 162.985 153.091 162.939 152.692C162.89 152.283 163.067 152.005 163.493 151.977Z" fill="#B3E4B4"/>
<path d="M14.9901 26.9052C15.4098 26.9549 15.6824 27.2077 15.6391 27.6808C15.598 28.1345 15.2821 28.4046 14.8473 28.396C14.4168 28.3873 14.2264 27.9984 14.2199 27.6441C14.2156 27.225 14.4341 26.8879 14.9901 26.9052Z" fill="#B3E4B4"/>
<path d="M19.1048 39.4946C19.0789 39.8533 18.9339 40.1234 18.538 40.1493C18.1508 40.1752 17.8977 39.9613 17.915 39.5832C17.9323 39.1857 18.1789 38.9091 18.6072 38.9199C18.9469 38.9307 19.1092 39.1554 19.1048 39.4946Z" fill="#5CB878"/>
<path d="M149.079 158.568C149.349 158.614 149.555 158.75 149.533 159.044C149.513 159.305 149.366 159.51 149.063 159.51C148.795 159.51 148.709 159.316 148.687 159.093C148.659 158.81 148.793 158.631 149.079 158.568Z" fill="#B3E4B4"/>
<path d="M53.9807 159.081C54.541 159.29 55.0905 159.515 55.534 159.936C54.8223 160.003 54.1213 160.048 53.9807 159.081Z" fill="#221531"/>
<path d="M169.337 64.0254C169.313 63.9087 169.287 63.7921 169.261 63.6754C169.313 63.6214 169.378 63.5933 169.453 63.5933C169.57 63.6171 169.687 63.6408 169.804 63.6668C169.793 63.9757 169.549 63.9779 169.337 64.0254Z" fill="#5CB878"/>
<path d="M55.5297 159.901C55.7958 159.973 56.0511 160.061 56.2025 160.314C55.8174 160.437 55.5318 160.401 55.5297 159.901Z" fill="#221531"/>
<path d="M42.1686 168.861C42.2097 168.818 42.2508 168.775 42.2919 168.732C42.3266 168.781 42.3655 168.827 42.3893 168.881C42.3958 168.894 42.3374 168.956 42.3287 168.952C42.2703 168.928 42.2206 168.891 42.1686 168.861Z" fill="#221531"/>
<path d="M107.384 84.3604C107.488 84.4295 107.594 84.4965 107.697 84.5657C107.659 84.6024 107.62 84.6391 107.578 84.6759C107.511 84.5722 107.447 84.4663 107.379 84.3626L107.384 84.3604Z" fill="#221531"/>
<path d="M137.924 80.5341C137.887 80.2273 138.035 80.0782 138.333 80.0566C138.197 80.2165 138.061 80.3742 137.924 80.5341Z" fill="#5CB878"/>
<path d="M40.1264 170.564C40.0788 170.609 40.029 170.657 39.9814 170.702C39.962 170.667 39.9425 170.635 39.9252 170.6C39.9923 170.588 40.0593 170.575 40.1264 170.562C40.1242 170.559 40.1264 170.564 40.1264 170.564Z" fill="#221531"/>
<path d="M46.8351 172.72C46.8805 172.77 46.9281 172.819 46.9735 172.869C46.9389 172.891 46.9021 172.91 46.8675 172.932C46.8524 172.865 46.8394 172.796 46.8242 172.729C46.8242 172.726 46.8351 172.72 46.8351 172.72Z" fill="#221531"/>
<path d="M138.331 80.0609C138.344 79.8773 138.337 79.6612 138.612 79.8795C138.519 79.94 138.424 80.0005 138.331 80.0609Z" fill="#5CB878"/>
<path d="M129.022 175.961C129.009 175.985 128.998 176.006 128.985 176.03C128.998 176.008 129.011 175.985 129.022 175.961Z" fill="#221531"/>
<path d="M120.371 176.611C120.392 176.624 120.414 176.635 120.435 176.648C120.416 176.635 120.394 176.622 120.375 176.609C120.373 176.609 120.371 176.611 120.371 176.611Z" fill="#221531"/>
<path d="M104.154 64.3949C103.57 64.6671 102.977 64.9242 102.402 65.2137C100.251 66.294 98.7216 67.9317 97.8714 70.2024C96.6209 73.5426 94.1287 75.0938 90.6219 75.0938C83.5217 75.0917 76.4236 75.0701 69.3234 75.055C70.1239 74.4457 71.0779 74.5062 72.0038 74.4392C75.9736 74.1497 78.9807 72.3845 80.7309 68.7289C81.3886 67.3526 81.5141 65.8208 81.8148 64.3538C83.2556 57.3407 91.405 53.2962 97.826 56.4743C100.863 57.9781 102.927 60.3482 104.028 63.5544C104.121 63.8331 104.201 64.101 104.154 64.3949Z" fill="#B3E4B4"/>
<path d="M118.657 48.9556C114.832 47.4692 113.166 43.025 114.75 39.1749C116.232 35.5711 120.645 33.4278 124.73 35.0504C124.795 35.0763 124.866 35.0871 124.933 35.1066C125.197 35.2924 125.467 35.4696 125.725 35.6662C129.504 38.5548 130.253 43.7293 127.27 46.9399C124.886 49.5023 121.917 49.9452 118.657 48.9556Z" fill="#0E6A5E"/>
<path d="M118.657 48.9556C121.92 49.9452 124.886 49.5023 127.27 46.9377C130.253 43.7271 129.504 38.5527 125.725 35.664C125.467 35.4674 125.197 35.2902 124.933 35.1044C125.184 34.8927 125.448 34.9078 125.742 35.018C128.449 36.0313 130.642 37.6042 131.575 40.4842C132.985 44.8398 130.949 49.7658 125.844 51.073C123.644 51.6369 121.645 51.0514 119.696 50.1375C119.207 49.9128 118.88 49.4591 118.657 48.9556Z" fill="#B3E4B4"/>
<path d="M145.029 48.2751C143.627 48.4933 142.459 48.2081 141.773 46.8167C141.191 45.6371 141.319 44.4293 142.231 43.4225C143.088 42.4805 144.15 42.2191 145.366 42.6296C145.457 42.6663 145.546 42.703 145.637 42.7419C145.673 42.7895 145.721 42.8132 145.782 42.8132C147.547 44.8506 147.3 46.6352 145.029 48.2751Z" fill="#0E6A5E"/>
<path d="M82.8186 48.5624C82.8813 48.3183 83.0912 48.1995 83.2924 48.18C84.1945 48.0914 84.5363 47.4389 84.8305 46.7238C84.9344 46.4689 84.9668 46.1361 85.367 46.1685C85.698 46.1945 85.8949 46.3868 85.9425 46.7065C86.0701 47.5405 86.479 48.0785 87.3725 48.193C87.6645 48.2297 87.9112 48.4177 87.8614 48.785C87.8246 49.0507 87.6191 49.1371 87.3941 49.1263C86.3124 49.0702 85.9966 49.8004 85.7954 50.6538C85.7413 50.8872 85.7759 51.2048 85.4384 51.2329C85.1442 51.2566 84.9949 51.0535 84.9408 50.7748C84.7483 49.755 84.1685 49.1112 83.1214 48.9211C82.9376 48.8887 82.784 48.7979 82.8186 48.5624Z" fill="#B3E4B4"/>
<path d="M145.029 48.2751C147.3 46.6352 147.547 44.8506 145.782 42.8132C147.082 42.7938 147.726 43.7228 148.122 44.6994C148.559 45.7797 148.371 46.9204 147.45 47.763C146.768 48.3831 145.985 48.8087 145.029 48.2751Z" fill="#B3E4B4"/>
<path d="M138.978 55.8132C137.972 55.8348 136.964 55.8564 135.958 55.8758C136.957 55.5453 137.965 55.5928 138.978 55.8132Z" fill="#B3E4B4"/>
<path d="M152.168 55.7981C151.807 55.9061 151.443 55.9083 151.08 55.8067C151.441 55.5863 151.804 55.5712 152.168 55.7981Z" fill="#B3E4B4"/>
<path d="M142.439 55.8132C142.363 55.8154 142.29 55.8154 142.214 55.8175C142.286 55.7246 142.361 55.7203 142.439 55.8132Z" fill="#B3E4B4"/>
<path d="M140.925 55.8175C140.849 55.8154 140.773 55.8154 140.698 55.8132C140.773 55.7203 140.849 55.7246 140.925 55.8175Z" fill="#B3E4B4"/>
<path d="M145.637 42.7398C145.546 42.703 145.457 42.6642 145.366 42.6274C145.494 42.5734 145.585 42.608 145.637 42.7398Z" fill="#B3E4B4"/>
<path d="M86.6045 159.111C86.161 156.203 84.3611 154.396 81.7823 153.251C81.2631 153.02 80.679 152.938 80.1252 152.787C79.9434 152.249 79.4805 152.426 79.1192 152.422C75.4241 152.385 71.7291 152.363 68.034 152.333C67.822 152.331 67.7095 152.448 67.6078 152.601C65.3341 152.461 63.2183 150.287 63.0409 147.891C63.0042 147.394 62.9717 146.878 63.0626 146.394C63.4498 144.374 62.8268 142.591 61.8619 140.876C62.4179 140.776 62.7272 141.18 63.0344 141.507C65.8295 144.484 69.2801 145.627 73.33 145.547C79.3096 145.428 85.2935 145.512 91.2752 145.514C95.351 145.514 98.4533 143.704 100.708 140.394C101.121 139.787 101.296 139.016 101.582 138.32C103.083 138.186 104.606 138.402 106.094 138.097C109.891 137.322 112.035 134.88 113.043 131.248C114.116 127.388 117.515 124.65 121.24 124.564C121.281 124.75 121.348 124.903 121.586 124.881C124.314 124.635 127.047 124.836 129.777 124.771C130.134 124.762 130.504 124.767 130.846 124.853C131.278 124.961 131.43 125.186 131.077 125.62C129.251 127.867 127.477 130.155 125.632 132.385C124.503 133.748 123.287 135.042 122.086 136.347C121.826 136.63 121.64 136.903 121.666 137.289C121.415 137.333 121.149 137.361 121.134 137.698C121.132 137.741 121.219 137.827 121.262 137.825C121.602 137.81 121.625 137.542 121.671 137.294C122.095 137.222 122.514 137.121 122.941 137.088C124.665 136.954 125.95 137.594 126.558 138.86C127.226 140.249 126.995 141.772 125.647 143.051C123.572 145.02 121.374 146.86 119.241 148.77C118.612 149.334 118.175 149.531 118.142 148.397C118.14 148.306 117.943 148.222 117.837 148.135C117.614 147.582 117.437 147.003 116.903 146.644C115.903 145.536 114.4 145.123 113.117 145.607C111.81 146.1 111.103 147.381 111.049 148.948C111.012 150.03 111.89 150.611 112.171 151.497C112.208 152.003 112.007 152.359 111.587 152.666C108.97 154.574 106.302 156.399 103.483 158C104.342 156.162 104.606 154.377 103.377 152.536C101.584 149.853 97.5339 149.799 95.7404 152.53C94.4511 154.492 94.6825 156.518 96.3419 158.679C95.4246 158.856 94.8556 159.614 94.0833 160.04C91.842 161.276 89.6375 162.574 87.4222 163.853C87.2102 163.976 87.0263 164.149 86.8295 164.298C87.0328 162.561 87.1302 160.824 86.6045 159.111ZM121.123 134.515C122.785 134.526 124.076 133.359 124.057 131.866C124.04 130.406 122.703 129.055 121.305 129.086C119.845 129.118 118.618 130.35 118.625 131.78C118.631 133.163 119.86 134.507 121.123 134.515ZM120.412 138.512C119.538 139.18 118.636 139.813 118.147 140.828C119.263 140.403 119.804 139.415 120.412 138.512Z" fill="#2C2D4B"/>
<path d="M137.461 144.235C134.365 141.645 133.411 137.212 135.222 133.83C137.096 130.335 141.362 128.485 145.027 129.578C145.667 131.616 145.732 133.705 145.217 135.742C144.157 139.921 141.669 142.883 137.461 144.235Z" fill="#FAFBFB"/>
<path d="M137.461 144.235C141.669 142.883 144.157 139.921 145.215 135.742C145.73 133.705 145.665 131.616 145.024 129.578C149.914 130.674 152.715 136.406 150.617 141.012C150.249 140.915 150.007 141.126 149.758 141.342C147.848 143.01 145.598 144.104 143.354 145.238C142.495 145.672 141.515 145.465 140.737 146.018C139.428 145.826 138.426 145.067 137.461 144.235Z" fill="#B3E4B4"/>
<path d="M86.6045 159.111C87.1302 160.822 87.0328 162.561 86.8295 164.305C86.7148 164.644 86.6067 164.985 86.4812 165.32C85.2329 168.645 82.334 170.192 78.8747 169.296C74.4766 168.155 70.2796 166.418 66.0329 164.838C65.942 164.804 65.8815 164.694 65.8057 164.618C68.3477 164.389 70.894 164.544 73.4403 164.499C74.9828 164.471 76.5275 164.486 78.07 164.501C80.2441 164.523 81.8818 163.732 82.7645 161.619C83.4633 159.947 84.6877 158.975 86.6045 159.111Z" fill="#5CB878"/>
<path d="M96.3419 158.685C94.6825 156.525 94.4511 154.5 95.7404 152.536C97.536 149.803 101.586 149.859 103.377 152.543C104.606 154.381 104.342 156.168 103.483 158.007L103.475 158.022C103.098 158.067 102.893 158.283 102.836 158.651L102.821 158.67C102.445 158.759 102.092 158.877 101.943 159.288C101.597 159.383 101.253 159.48 100.907 159.575C100.664 159.547 100.426 159.539 100.268 159.778C99.9136 159.83 99.5566 159.884 99.2018 159.936C98.7173 159.364 98.1158 159.31 97.4474 159.534C97.0168 159.331 96.6015 159.111 96.3419 158.685Z" fill="#0E6A5E"/>
<path d="M112.171 151.501C111.89 150.615 111.012 150.034 111.049 148.952C111.103 147.385 111.81 146.104 113.117 145.612C114.397 145.128 115.901 145.54 116.903 146.649C116.801 148.863 115.654 150.27 113.571 150.963C113.201 151.086 112.948 151.315 113.024 151.758C112.74 151.672 112.457 151.586 112.171 151.501Z" fill="#FAFBFB"/>
<path d="M118.655 161.928C119.884 162.6 120.07 163.723 119.918 164.953C119.747 166.344 118.861 167.23 117.604 167.641C116.459 168.014 115.339 167.846 114.525 166.796C114.454 165.728 115.25 165.106 115.871 164.484C116.73 163.624 117.154 162.321 118.449 161.904C118.449 161.904 118.415 161.891 118.415 161.889C118.497 161.9 118.577 161.913 118.655 161.928Z" fill="#B3E4B4"/>
<path d="M140.739 146.02C141.515 145.467 142.495 145.676 143.356 145.24C145.6 144.106 147.85 143.01 149.76 141.345C150.009 141.126 150.253 140.915 150.619 141.014C150.009 143.548 146.476 146.24 143.685 146.379C142.688 146.428 141.671 146.552 140.739 146.02Z" fill="#5CB878"/>
<path d="M118.452 161.904C117.156 162.321 116.732 163.624 115.873 164.484C115.252 165.104 114.454 165.728 114.527 166.796C113.285 165.72 113.279 163.743 114.246 162.535C115.204 161.338 116.896 160.919 118.192 161.604C118.3 161.66 118.367 161.803 118.452 161.904Z" fill="#FAFBFB"/>
<path d="M113.024 151.756C112.948 151.313 113.201 151.084 113.571 150.961C115.652 150.268 116.801 148.861 116.903 146.647C117.437 147.005 117.614 147.584 117.837 148.137C117.969 151.192 115.531 153.027 113.024 151.756Z" fill="#B3E4B4"/>
<path d="M137.228 124.33C137.543 123.983 137.965 124.101 138.346 124.101C147.597 124.097 156.845 124.097 166.096 124.104C166.513 124.104 166.968 123.978 167.329 124.328C158.483 124.337 149.635 124.348 140.786 124.354C139.601 124.356 138.413 124.339 137.228 124.33Z" fill="#FAFBFB"/>
<path d="M57.2279 168.181C57.1176 168.866 56.62 169.177 56.0337 169.213C55.3934 169.252 54.8547 168.751 54.9109 168.202C54.9629 167.675 55.4604 167.139 56.1614 167.185C56.752 167.224 57.1371 167.565 57.2279 168.181Z" fill="#B3E4B4"/>
<path d="M134.426 151.877C134.42 152.422 134.112 152.629 133.6 152.64C133.087 152.651 132.892 152.4 132.909 151.914C132.929 151.393 133.165 151.112 133.706 151.128C134.195 151.14 134.417 151.406 134.426 151.877Z" fill="#2C2D4B"/>
<path d="M97.4495 159.532C98.1158 159.307 98.7194 159.361 99.204 159.934C98.5658 160.029 97.9687 159.951 97.4495 159.532Z" fill="#2C2D4B"/>
<path d="M102.839 158.648C102.895 158.281 103.1 158.063 103.477 158.02C103.464 158.432 103.258 158.651 102.839 158.648Z" fill="#2C2D4B"/>
<path d="M101.945 159.286C102.094 158.875 102.447 158.756 102.823 158.668C102.644 159.035 102.406 159.318 101.945 159.286Z" fill="#2C2D4B"/>
<path d="M100.271 159.776C100.428 159.534 100.664 159.545 100.909 159.573C100.798 159.96 100.599 160.068 100.271 159.776Z" fill="#2C2D4B"/>
<path d="M41.3119 170.119C41.2687 170.155 41.2254 170.194 41.1821 170.231C41.154 170.179 41.1194 170.129 41.0999 170.075C41.0956 170.067 41.1583 170.013 41.1713 170.019C41.2232 170.043 41.2665 170.084 41.3119 170.119Z" fill="#2C2D4B"/>
<path d="M48.3451 173.156C48.4078 173.053 48.4706 172.949 48.5355 172.847C48.5744 172.886 48.6133 172.925 48.6523 172.962C48.5484 173.025 48.4446 173.089 48.3429 173.152L48.3451 173.156Z" fill="#2C2D4B"/>
<path d="M141.135 174.881C141.2 174.779 141.264 174.675 141.329 174.574C141.368 174.613 141.407 174.652 141.446 174.69C141.345 174.755 141.241 174.82 141.139 174.885C141.137 174.885 141.135 174.881 141.135 174.881Z" fill="#2C2D4B"/>
<path d="M120.046 176.026C119.985 176.034 119.927 176.041 119.866 176.049C119.871 175.991 119.869 175.931 119.884 175.872C119.888 175.859 119.968 175.846 119.975 175.857C120.007 175.911 120.024 175.969 120.046 176.026Z" fill="#2C2D4B"/>
<path d="M155.625 165.162C155.58 165.113 155.534 165.065 155.489 165.015C155.523 164.996 155.558 164.977 155.59 164.957C155.603 165.024 155.616 165.091 155.629 165.158C155.631 165.158 155.625 165.162 155.625 165.162Z" fill="#2C2D4B"/>
<path d="M70.1888 175.963C70.1412 175.913 70.0957 175.866 70.0481 175.816C70.0827 175.797 70.1174 175.777 70.152 175.76C70.165 175.827 70.1779 175.894 70.1888 175.963Z" fill="#2C2D4B"/>
<path d="M41.4223 169.265C41.4093 169.289 41.3963 169.313 41.3812 169.337C41.3963 169.313 41.4093 169.291 41.4244 169.267L41.4223 169.265Z" fill="#2C2D4B"/>
<path d="M167.72 124.326C167.79 124.214 167.868 124.196 167.954 124.309C167.876 124.315 167.798 124.322 167.72 124.326Z" fill="#FAFBFB"/>
<path d="M81.2198 176.179C81.2328 176.155 81.2458 176.131 81.2588 176.108C81.248 176.131 81.235 176.155 81.2198 176.179Z" fill="#2C2D4B"/>
<path d="M118.655 161.928C118.575 161.915 118.497 161.902 118.417 161.891C118.497 161.902 118.577 161.915 118.655 161.928Z" fill="#FAFBFB"/>
<path d="M88.8068 122.228C88.7917 121.012 89.7457 120.009 90.9334 119.992C92.225 119.973 93.166 120.893 93.1963 122.204C93.2244 123.423 92.1882 124.447 90.9334 124.443C89.6873 124.438 88.8241 123.54 88.8068 122.228Z" fill="#0E6A5E"/>
<path d="M94.2953 130.816C94.2931 131.681 93.5143 132.437 92.6252 132.439C91.7771 132.441 91.1346 131.735 91.1433 130.81C91.1497 129.943 91.8182 129.297 92.7247 129.282C93.6095 129.267 94.2975 129.941 94.2953 130.816Z" fill="#0E6A5E"/>
<path d="M107.222 120.856C108.13 120.861 108.773 121.52 108.755 122.431C108.738 123.315 108.074 123.952 107.154 123.967C106.287 123.98 105.722 123.391 105.698 122.446C105.677 121.539 106.337 120.852 107.222 120.856Z" fill="#0E6A5E"/>
<path d="M63.8673 112.244C65.0399 112.059 66.2254 112.015 67.1903 111.099C67.6468 110.667 68.0578 110.306 68.0557 109.49C68.7003 111.03 68.0989 112.054 66.0762 113.156C65.2346 113.106 64.4558 112.905 63.8673 112.244Z" fill="#5CB878"/>
<path d="M133.766 110.332C133.848 110.33 133.933 110.33 134.015 110.328C133.931 110.33 133.848 110.332 133.766 110.332Z" fill="#B3E4B4"/>
<path d="M130.303 110.343C130.387 110.341 130.471 110.337 130.556 110.334C130.469 110.337 130.387 110.341 130.303 110.343Z" fill="#B3E4B4"/>
<path d="M135.278 110.33C135.363 110.332 135.445 110.332 135.529 110.334C135.447 110.332 135.363 110.33 135.278 110.33Z" fill="#B3E4B4"/>
<path d="M63.4736 95.6427C61.0658 94.4825 60.1788 92.0282 60.8884 89.8352C61.7234 87.2512 64.3476 85.6999 66.8809 86.212C67.3655 86.3092 67.8458 86.4302 68.3261 86.5382C68.365 86.6225 68.4018 86.7068 68.4386 86.7889C68.4602 87.4392 68.9383 87.9534 68.9102 88.6426C68.8128 91.0062 68.1162 93.0782 66.1303 94.5214C65.3471 95.0918 64.3931 95.3446 63.4736 95.6427Z" fill="#FAFBFB"/>
<path d="M91.617 96.9758C89.6073 96.9455 88.3027 95.7335 88.3244 93.9186C88.3417 92.3242 89.7565 91.2093 91.7166 91.2439C94.2369 91.2893 95.6561 93.0501 94.8578 95.1393C94.3992 96.3449 93.2396 97.0017 91.617 96.9758Z" fill="#FAFBFB"/>
<path d="M68.4407 86.791C68.404 86.7067 68.365 86.6225 68.3282 86.5404C70.6301 86.8083 72.7415 88.7333 73.33 91.0991C73.7929 92.9658 72.8108 95.4893 71.1861 96.5998C69.2671 97.9135 66.3682 97.8875 64.4882 96.5415C64.3714 96.4573 64.2373 96.3903 64.3303 96.2088C65.4098 96.5739 66.5045 96.6539 67.5884 96.2823C69.5657 95.606 70.7837 94.2276 71.0281 92.147C71.2964 89.8525 70.4743 88.0117 68.4407 86.791Z" fill="#0E6A5E"/>
<path d="M79.9845 91.2957C81.7044 91.2871 82.9332 92.4862 82.9376 94.1757C82.944 95.8285 81.5963 97.1184 79.8829 97.1033C78.2798 97.0881 77.1137 95.8674 77.0986 94.1865C77.0813 92.4451 78.2214 91.3044 79.9845 91.2957Z" fill="#B3E4B4"/>
<path d="M68.4407 86.791C70.4743 88.0117 71.2964 89.8525 71.0281 92.147C70.7837 94.2276 69.5679 95.606 67.5884 96.2823C66.5045 96.6539 65.4077 96.5739 64.3303 96.2088C64.0447 96.0208 63.7592 95.8307 63.4758 95.6427C64.3931 95.3446 65.3493 95.0918 66.1324 94.5214C68.1184 93.0782 68.8172 91.0084 68.9124 88.6426C68.9405 87.9555 68.4624 87.4413 68.4407 86.791Z" fill="#B3E4B4"/>
<path d="M123.821 105.128C123.871 104.307 124.07 103.838 124.708 103.855C125.316 103.872 125.625 104.317 125.554 104.883C125.493 105.359 125.368 105.987 124.699 105.907C124.191 105.849 123.732 105.54 123.821 105.128Z" fill="#B3E4B4"/>
<path d="M131.908 67.9317C130.891 66.0045 131.237 63.9779 132.633 62.7572C133.915 61.6337 136.187 61.4608 137.641 62.4007C138.132 62.7183 138.463 63.1677 138.764 63.6473C138.426 64.518 138.448 65.4859 137.788 66.2788C136.401 67.9446 134.621 68.5949 132.527 68.5841L132.503 68.5625C132.503 68.3746 132.405 68.2709 132.222 68.2406C132.222 68.2406 132.2 68.2147 132.2 68.2169C132.193 68.0289 132.081 67.9489 131.908 67.9317Z" fill="#FAFBFB"/>
<path d="M132.527 68.5841C134.621 68.5928 136.401 67.9446 137.788 66.2788C138.448 65.4859 138.426 64.518 138.764 63.6473C140.388 65.4254 139.41 68.0332 137.898 69.1913C136.036 70.6172 133.89 70.3795 132.527 68.5841Z" fill="#B3E4B4"/>
<path d="M132.219 68.2406C132.403 68.2687 132.501 68.3746 132.501 68.5625C132.304 68.5474 132.217 68.4329 132.219 68.2406Z" fill="#B3E4B4"/>
<path d="M131.908 67.9317C132.081 67.949 132.193 68.0289 132.2 68.2169C132.027 68.1974 131.845 68.1909 131.908 67.9317Z" fill="#B3E4B4"/>
<path d="M49.6107 131.877C48.6761 131.877 47.7393 131.91 46.8069 131.868C45.4938 131.81 44.57 130.955 44.4726 129.777C44.3969 128.868 45.3055 127.653 46.411 127.5C48.5484 127.202 50.714 127.292 52.8601 127.435C53.8747 127.502 54.6989 128.785 54.6167 129.794C54.5259 130.931 53.6735 131.78 52.5226 131.881C52.4512 131.888 52.3798 131.888 52.3062 131.888C51.4084 131.888 50.5085 131.888 49.6107 131.888C49.6107 131.884 49.6107 131.879 49.6107 131.877Z" fill="#2C2D4B"/>
<path d="M61.8835 140.848C61.6715 140.865 61.6088 140.709 61.5417 140.558C61.7299 140.569 61.89 140.612 61.8835 140.848Z" fill="#2C2D4B"/>
<path d="M61.5158 140.521C61.4617 140.459 61.4054 140.394 61.3513 140.331C61.5763 140.249 61.4746 140.448 61.5158 140.521Z" fill="#2C2D4B"/>
<path d="M67.6057 152.603C67.7074 152.45 67.8198 152.333 68.0319 152.335C71.7269 152.366 75.422 152.387 79.117 152.424C79.4783 152.428 79.9413 152.251 80.123 152.789C75.952 152.705 71.7767 152.882 67.6057 152.603Z" fill="#221531"/>
<path d="M144.185 110.289C144.512 109.961 144.931 110.082 145.312 110.082C152.187 110.075 159.063 110.075 165.938 110.082C166.321 110.082 166.738 109.963 167.069 110.285C159.441 110.287 151.813 110.287 144.185 110.289Z" fill="#2C2D4B"/>
<path d="M170.79 110.293C171.208 109.978 171.625 109.978 172.043 110.296C171.625 110.296 171.208 110.293 170.79 110.293Z" fill="#2C2D4B"/>
<path d="M168.848 110.285C169.192 109.993 169.538 109.991 169.88 110.287C169.536 110.287 169.192 110.287 168.848 110.285Z" fill="#2C2D4B"/>
<path d="M161.7 101.236C160.326 99.3005 160.404 97.0104 161.903 95.3295C163.266 93.7998 165.786 93.3742 167.638 94.3356C168.484 94.7742 168.969 95.5369 169.497 96.2693C169.016 98.3542 167.552 99.59 165.786 100.567C164.506 101.273 163.05 100.936 161.7 101.236Z" fill="#FAFBFB"/>
<path d="M161.7 101.236C163.05 100.936 164.506 101.275 165.786 100.567C167.552 99.59 169.016 98.352 169.497 96.2693C170.907 98.3412 170.271 101.206 168.082 102.634C165.912 104.049 163.054 103.423 161.7 101.236Z" fill="#B3E4B4"/>
<path d="M150.152 94.085C150.95 94.1433 151.404 94.6035 151.415 95.323C151.424 96.0489 150.827 96.4011 150.186 96.4378C149.446 96.4789 149.053 95.8804 149.022 95.2646C148.99 94.597 149.472 94.1693 150.152 94.085Z" fill="#B3E4B4"/>
<path d="M169.455 63.5933C169.38 63.5933 169.315 63.6214 169.263 63.6754C168.815 63.6689 168.369 63.6624 167.922 63.656C168.417 63.2627 168.932 63.3081 169.455 63.5933Z" fill="#FAFBFB"/>
<path d="M121.123 134.515C119.86 134.506 118.631 133.163 118.625 131.78C118.618 130.35 119.845 129.116 121.305 129.086C122.703 129.055 124.04 130.406 124.057 131.866C124.076 133.361 122.783 134.526 121.123 134.515Z" fill="#0E6A5E"/>
<path d="M120.412 138.512C119.804 139.415 119.265 140.403 118.147 140.828C118.636 139.813 119.538 139.18 120.412 138.512Z" fill="#221531"/>
<path d="M121.671 137.298C121.625 137.546 121.602 137.814 121.262 137.829C121.219 137.832 121.132 137.745 121.134 137.702C121.149 137.365 121.418 137.337 121.666 137.294L121.671 137.298Z" fill="#221531"/>
<mask id="mask0_94_4834" style="mask-type:luminance" maskUnits="userSpaceOnUse" x="15" y="11" width="161" height="160">
<path d="M95.8378 170.825C140.022 170.825 175.84 135.054 175.84 90.9284C175.84 46.8027 140.022 11.0317 95.8378 11.0317C51.654 11.0317 15.836 46.8027 15.836 90.9284C15.836 135.054 51.654 170.825 95.8378 170.825Z" fill="white"/>
</mask>
<g mask="url(#mask0_94_4834)">
<path d="M167.956 124.309C167.878 124.315 167.801 124.32 167.723 124.326C167.593 124.326 167.461 124.328 167.331 124.328C158.483 124.337 149.637 124.348 140.789 124.354C139.603 124.354 138.415 124.337 137.23 124.328C137.091 124.326 136.955 124.326 136.819 124.326C131.984 124.382 127.148 124.436 122.313 124.497C121.956 124.501 121.601 124.54 121.245 124.564C121.286 124.75 121.353 124.903 121.591 124.881C124.319 124.635 127.051 124.834 129.781 124.771C130.138 124.762 130.508 124.767 130.85 124.853C131.283 124.961 131.434 125.186 131.081 125.62C129.258 127.867 127.482 130.155 125.636 132.385C124.507 133.748 123.291 135.042 122.09 136.347C121.831 136.628 121.645 136.9 121.671 137.289L121.675 137.294C122.099 137.224 122.519 137.121 122.945 137.088C124.669 136.954 125.954 137.594 126.562 138.86C127.231 140.251 126.999 141.772 125.651 143.051C123.574 145.02 121.379 146.86 119.246 148.77C118.618 149.334 118.181 149.531 118.147 148.397C118.144 148.306 117.948 148.222 117.842 148.135C117.974 151.19 115.535 153.025 113.03 151.754C112.747 151.67 112.461 151.583 112.178 151.499C112.215 152.005 112.013 152.361 111.594 152.668C108.978 154.576 106.309 156.401 103.49 158.002L103.481 158.018C103.468 158.43 103.265 158.648 102.843 158.646L102.828 158.666C102.648 159.035 102.412 159.318 101.949 159.284C101.603 159.379 101.259 159.476 100.913 159.571C100.803 159.96 100.604 160.066 100.275 159.774C99.9201 159.826 99.5631 159.88 99.2083 159.932C98.5701 160.027 97.973 159.949 97.4538 159.53C97.0212 159.331 96.6058 159.109 96.3462 158.683C95.4289 158.86 94.8599 159.618 94.0876 160.044C91.8464 161.278 89.6419 162.576 87.4266 163.857C87.2145 163.981 87.0307 164.153 86.8338 164.303C86.717 164.64 86.611 164.983 86.4855 165.318C85.2351 168.643 82.3361 170.19 78.879 169.293C78.7622 169.263 78.6454 169.231 78.5286 169.198C78.561 169.555 78.5654 169.918 78.5264 170.287C78.3079 172.363 78.0829 174.442 77.8579 176.518C78.4572 176.417 79.0435 176.257 79.647 176.492C80.2138 176.713 80.6465 176.041 81.222 176.175C81.3756 176.831 81.8061 177.084 82.4205 176.866C83.1193 176.618 83.7596 176.691 84.3762 177.05C84.6315 177.199 84.8997 177.214 85.0836 177.052C85.6093 176.585 86.2216 176.682 86.7083 176.937C87.3552 177.277 87.9566 177.095 88.558 177C88.9431 176.937 89.2676 177.028 89.6116 177.05C90.4769 177.102 91.4959 177.411 92.212 176.849C92.8177 176.373 93.2417 176.564 93.7545 176.762C93.9578 176.84 94.0162 177.097 94.3732 177.011C95.2364 176.806 96.0606 176.579 97.0385 176.812C98.6956 177.21 100.4 177.175 102.133 176.905C103.866 176.635 105.67 176.851 107.423 176.656C108.002 176.592 108.587 177.091 109.123 176.609C109.147 176.471 109.164 176.302 109.342 176.302C109.517 176.302 109.534 176.469 109.56 176.605C109.735 176.564 109.917 176.466 110.077 176.492C110.769 176.618 111.747 176.365 112.541 176.44C112.989 176.484 113.98 175.686 114.108 177.061C114.91 176.097 115.977 176.618 116.9 176.451C117.556 176.332 118.315 176.715 118.966 176.185C119.107 176.071 119.397 175.974 119.386 176.179C119.332 177.277 120.024 176.52 120.371 176.605C120.885 175.509 121.026 175.473 121.935 176.183C122.013 176.244 122.125 176.289 122.22 176.289C122.56 176.287 122.9 176.281 123.237 176.272C123.451 176.023 123.687 175.792 123.949 175.587C125.424 174.431 127.027 173.429 128.676 172.536C129.232 172.234 129.792 171.942 130.346 171.638C130.649 171.471 130.952 171.3 131.25 171.123C131.393 171.022 131.553 170.905 131.622 170.849C131.806 170.7 131.979 170.542 132.152 170.382C132.278 170.203 132.401 170.021 132.522 169.84C132.527 169.829 132.531 169.821 132.535 169.808C132.654 169.501 132.749 169.192 132.847 168.879C132.99 168.412 133.115 167.941 133.225 167.466C133.502 166.053 133.79 164.763 134.66 163.49C135.099 162.848 135.616 162.304 136.196 161.855C135.895 161.798 135.592 161.742 135.291 161.697C134.915 161.641 134.746 161.36 134.703 161.016C134.66 160.666 134.919 160.545 135.194 160.405C137.985 158.977 140.544 157.171 143.045 155.315C145.719 153.331 148.235 151.138 150.697 148.883C153.291 146.504 155.673 143.92 157.875 141.209C160.698 137.737 163.231 134.025 165.304 130.036C166.258 128.2 167.405 126.448 167.945 124.415L167.904 124.356L167.956 124.309ZM117.606 167.641C116.461 168.014 115.341 167.846 114.527 166.796C113.285 165.72 113.281 163.743 114.246 162.535C115.204 161.338 116.896 160.919 118.192 161.604C118.298 161.66 118.363 161.794 118.445 161.896C118.517 161.906 118.586 161.917 118.657 161.928C119.886 162.598 120.072 163.723 119.921 164.953C119.75 166.346 118.865 167.23 117.606 167.641ZM119.869 176.052C119.873 175.991 119.871 175.931 119.886 175.874C119.888 175.861 119.97 175.848 119.977 175.859C120.007 175.909 120.024 175.969 120.046 176.026C119.985 176.034 119.927 176.043 119.869 176.052ZM133.602 152.638C133.089 152.651 132.894 152.398 132.912 151.912C132.929 151.391 133.167 151.11 133.708 151.125C134.195 151.141 134.417 151.406 134.426 151.877C134.42 152.422 134.112 152.629 133.602 152.638ZM150.617 141.014C150.009 143.548 146.476 146.24 143.685 146.379C142.688 146.428 141.671 146.552 140.739 146.02C139.428 145.826 138.426 145.067 137.459 144.235C134.363 141.645 133.409 137.209 135.22 133.83C137.093 130.337 141.36 128.485 145.024 129.578C149.914 130.676 152.715 136.406 150.617 141.014Z" fill="#221531"/>
</g>
</svg>
