<svg width="643" height="728" viewBox="0 0 643 728" fill="none" xmlns="http://www.w3.org/2000/svg">
<g clip-path="url(#clip0_73_253)">
<path d="M651.64 603.9C650.34 604.05 649.73 605.14 648.93 605.94C643.61 611.24 637.27 613.87 629.7 613.86C598.12 613.8 566.55 613.83 534.97 613.83C538.79 610.09 543.89 608.31 548.14 605.22C566.18 592.12 586.97 582.11 597.74 560.88C607.47 560.93 617.22 561.33 626.94 560.95C637.15 560.56 645.23 564.22 651.65 571.96C651.64 582.6 651.64 593.25 651.64 603.9Z" fill="#42BA80"/>
<path d="M651.64 488.1C651.64 506.07 651.64 524.04 651.64 542.01C649.66 541.91 647.68 541.72 645.7 541.71C630.43 541.63 615.17 541.59 599.9 541.54C599.92 531.74 599.02 522.02 597.88 512.29C596.94 504.24 594.34 496.41 594.77 488.2C613.4 488.16 632.04 488.13 650.67 488.09L651.15 488.2L651.64 488.1Z" fill="#72DBA4"/>
<path d="M581.71 436.04C605.02 436.09 628.33 436.14 651.64 436.19C651.64 448.83 651.64 461.48 651.64 474.12C631.68 474.08 611.72 474.04 591.76 474C587.56 461.58 584.7 448.79 581.71 436.04Z" fill="#72DBA4"/>
<path d="M532.87 701.76C533.86 705.07 534.72 708.44 535.89 711.69C537.28 715.54 536.36 716.85 532.06 716.78C516.97 716.56 501.88 716.66 486.79 716.75C485.05 716.76 482.58 715.63 481.95 718.7C474.3 718.7 466.64 718.7 458.99 718.7C457.53 717.05 455.58 717.73 453.85 717.73C434.99 717.68 416.12 717.72 397.26 717.67C395.52 717.67 393.58 718.34 392.11 716.72C392.01 712.08 392.24 707.41 391.71 702.83C391.29 699.19 392.74 698.63 395.82 698.71C409.39 699.07 422.97 699.3 436.54 699.57C439.89 700.32 443.25 700.13 446.62 699.71C458.23 700 469.85 700.28 481.46 700.57C484.77 701.3 488.09 701.21 491.41 700.64C505.24 701.01 519.05 701.38 532.87 701.76Z" fill="#E7E8F4"/>
<path d="M140.58 8.93005C140.57 11.4201 143.88 15.0101 138.55 15.7501C134.66 16.2801 134.06 14.7701 135.59 8.93005C137.25 8.93005 138.91 8.93005 140.58 8.93005Z" fill="#72DBA4"/>
<path d="M361.17 8.93005C362.7 14.7601 362.1 16.2801 358.21 15.7401C352.88 15.0101 356.18 11.4101 356.18 8.93005C357.85 8.93005 359.51 8.93005 361.17 8.93005Z" fill="#72DBA4"/>
<path d="M591.77 474.01C591.46 479.02 592.92 483.65 594.78 488.2C594.35 496.42 596.95 504.25 597.89 512.29C599.03 522.02 599.92 531.74 599.91 541.54C600.43 548.13 598 554.38 597.74 560.88C586.97 582.11 566.18 592.12 548.14 605.22C543.89 608.31 538.79 610.09 534.97 613.83C528.63 615.76 523.18 619.88 516.55 621.21C514.57 621.61 512.64 621.82 510.66 621.93C509.52 620.57 507.95 620.84 506.49 620.89C478.29 621.67 450.46 618.11 422.64 614.07C419.34 613.59 418.16 612.2 417.58 609.23C416.13 601.9 414.5 594.6 412.86 587.3C410.87 578.44 410.84 578.44 419.64 578.73C420.3 578.75 420.97 578.84 421.63 578.81C423.13 578.75 424.1 577.89 424.65 576.58C425.25 575.14 424.61 573.96 423.53 573.05C422.52 572.2 421.4 571.47 420.3 570.72C392.63 552.01 364.95 533.33 337.32 514.56C333.33 511.85 329.02 510.43 324.29 510.11C318.66 509.73 313.02 509.42 307.38 509.11C268.9 506.99 230.41 504.92 191.93 502.69C187.52 502.43 181.52 504.06 179.11 501.08C176.55 497.91 178.61 492.15 178.77 487.53C179.11 478.07 180.88 468.49 179.85 459.2C177.1 434.28 173.19 409.48 169.7 384.64C169.53 383.44 169.99 381.26 168.29 381.42C165.99 381.64 167.23 383.78 167.4 385.05C169.24 398.72 170.69 412.46 173.17 426.02C177.51 449.74 178.31 473.51 176 497.45C175.77 499.81 176.01 502.02 172.32 501.74C160.23 500.81 148.13 500.13 136.02 499.43C130.88 499.13 125.72 499 120.57 498.83C118.84 498.77 117.14 498.93 116.62 501.02C116.15 502.91 117.05 504.19 118.64 505.13C119.78 505.81 120.88 506.57 121.99 507.29C138.47 517.91 154.95 528.53 171.43 539.16C165.79 542.43 160.28 545.96 153.78 547.36C153.87 545.56 157.25 543.76 154.93 542.43C152.91 541.28 152.53 544.56 151.74 545.96C139.27 568.18 135.08 592.22 136.05 617.42C136.69 633.95 140.15 649.95 144.55 665.81C132.61 663.73 125.13 655.33 117.6 646.93C115.67 644.78 114.64 641.85 112.45 639.94C111.41 639.03 110.6 637.85 110.41 636.48C110.31 635.71 110.02 635.03 109.64 634.39C106.78 629.57 103.96 624.73 101.63 619.63C99.31 614.54 96.9 609.52 93.87 604.9C86.64 593.87 85.18 581.67 84.85 569.31C84.54 557.7 83.79 546.12 83.55 534.51C83.58 531.68 83.61 528.85 83.65 526.02C83.65 516.55 83.16 507.05 83.77 497.62C85.1 476.85 85.25 456.03 87.4 435.29C88.45 425.12 89.36 414.9 90.86 404.82C92.49 393.88 96.42 383.43 100.64 373.15C101.42 371.24 102.46 369.39 103.1 367.42C103.76 365.37 104.77 363.47 105.88 361.63C106.59 360.45 106.79 358.93 107.45 357.72C112.16 348.28 116.87 338.83 121.59 329.4C121.61 329.35 121.64 329.3 121.66 329.25C122.77 326.99 124.14 324.88 125.61 322.84C127.17 320.66 128.01 317.97 129.43 315.7C135.61 305.8 140.85 295.29 148.32 286.21C151.9 299.54 154.76 313.02 157.37 326.56C158.83 334.13 160.26 341.7 161.85 349.24C162.04 350.12 162.11 352 163.8 351.56C165.34 351.16 164.75 349.76 164.5 348.64C163.17 342.75 161.7 336.89 160.58 330.96C157.54 314.77 154.14 298.67 150.13 282.69C159.36 270.91 172.22 264.42 185.56 258.8C204.82 250.68 225.35 246.38 245.02 239.5C244.34 241.71 243.72 243.95 242.97 246.14C234.44 271.12 225.94 296.11 217.25 321.04C216.22 323.99 216.92 325.12 219.56 326.27C228.52 330.2 237.32 334.52 246.34 338.3C249.78 339.74 250.97 341.81 251.33 345.34C253.33 365.43 256.06 385.44 257.39 405.61C258.55 423.25 260.58 440.83 262.07 458.46C262.22 460.26 262.81 461.76 263.42 463.35C263.47 463.48 263.35 463.67 263.31 463.83C263.29 463.8 263.26 463.78 263.24 463.75C261.56 423.18 257.76 382.77 253.45 341.6C262.22 345.66 270.46 349.47 278.71 353.29C280.25 362.11 282.16 370.88 283.25 379.75C286.22 403.83 286.8 428.06 287.16 452.28C287.21 455.32 287.94 457.1 290.51 457.17C293.8 457.59 299.06 458.27 302.36 458.69C306.44 459.86 310.48 461.19 314.6 462.19C322.76 464.17 328.95 468.71 333.51 475.75C338.56 483.55 344.12 491.05 348.86 499.03C351.33 503.19 354.63 505.02 359 506.03C361.91 506.7 363.14 506.11 362.84 502.69C362.46 498.36 362.19 494.03 362.26 489.69C362.8 456.16 359.69 422.59 363.11 389.1C364.36 376.9 365.37 364.64 368.14 352.64C377.07 350.28 384.76 344.75 394.04 342.02C387.52 398.82 381.79 455.16 380.27 512.34C383.29 511.25 382.8 509.55 382.84 508.19C384.28 453.46 389.99 399.08 396.13 344.73C396.48 341.61 397.5 339.69 400.57 338.38C409.73 334.47 418.7 330.1 427.83 326.12C430.47 324.97 431.2 323.85 430.26 320.89C425.59 306.18 421.1 291.41 416.74 276.6C412.66 262.74 407.75 249.12 404.63 234.98C412.21 237.47 419.76 240.04 427.37 242.42C445.58 248.12 463.52 254.65 481.99 259.53C482.77 260.58 484 260.43 485.07 260.71C483.21 263.64 481.14 266.46 479.54 269.52C468.56 290.49 469.14 312.58 473.45 334.99C473.64 335.97 473.54 337.82 475.3 337.17C476.72 336.65 475.9 335.11 475.7 334.06C473.7 323.76 472.41 313.4 473.15 302.88C474.22 287.87 477.54 273.65 487.85 261.96C500.52 265.78 510.78 273.43 520.38 282.21C526.3 287.63 530.73 294.15 534.87 300.91C538.54 310.45 542.38 319.93 545.86 329.53C553.11 349.55 560.48 369.52 566.88 389.84C571.74 405.27 576.76 420.65 581.7 436.05C584.7 448.79 587.56 461.58 591.77 474.01ZM418.8 395.29C415.65 395.36 412.51 395.36 409.36 395.52C407.54 395.61 404.92 394.84 404.99 397.96C405.05 400.7 406.34 402.68 409.54 402.72C412.68 402.76 415.83 402.94 418.97 403.06C419.09 406.52 419.23 409.97 419.31 413.43C419.35 415.07 419.77 416.57 421.62 416.62C423.58 416.67 423.86 415.06 423.88 413.47C423.92 410.01 423.97 406.55 424.02 403.09C435.93 402.61 447.84 402.25 459.73 401.61C464.69 401.35 464.82 400.44 462.35 396.08C461.09 393.85 459.37 394.35 457.68 394.38C447.75 394.57 437.83 394.84 427.9 395.08C427.85 391.11 427.87 387.15 427.74 383.18C427.65 380.33 426.27 378.31 423.2 378.45C420.25 378.58 418.85 380.45 418.86 383.41C418.89 387.37 418.83 391.33 418.8 395.29ZM226.52 376.07C226.19 373.17 224.91 371.73 221.68 372.12C218.94 372.45 216.13 372.26 213.35 372.15C206.58 371.88 206.58 371.84 205.44 378.57C202.31 378.98 199.19 379.62 196.05 379.74C192.3 379.88 191.43 381.64 191.55 385.13C192.23 405.22 192.74 425.32 193.2 445.42C193.26 448 194.14 448.97 196.7 448.93C201.19 448.85 205.68 449.11 210.16 449.02C220.32 448.82 230.41 447.92 240.25 445.2C243.29 444.36 246.2 443.56 246.08 439.14C245.6 421.04 245.63 402.91 243.3 384.91C242.01 374.96 241.34 374.52 231.47 375.51C229.82 375.67 228.17 375.88 226.52 376.07ZM399.23 541.6C401.02 538.69 399.98 536.64 399.43 534.66C396.53 524.27 393.58 513.89 390.6 503.52C389.96 501.31 389.16 499.58 392.76 499.05C422.68 494.69 452.54 489.79 482.79 488.29C491.93 487.84 500.93 487.64 509.14 493.35C519.46 500.54 528.31 509.23 536.94 518.24C537.78 519.11 538.65 521.12 539.98 520.01C541.71 518.55 539.54 517.41 538.7 516.49C532.32 509.48 525.74 502.6 518.11 496.97C513.97 493.91 515.11 492 518.25 489.5C524.5 484.52 531.8 482.68 539.56 482.01C540.86 481.9 542.63 482.71 543.23 480.59C534.98 478.12 522.25 482 514.94 489.09C513.92 490.08 513.37 491.8 511.56 491.74C509.21 491.66 501.66 485.85 501.06 483.64C492.58 452.04 484 420.46 480.83 387.74C480.7 386.39 481.14 384.63 479.1 383.71C477.64 386.97 478.67 390.23 479.03 393.38C482.3 421.69 489.3 449.21 496.73 476.64C499.16 485.63 499.24 485.39 490.03 485.64C456.37 486.55 423.23 492.02 390.04 497.14C386.85 497.63 386.78 499.15 387.5 501.61C389.19 507.34 390.73 513.11 392.42 518.84C394.57 526.21 396.82 533.57 399.23 541.6ZM260.57 470.69C261.14 473.78 263.43 472.83 265.02 473.25C273.96 475.63 283.08 477.3 292.31 476.85C303.87 476.28 312.73 480.09 319.81 487.85C320.81 488.95 321.94 489.95 323.02 490.97C323.52 491.44 324.15 491.75 324.79 491.31C325.46 490.85 325.41 490.05 324.94 489.57C320.07 484.61 315.51 478.95 308.63 476.89C302.87 475.17 296.78 474.41 290.78 473.6C280.83 472.26 270.86 471.05 260.57 470.69ZM296.71 495.04C296.17 494.61 295.83 494.09 295.43 494.05C283.27 492.59 271.1 491.18 258.94 489.78C257.95 489.67 256.68 489.69 256.86 491.07C257.07 492.6 258.61 492.3 259.69 492.42C270.87 493.67 282.06 494.91 293.25 496.1C294.3 496.21 295.56 496.72 296.71 495.04Z" fill="#E7E8F4"/>
<path d="M481.99 259.51C463.53 254.63 445.58 248.1 427.37 242.4C419.76 240.02 412.21 237.44 404.63 234.96C403.85 233.74 402.74 233.32 401.34 233.64C389.27 229.42 377.17 225.31 364.14 225.53C357.39 217.01 355.78 206.64 353.67 196.44C358.86 187.62 365.34 179.58 369.24 169.99C369.9 168.36 371.77 168.73 373.2 168.47C385.52 166.2 393.63 156.73 394.06 144.17C394.34 135.88 389.79 129.72 381.69 127.95C377.99 127.14 374.15 126.96 370.37 126.5C368.44 122.71 365.7 127.08 363.52 125.82C360.6 125.26 357.64 124.84 354.76 124.11C344.49 121.48 337 115.78 333.12 105.47C330.97 99.76 328.09 94.26 325.04 88.95C321.16 82.19 315.34 77.74 307.48 76.22C305.16 75.77 303.6 75.99 302.14 78.33C292.39 93.98 278.17 103.27 260.2 106.77C257.11 107.37 256.17 108.71 255.93 111.6C255.38 118.23 255.13 124.85 255.36 131.49C255.08 131.89 254.57 132.29 254.56 132.7C254.43 140.93 254.38 149.16 254.27 157.4C254.24 159.56 255.85 159.56 257.28 159.85C257.45 161.5 257.55 163.16 257.81 164.79C260.64 182.02 266.62 197.77 279.25 210.4C277.92 216.35 276.58 222.3 275.25 228.25C266.48 231.84 257.62 235.17 248.54 237.89C245.88 235.1 246.03 238.54 245.05 239.47C225.37 246.35 204.85 250.65 185.59 258.77C172.25 264.39 159.4 270.88 150.16 282.66C149.73 282.64 149.3 282.62 148.87 282.6C147.88 275.74 148.49 268.87 148.67 261.99C149.79 258.83 150.91 255.67 152.02 252.51C157.96 239.67 167.63 229.76 177.58 220.07C187.1 211.82 196.23 203.18 204.08 193.29C208.18 187.24 212.17 181.14 213.64 173.79C217.63 162.89 218.43 151.45 219.27 140.03C220.74 120.15 220.55 100.14 224.2 80.44C225.17 75.2 226.56 70.05 228.54 65.1C235.62 47.42 250.08 40.16 267.8 38.01C276.71 36.93 285.73 37.03 294.6 38.73C297.67 39.32 300.09 38.26 302.62 36.92C314.93 30.38 327.82 25.72 341.92 25.08C357.61 24.36 371.3 29.38 383.32 39.38C385.92 41.54 387.69 44.71 391.6 45.44C393.66 45.82 392.66 48.85 393.93 50.49C408.06 68.82 415.99 89.75 419.46 112.49C419.53 112.97 419.82 113.41 420.01 113.87C420.14 116.15 420.28 118.44 420.41 120.72C420.22 129.98 419.66 139.32 421.98 148.37C424.25 157.21 424.81 166.45 428.98 174.87C433.11 183.2 437.36 191.42 442.85 198.92C448.33 206.41 454.2 213.58 461.06 219.88C465.08 224.01 469.4 227.91 473.07 232.34C479.58 240.15 484.29 248.73 481.99 259.51Z" fill="#028791"/>
<path d="M171.46 539.15C154.98 528.53 138.5 517.91 122.02 507.28C120.9 506.56 119.81 505.8 118.67 505.12C117.08 504.18 116.18 502.9 116.65 501.01C117.17 498.93 118.87 498.77 120.6 498.82C125.75 499 130.9 499.12 136.05 499.42C148.15 500.12 160.26 500.81 172.35 501.73C176.04 502.01 175.8 499.8 176.03 497.44C178.34 473.5 177.54 449.73 173.2 426.01C170.72 412.46 169.27 398.71 167.43 385.04C167.26 383.77 166.02 381.62 168.32 381.41C170.02 381.25 169.56 383.43 169.73 384.63C173.22 409.47 177.12 434.27 179.88 459.19C180.91 468.48 179.14 478.07 178.8 487.52C178.64 492.14 176.58 497.91 179.14 501.07C181.55 504.05 187.55 502.43 191.96 502.68C230.44 504.91 268.92 506.97 307.41 509.1C313.05 509.41 318.69 509.72 324.32 510.1C329.05 510.42 333.36 511.84 337.35 514.55C364.98 533.31 392.67 551.99 420.33 570.71C421.43 571.45 422.55 572.19 423.56 573.04C424.64 573.95 425.27 575.13 424.68 576.57C424.14 577.88 423.16 578.74 421.66 578.8C421 578.82 420.33 578.74 419.67 578.72C410.87 578.43 410.9 578.42 412.89 587.29C414.53 594.59 416.16 601.88 417.61 609.22C418.2 612.19 419.38 613.58 422.67 614.06C450.48 618.09 478.32 621.65 506.52 620.88C507.98 620.84 509.56 620.57 510.69 621.92V622.3C500.98 624.43 491.24 623.15 481.5 622.61C480.82 621.78 480.14 621.81 479.45 622.6C459.67 621.74 440.1 619.04 420.53 616.19C417.2 615.71 416.09 614.16 415.49 611.28C413.49 601.68 411.23 592.14 409.36 582.51C408.74 579.31 407.91 577.58 404.13 577.66C399.17 577.77 394.15 577.36 389.23 576.65C385.32 576.09 384.53 577.26 384.76 581.05C387.02 618.02 389.15 654.99 391.16 691.97C391.34 695.31 392.17 696.44 395.7 696.49C412.31 696.73 428.91 697.28 445.51 697.72C442.95 700.37 439.32 697.75 436.59 699.54C423.01 699.27 409.43 699.04 395.86 698.68C392.79 698.6 391.34 699.16 391.75 702.8C392.28 707.39 392.05 712.06 392.15 716.69C391.49 716.67 390.84 716.64 390.18 716.62C389.9 712.02 389.24 707.41 389.44 702.84C389.62 698.79 387.87 698.28 384.5 698.42C378.61 698.66 372.71 698.5 366.82 698.5C365.46 697.48 364.91 696.46 366.83 695.45C372.46 695.67 378.15 695.45 383.69 696.24C388.84 696.98 389.24 694.94 388.97 690.64C386.91 657.67 384.96 624.69 383.18 591.7C382.28 575.02 382.46 575.01 365.37 575.09C357.93 574.59 350.49 574.09 343.05 573.58C322.89 572.19 302.78 570.2 282.56 569.72C278.87 568.49 274.95 569.4 271.26 568.53C266.78 567.47 265.65 569.24 265.41 573.52C264.51 590.09 263.24 606.63 262.11 623.19C261.67 623.08 261.22 622.98 260.78 622.87C259.38 619.32 260.38 615.69 260.59 612.12C261.37 598.75 262.34 585.39 263.24 572.03C263.38 569.87 263.93 567.42 260.32 567.98C260 565.58 262.17 565.55 263.46 564.78C268.6 561.74 274 559.09 278.53 555.1C280.5 553.36 281.35 551.18 279.38 549.01C277.54 546.99 275.53 546.97 273.41 549.11C270.21 552.34 266.19 554.38 261.99 556.04C239.23 565.02 215.26 568.71 191.26 572.25C190.06 572.43 188.23 573.25 188.1 571.25C188.01 569.82 189.8 570.07 190.9 569.91C208.32 567.32 225.69 564.41 242.7 559.77C252.63 557.06 262.65 554.45 271.04 547.98C272.4 546.93 274.43 546.21 273.84 543.79C273.24 541.35 271.4 540.51 269.2 539.86C264.01 538.33 258.95 539.5 253.93 540.51C234.71 544.39 216 550.24 197.21 555.73C195.53 556.22 193.07 558.04 191.89 555.55C190.98 553.64 193.02 552 194.36 550.52C197.66 546.88 201.82 544.48 206.14 542.3C210.21 540.24 213.82 537.6 215.85 533.36C217.05 530.87 217.49 528.17 215.69 525.8C213.96 523.52 211.37 523.57 208.84 524.1C204.58 524.98 200.61 526.67 196.63 528.37C188.2 531.97 179.83 535.56 171.46 539.15Z" fill="#1A273D"/>
<path d="M366.79 695.47C364.87 696.48 365.42 697.5 366.78 698.52C366.73 701.63 367.51 704.78 366.19 707.81C338.94 707.78 311.69 707.76 284.44 707.7C282.46 707.7 280.48 707.45 278.5 707.31C279.44 704.42 278.8 701.43 279.08 698.49C280.26 697.45 280.63 696.44 278.95 695.52C279.3 680.77 279.6 666.02 280.03 651.27C280.82 624.09 281.7 596.92 282.54 569.74C302.76 570.21 322.87 572.21 343.03 573.6C350.47 574.11 357.91 574.61 365.35 575.11C365.82 615.24 366.31 655.36 366.79 695.47Z" fill="#01BE91"/>
<path d="M260.28 568C263.9 567.45 263.35 569.9 263.2 572.05C262.3 585.41 261.34 598.77 260.55 612.14C260.34 615.7 259.33 619.33 260.73 622.88C258.74 625.19 259.48 627.9 259.63 630.52C259.31 636.44 258.99 642.36 258.67 648.28C257.78 649.91 258.11 651.62 258.38 653.32C258.11 657.88 257.83 662.44 257.56 667C256.87 668.42 257.11 669.87 257.38 671.33C256.98 678.29 256.37 685.25 256.26 692.22C256.21 695.51 255.11 696.45 251.92 696.49C237.46 696.68 223.01 697.11 208.56 697.43C190.78 697.83 173.01 698.2 155.23 698.59C153.34 698.38 151.45 698.17 149.56 697.96C149.66 695.39 149.76 692.83 149.85 690.26C151.04 690.8 152.24 691.02 152.41 689.26C153.12 682.06 156.44 675.19 155.14 667.74C154.98 666.85 154.61 665.82 155.81 665.27C155.06 666.11 154.31 666.96 153.56 667.8C151.54 667.46 149.51 667.13 147.49 666.79C146.18 662 144.87 657.21 143.56 652.42C143.02 650.43 143.2 648.87 144.69 647.05C154.23 635.36 156.62 621.46 156.62 606.89C159.38 605.78 162.12 604.55 165.23 605.02C164.23 610.58 163.28 616.16 162.23 621.71C160.03 633.34 157.74 644.96 155.59 656.6C155.39 657.67 154.51 659.64 156.57 659.81C158.47 659.97 157.43 658.21 157.64 657.22C159.3 649.39 160.17 641.37 161.99 633.64C164.31 623.79 166.26 613.93 167.57 603.91C175.41 601.81 183.37 600.6 191.47 599.84C205.32 598.54 217.85 593.68 228.7 584.8C229.82 583.88 230.64 582.99 230.11 581.45C232.3 579.62 237 581.86 237.31 576.99C241.92 576.72 245.34 573.59 249.39 571.95C252.98 570.49 256.07 567.68 260.28 568Z" fill="#E7E8F4"/>
<path d="M498.17 220.11C514.73 222.04 526.84 230.52 535.2 244.74C538.11 249.69 539.82 255.13 540.2 260.71C541.13 274.41 542.45 288.28 534.87 300.9C530.73 294.14 526.3 287.62 520.38 282.2C510.78 273.41 500.52 265.77 487.85 261.95C487.46 260.34 486.37 260.28 485.07 260.69C484 260.41 482.76 260.55 481.99 259.51C484.29 248.73 479.58 240.15 473.09 232.34C469.41 227.92 465.1 224.02 461.08 219.88" fill="#42BA80"/>
<path d="M213.66 173.8C212.19 181.14 208.2 187.25 204.1 193.3C202.27 192.14 200.23 192.58 198.27 192.58C169.87 192.55 141.47 192.58 113.07 192.55C105.26 192.54 102.03 189.08 102.6 181.54C102.95 176.86 105.84 173.63 110.55 173.63C144.91 173.61 179.29 173.73 213.66 173.8Z" fill="#72DBA4"/>
<path d="M254.71 715.99C253.69 718.16 251.68 717.68 249.93 717.68C216.61 717.7 183.29 717.67 149.96 717.74C146.81 717.75 145.42 717.3 146.44 713.63C147.53 709.69 147.89 705.55 148.57 701.49C153.05 701.17 157.53 700.86 162.01 700.54C178.77 700.19 195.53 699.83 212.3 699.49C225.41 699.23 238.53 699.01 251.64 698.79C253.63 698.76 255.9 698.46 255.58 701.63C255.1 706.42 255.79 711.26 254.71 715.99Z" fill="#E7E8F4"/>
<path d="M106.58 630.27C108.19 632.87 111.32 634.8 110.27 638.58C80.9 637.69 58.03 620.01 51.51 593.15C45.29 567.56 56.47 540.98 79.08 527.64C80.49 526.81 81.87 525.78 83.67 526C83.64 528.83 83.61 531.66 83.57 534.49C63.92 545.55 54.03 568.3 59.12 590.74C64.14 612.84 83.53 628.99 106.58 630.27Z" fill="#42BA80"/>
<path d="M156.63 606.87C156.63 621.44 154.24 635.35 144.7 647.03C143.21 648.86 143.02 650.42 143.57 652.4C144.88 657.19 146.19 661.98 147.5 666.77C146.15 667.54 145.42 666.5 144.57 665.78C140.17 649.93 136.71 633.92 136.07 617.39C135.1 592.19 139.29 568.14 151.76 545.93C152.55 544.53 152.93 541.24 154.95 542.4C157.27 543.73 153.89 545.53 153.8 547.33C142.3 567.81 137.87 589.89 138.58 613.64C144.91 611.28 150.77 609.08 156.63 606.87Z" fill="#1A273D"/>
<path d="M254.71 715.99C255.78 711.26 255.1 706.42 255.58 701.65C255.9 698.48 253.63 698.77 251.64 698.81C238.53 699.03 225.41 699.26 212.3 699.51C195.54 699.84 178.78 700.21 162.02 700.55C160.07 698.84 156.88 701.35 155.23 698.57C173.01 698.19 190.78 697.81 208.56 697.41C223.01 697.09 237.47 696.66 251.92 696.47C255.12 696.43 256.21 695.5 256.26 692.2C256.37 685.23 256.98 678.27 257.38 671.31C258.8 671.8 258.18 673.55 259.21 674.27C258.96 680.52 258.82 686.77 258.4 693.01C258.22 695.68 259.14 696.67 261.69 696.37C267.42 695.71 273.22 696.62 278.92 695.5C280.6 696.42 280.23 697.43 279.05 698.48C273.26 698.48 267.46 698.65 261.68 698.42C258.66 698.3 258.08 699.64 258.02 702.19C257.9 707 257.56 711.8 257.31 716.6C256.34 716.9 255.48 716.63 254.71 715.99Z" fill="#1A273D"/>
<path d="M366.19 707.81C367.51 704.79 366.73 701.63 366.78 698.52C372.67 698.51 378.58 698.67 384.46 698.44C387.83 698.3 389.58 698.81 389.4 702.86C389.2 707.43 389.85 712.05 390.14 716.64C383.13 718.97 375.95 717.28 368.86 717.52C367.09 717.58 367.22 715.81 367.16 714.51C367.08 712.25 367.51 709.9 366.19 707.81Z" fill="#E7E8F4"/>
<path d="M257.33 716.62C257.58 711.82 257.92 707.01 258.04 702.21C258.1 699.65 258.69 698.31 261.7 698.44C267.48 698.68 273.28 698.51 279.07 698.5C278.79 701.43 279.43 704.43 278.49 707.32C277.94 717.7 277.93 717.82 267.39 717.64C264.05 717.57 260.49 718.83 257.33 716.62Z" fill="#E7E8F4"/>
<path d="M153.57 667.79C154.32 666.95 155.07 666.1 155.82 665.26C154.62 665.82 155 666.84 155.15 667.73C156.45 675.19 153.12 682.05 152.42 689.25C152.25 691.01 151.05 690.78 149.86 690.25C151.1 682.76 152.33 675.27 153.57 667.79Z" fill="#1A273D"/>
<path d="M155.24 698.58C156.89 701.35 160.07 698.85 162.03 700.56C157.54 700.88 153.06 701.19 148.58 701.51C147.86 701 146.59 701 146.67 699.74C146.8 697.88 148.62 698.58 149.57 697.96C151.46 698.16 153.35 698.37 155.24 698.58Z" fill="#028791"/>
<path d="M141.25 152.29C141.59 154.79 140.29 155.34 138.07 155.41C135.36 155.49 134.76 154.25 134.77 151.83C134.78 149.4 135.82 148.81 138.05 148.75C140.77 148.67 141.61 149.86 141.25 152.29Z" fill="#72DBA4"/>
<path d="M141.26 117.05C141.5 119.2 140.93 120.47 138.38 120.46C136.01 120.45 134.73 119.97 134.75 117.2C134.76 114.6 135.7 113.77 138.23 113.8C140.63 113.84 141.56 114.76 141.26 117.05Z" fill="#72DBA4"/>
<path d="M421.84 85.59C419.67 85.85 418.38 85.27 418.42 82.75C418.45 80.43 419 79.03 421.69 79.05C423.86 79.07 425.03 79.58 424.98 82.06C424.94 84.33 424.66 86.03 421.84 85.59Z" fill="#72DBA4"/>
<path d="M137.84 50.65C135.29 51.01 134.81 49.59 134.78 47.39C134.75 44.82 136.14 44.39 138.26 44.36C140.73 44.33 141.3 45.58 141.33 47.8C141.37 50.41 140 50.9 137.84 50.65Z" fill="#72DBA4"/>
<path d="M172.54 151.93C172.79 154.1 172.24 155.4 169.68 155.39C167.31 155.38 166.48 154.46 166.51 152.15C166.54 150.02 166.93 148.74 169.49 148.75C171.84 148.77 172.88 149.59 172.54 151.93Z" fill="#72DBA4"/>
<path d="M201.31 15.77C199.28 15.93 197.72 15.72 197.74 13.04C197.76 10.81 198.42 9.70004 200.83 9.78004C202.82 9.84004 204.37 9.95004 204.35 12.59C204.34 14.82 203.72 16.09 201.31 15.77Z" fill="#72DBA4"/>
<path d="M109.51 82.2101C109.85 84.6901 108.97 85.6601 106.57 85.6801C104.01 85.7001 103.7 84.3801 103.65 82.3001C103.6 80.0501 104.29 79.0401 106.7 79.0601C109.19 79.0701 109.9 80.2101 109.51 82.2101Z" fill="#72DBA4"/>
<path d="M172.54 82.5001C172.88 84.8501 171.8 85.6501 169.47 85.6701C166.9 85.6801 166.56 84.3401 166.51 82.2401C166.45 79.8801 167.37 79.0601 169.7 79.0401C172.26 79.0301 172.79 80.3501 172.54 82.5001Z" fill="#72DBA4"/>
<path d="M172.52 116.54C172.72 118.89 172.5 120.46 169.82 120.45C167.59 120.44 166.43 119.81 166.52 117.36C166.59 115.37 166.66 113.77 169.35 113.84C171.48 113.89 173.05 114.2 172.52 116.54Z" fill="#72DBA4"/>
<path d="M109.52 151.64C109.75 153.99 109.36 155.39 106.77 155.39C104.41 155.39 103.6 154.47 103.66 152.18C103.71 150.16 103.88 148.69 106.51 148.76C108.77 148.82 110 149.46 109.52 151.64Z" fill="#72DBA4"/>
<path d="M109.55 117.38C109.88 119.75 108.68 120.43 106.43 120.45C103.76 120.47 103.75 118.86 103.67 116.91C103.57 114.52 104.59 113.83 106.86 113.82C109.53 113.81 109.71 115.36 109.55 117.38Z" fill="#72DBA4"/>
<path d="M201.01 50.63C198.49 50.96 197.74 49.83 197.74 47.55C197.74 44.95 199.22 44.78 201.23 44.71C203.58 44.64 204.35 45.63 204.36 47.9C204.37 50.54 202.9 50.86 201.01 50.63Z" fill="#72DBA4"/>
<path d="M232.43 9.8701C234.86 9.5501 236.11 10.2201 236.03 12.7501C235.96 15.1401 234.83 15.8601 232.6 15.8301C230.6 15.8001 229.51 15.2601 229.53 13.0301C229.55 10.8301 230.09 9.4001 232.43 9.8701Z" fill="#72DBA4"/>
<path d="M421.75 9.85003C424.1 9.51003 425.01 10.52 424.98 12.92C424.95 15.09 424.12 15.84 422.01 15.83C419.87 15.83 418.52 15.37 418.43 12.87C418.35 10.41 419.44 9.54003 421.75 9.85003Z" fill="#72DBA4"/>
<path d="M421.73 44.8101C424.43 44.4301 424.98 45.7801 424.97 48.0001C424.96 50.3101 423.77 50.6801 421.84 50.7101C419.6 50.7401 418.48 49.9701 418.44 47.5901C418.4 45.0201 419.74 44.4601 421.73 44.8101Z" fill="#72DBA4"/>
<path d="M232.68 44.8C234.88 44.55 236.05 45.16 236.03 47.42C236.01 49.63 235.25 50.74 232.85 50.73C230.66 50.72 229.49 50.18 229.52 47.7C229.55 45.23 230.66 44.44 232.68 44.8Z" fill="#72DBA4"/>
<path d="M204.28 151.67C204.55 154.01 203.54 154.93 201.16 154.94C198.71 154.94 198.07 153.59 197.84 151.55C197.57 149.17 198.92 148.8 200.85 148.79C202.89 148.78 204.6 148.96 204.28 151.67Z" fill="#72DBA4"/>
<path d="M264.05 9.86C266.69 9.5 267.22 10.9 267.21 13.11C267.21 15.44 265.97 15.77 264.04 15.83C261.46 15.92 261 14.36 260.88 12.36C260.73 9.94 262.28 9.68 264.05 9.86Z" fill="#72DBA4"/>
<path d="M298.86 12.54C299.02 14.84 298.03 15.86 295.67 15.83C293.58 15.81 292.72 14.95 292.6 12.9C292.46 10.48 293.52 9.70002 295.83 9.77002C297.78 9.84002 299.09 10.27 298.86 12.54Z" fill="#72DBA4"/>
<path d="M204.26 116.8C204.54 119.66 202.95 119.98 200.85 119.97C198.24 119.96 197.99 118.18 197.84 116.3C197.63 113.74 199.46 113.95 201.16 113.86C203.48 113.73 204.7 114.55 204.26 116.8Z" fill="#72DBA4"/>
<path d="M327.06 15.7601C324.93 16.0301 324.19 15.0501 324.15 12.9601C324.1 10.6901 324.84 9.70011 327.23 9.78011C329.26 9.85011 330.17 10.5101 330.2 12.6501C330.22 14.9301 329.44 16.0701 327.06 15.7601Z" fill="#72DBA4"/>
<path d="M106.56 50.65C104.39 50.91 103.66 49.86 103.67 47.76C103.67 45.75 104.21 44.74 106.46 44.7C108.84 44.66 109.66 45.54 109.62 47.89C109.58 50.13 108.62 50.89 106.56 50.65Z" fill="#72DBA4"/>
<path d="M109.54 12.7C109.88 15.04 108.79 15.85 106.49 15.84C104.35 15.83 103.7 14.96 103.66 12.92C103.61 10.62 104.42 9.72002 106.77 9.78002C108.85 9.83002 109.81 10.57 109.54 12.7Z" fill="#72DBA4"/>
<path d="M169.82 9.85004C172.12 9.55004 172.53 10.85 172.6 12.8C172.69 15.28 171.52 15.85 169.31 15.83C167.09 15.81 166.56 14.78 166.51 12.79C166.44 10.31 167.61 9.56004 169.82 9.85004Z" fill="#72DBA4"/>
<path d="M203.81 82.7501C204.03 85.3101 202.43 85.6201 200.39 85.6401C198.07 85.6701 197.8 84.3301 197.76 82.4701C197.72 79.9701 199.08 79.4801 201.19 79.5301C203.44 79.5701 203.95 80.8401 203.81 82.7501Z" fill="#72DBA4"/>
<path d="M393.12 12.8501C393.43 15.7701 391.63 15.7801 389.68 15.8201C387.25 15.8701 387.25 14.3601 387.16 12.5801C387.03 9.88006 388.67 9.81006 390.65 9.81006C392.97 9.81006 393.38 11.1301 393.12 12.8501Z" fill="#72DBA4"/>
<path d="M137.58 79.5901C140.12 79.3001 140.9 80.4801 140.87 82.7401C140.85 84.8401 139.97 85.6501 137.91 85.6501C135.98 85.6501 134.77 85.2201 134.81 82.9501C134.84 80.9001 135.08 79.2401 137.58 79.5901Z" fill="#72DBA4"/>
<path d="M169.42 50.65C166.89 50.96 166.52 49.43 166.52 47.34C166.52 45.02 167.87 44.82 169.7 44.72C172.28 44.59 172.59 45.99 172.59 48.08C172.6 50.39 171.35 50.83 169.42 50.65Z" fill="#72DBA4"/>
<path d="M420.43 120.73C420.3 118.45 420.16 116.16 420.03 113.88C422.03 114.19 424.74 112.68 425.04 116.7C425.33 120.6 422.86 120.43 420.43 120.73Z" fill="#72DBA4"/>
<path d="M445.48 697.74C428.88 697.3 412.27 696.74 395.67 696.51C392.14 696.46 391.32 695.33 391.13 691.99C389.12 655.01 387 618.03 384.73 581.07C384.5 577.28 385.29 576.11 389.2 576.67C394.12 577.38 399.14 577.79 404.1 577.68C407.89 577.6 408.71 579.33 409.33 582.53C411.2 592.15 413.46 601.7 415.46 611.3C416.06 614.19 417.17 615.73 420.5 616.21C440.07 619.06 459.64 621.76 479.42 622.62C480.1 623.22 480.78 623.21 481.47 622.64C491.21 623.18 500.95 624.46 510.66 622.33C511.76 633.92 516.4 644.6 519.39 655.7C523.29 670.17 527.64 684.52 531.8 698.93C524.66 698.93 517.53 698.94 510.39 698.94C507.08 698.19 503.75 698.37 500.43 698.81C482.46 698.47 464.49 698.12 446.51 697.78C446.17 697.75 445.82 697.74 445.48 697.74Z" fill="#E7E8F4"/>
<path d="M510.39 698.91C517.53 698.91 524.66 698.9 531.8 698.9C532.94 699.56 533.55 700.42 532.87 701.76C519.05 701.38 505.23 701 491.42 700.63C488.11 699.4 484.79 699.65 481.46 700.56C469.85 700.27 458.23 699.99 446.62 699.7C446.58 699.05 446.54 698.4 446.5 697.75C464.47 698.09 482.44 698.44 500.41 698.78C503.72 700.15 507.05 699.78 510.39 698.91Z" fill="#1A273D"/>
<path d="M446.51 697.75C446.55 698.4 446.59 699.05 446.63 699.7C443.26 700.12 439.89 700.32 436.54 699.56C439.28 697.77 442.91 700.39 445.47 697.74C445.82 697.74 446.17 697.75 446.51 697.75Z" fill="#028791"/>
<path d="M481.47 700.56C484.8 699.65 488.12 699.4 491.43 700.63C488.1 701.2 484.78 701.29 481.47 700.56Z" fill="#028791"/>
<path d="M368.14 352.6C365.37 364.6 364.36 376.86 363.11 389.06C359.75 421.87 362.67 454.75 362.28 487.6C362.22 492.73 362.55 497.88 362.86 503.01C363.05 506.12 361.81 506.65 359 506C354.63 504.99 351.34 503.17 348.86 499C344.12 491.02 338.57 483.52 333.51 475.72C328.95 468.69 322.76 464.14 314.6 462.16C310.58 461.18 306.64 459.89 302.67 458.74C303.8 450 306.1 441.5 307.86 432.89C308.74 428.58 306.87 425.11 303.44 424.77C299.35 424.36 297.31 426.91 296.65 430.55C295.03 439.35 293.58 448.18 292.06 457C288.24 457.65 287.23 455.82 287.18 452.24C286.81 428.01 286.23 403.78 283.27 379.71C282.18 370.84 280.27 362.07 278.73 353.26C279.98 351.5 278.81 350.46 277.57 349.45C275.74 340.27 273.9 331.09 272.07 321.91C273.3 322.36 274.58 322.73 275.76 323.28C305.64 337.25 335.33 336.87 364.91 322.28C367.71 320.9 369.89 318.31 373.24 318.05C371.55 328.67 369.85 339.29 368.16 349.9C368.16 350.81 368.15 351.71 368.14 352.6Z" fill="#01BE91"/>
<path d="M156.63 606.87C150.77 609.07 144.91 611.28 138.58 613.65C137.87 589.9 142.29 567.82 153.8 547.34C160.3 545.94 165.82 542.41 171.45 539.14C179.82 535.55 188.2 531.96 196.57 528.38C200.54 526.68 204.52 524.98 208.78 524.11C211.32 523.59 213.9 523.54 215.63 525.81C217.43 528.18 216.98 530.88 215.79 533.37C213.75 537.61 210.15 540.25 206.08 542.31C201.76 544.5 197.61 546.89 194.3 550.53C192.96 552 190.93 553.65 191.83 555.56C193.01 558.05 195.47 556.23 197.15 555.74C215.95 550.25 234.65 544.4 253.87 540.52C258.88 539.51 263.95 538.34 269.14 539.87C271.34 540.52 273.18 541.36 273.78 543.8C274.38 546.22 272.35 546.94 270.98 547.99C262.6 554.45 252.57 557.07 242.64 559.78C225.63 564.42 208.26 567.33 190.84 569.92C189.74 570.08 187.95 569.84 188.04 571.26C188.17 573.26 190 572.44 191.2 572.26C215.2 568.72 239.18 565.03 261.93 556.05C266.13 554.39 270.15 552.35 273.35 549.12C275.47 546.98 277.48 547 279.32 549.02C281.29 551.18 280.45 553.37 278.47 555.11C273.94 559.1 268.55 561.75 263.4 564.79C262.1 565.56 259.93 565.59 260.26 567.99C256.04 567.68 252.96 570.48 249.38 571.93C245.34 573.57 241.92 576.7 237.3 576.97C218.13 581.48 198.91 585.62 179.01 585.68C183.34 588.11 187.81 587.46 192.21 587.29C205.06 586.79 217.49 583.52 230.1 581.43C230.63 582.97 229.81 583.86 228.69 584.78C217.84 593.67 205.31 598.53 191.46 599.82C183.37 600.58 175.4 601.79 167.56 603.89C166.78 604.26 166 604.63 165.22 605C162.14 604.53 159.4 605.76 156.63 606.87Z" fill="#C3C3C3"/>
<path d="M226.52 376.07C228.17 375.88 229.82 375.67 231.48 375.51C241.35 374.52 242.02 374.96 243.31 384.91C245.64 402.91 245.61 421.04 246.09 439.14C246.21 443.57 243.3 444.36 240.26 445.2C230.42 447.92 220.33 448.82 210.17 449.02C205.68 449.11 201.19 448.85 196.71 448.93C194.15 448.98 193.27 448 193.21 445.42C192.75 425.32 192.23 405.22 191.56 385.13C191.44 381.63 192.32 379.87 196.06 379.74C199.2 379.62 202.32 378.98 205.45 378.57C205.48 382.31 207.56 383.5 210.98 382.97C214.74 382.39 218.48 381.7 222.25 381.24C225.42 380.86 227.13 379.49 226.52 376.07ZM217.21 406.13C220.49 406.05 224.87 406.98 226.41 403.91C228.57 399.6 227.67 394.37 226.17 389.84C225.06 386.49 221.5 388.38 219.12 388.39C208.47 388.46 208.47 388.57 209.47 399.27C210.11 406.12 210.11 406.12 217.21 406.13ZM210.48 428.36C208.66 428.36 206.83 428.26 205.02 428.39C203.66 428.49 201.36 427.51 201.19 429.34C200.99 431.57 203.41 431.17 204.94 431.21C214.74 431.49 224.37 429.91 233.99 428.3C235.29 428.08 237.55 428.63 237.03 426.33C236.66 424.69 234.86 425.53 233.6 425.73C225.93 426.93 218.28 428.3 210.48 428.36ZM200.27 415.69C200.76 415.83 201.25 416.05 201.74 416.09C212.89 416.99 223.84 415.3 234.78 413.49C235.69 413.34 237.08 413.18 236.8 411.86C236.48 410.34 235.16 410.74 233.95 410.89C226.08 411.9 218.18 412.73 210.33 413.84C207.2 414.29 203.9 413.43 200.27 415.69ZM201.87 421.84C208.97 424.85 233.39 422.39 237.91 417.91C225.2 419 213.61 421.16 201.87 421.84ZM237.79 433.66C225.84 433.97 214.07 436.47 202.1 436.61C207.5 439.31 228.79 437.72 237.79 433.66Z" fill="#1A273D"/>
<path d="M399.23 541.6C396.82 533.57 394.57 526.21 392.4 518.82C390.72 513.09 389.17 507.32 387.48 501.59C386.76 499.13 386.83 497.61 390.02 497.12C423.2 492 456.35 486.53 490.01 485.62C499.21 485.37 499.14 485.62 496.71 476.62C489.28 449.19 482.29 421.67 479.01 393.36C478.65 390.22 477.61 386.95 479.08 383.69C481.12 384.62 480.68 386.37 480.81 387.72C483.98 420.44 492.57 452.02 501.04 483.62C501.63 485.83 509.19 491.65 511.54 491.72C513.35 491.78 513.9 490.06 514.92 489.07C522.23 481.99 534.96 478.1 543.21 480.57C542.61 482.68 540.85 481.87 539.54 481.99C531.79 482.66 524.48 484.5 518.23 489.48C515.09 491.99 513.95 493.89 518.09 496.95C525.72 502.58 532.3 509.46 538.68 516.47C539.52 517.39 541.69 518.53 539.96 519.99C538.64 521.1 537.76 519.1 536.92 518.22C528.29 509.22 519.44 500.52 509.12 493.33C500.91 487.61 491.92 487.81 482.77 488.27C452.51 489.77 422.66 494.67 392.74 499.03C389.13 499.56 389.94 501.29 390.58 503.5C393.56 513.87 396.51 524.25 399.41 534.64C399.98 536.65 401.02 538.69 399.23 541.6Z" fill="#1A273D"/>
<path d="M368.14 352.6C368.15 351.71 368.16 350.82 368.17 349.92C370.03 349.26 371.96 348.73 373.75 347.92C390.08 340.53 406.3 332.89 422.76 325.81C427.5 323.77 428.02 321.67 426.59 317.05C417.99 289.31 409.72 261.46 401.34 233.65C402.74 233.33 403.85 233.75 404.63 234.96C407.75 249.1 412.65 262.72 416.74 276.58C421.1 291.39 425.59 306.16 430.26 320.87C431.2 323.82 430.48 324.94 427.83 326.1C418.7 330.08 409.73 334.45 400.57 338.36C397.49 339.67 396.48 341.59 396.13 344.71C389.99 399.06 384.27 453.44 382.84 508.17C382.8 509.52 383.29 511.23 380.27 512.32C381.8 455.15 387.52 398.81 394.04 342C384.76 344.71 377.07 350.24 368.14 352.6Z" fill="#1A273D"/>
<path d="M277.58 349.46C278.82 350.47 279.99 351.5 278.74 353.27C270.49 349.45 262.25 345.63 253.48 341.58C257.79 382.76 261.59 423.16 263.27 463.73C263.29 463.76 263.32 463.78 263.34 463.81C263.38 463.65 263.5 463.46 263.45 463.33C262.84 461.75 262.26 460.25 262.1 458.44C260.61 440.82 258.58 423.23 257.42 405.59C256.1 385.42 253.36 365.41 251.36 345.32C251.01 341.79 249.82 339.72 246.37 338.28C237.35 334.5 228.56 330.18 219.59 326.25C216.95 325.09 216.26 323.97 217.28 321.02C225.97 296.09 234.46 271.1 243 246.12C243.75 243.93 244.37 241.69 245.05 239.48C246.03 238.55 245.88 235.12 248.54 237.9C240.01 262.71 231.46 287.5 222.99 312.33C221.78 315.89 218.47 320.05 220.05 322.89C221.57 325.62 226.4 326.6 229.88 328.13C245.83 335.14 261.34 343.12 277.58 349.46Z" fill="#1A273D"/>
<path d="M292.07 457.02C293.59 448.2 295.05 439.37 296.66 430.57C297.33 426.93 299.36 424.38 303.45 424.79C306.87 425.13 308.75 428.59 307.87 432.91C306.11 441.52 303.81 450.02 302.68 458.76C299.14 458.17 295.6 457.6 292.07 457.02Z" fill="#1A273D"/>
<path d="M427.92 395.08C437.84 394.84 447.77 394.57 457.7 394.38C459.39 394.35 461.11 393.85 462.37 396.08C464.84 400.45 464.71 401.35 459.75 401.61C447.85 402.24 435.94 402.61 424.04 403.09C424.29 399.91 421.42 395.22 427.92 395.08Z" fill="#01BE91"/>
<path d="M485.08 260.69C486.39 260.27 487.47 260.34 487.86 261.95C477.55 273.64 474.23 287.86 473.16 302.87C472.41 313.39 473.71 323.75 475.71 334.05C475.91 335.1 476.73 336.63 475.31 337.16C473.55 337.81 473.65 335.96 473.46 334.98C469.15 312.57 468.57 290.48 479.55 269.51C481.15 266.44 483.22 263.62 485.08 260.69Z" fill="#1A273D"/>
<path d="M427.92 395.08C421.42 395.22 424.29 399.92 424.03 403.09C423.98 406.55 423.94 410.01 423.89 413.47C423.87 415.06 423.59 416.67 421.63 416.62C419.78 416.57 419.36 415.08 419.32 413.43C419.24 409.97 419.09 406.52 418.98 403.06C418.92 400.47 418.86 397.88 418.81 395.3C418.84 391.34 418.9 387.38 418.9 383.42C418.9 380.46 420.29 378.59 423.24 378.46C426.31 378.32 427.68 380.34 427.78 383.19C427.89 387.14 427.87 391.11 427.92 395.08Z" fill="#1A273D"/>
<path d="M148.36 286.18C148.54 284.99 148.71 283.8 148.89 282.61C149.32 282.63 149.75 282.65 150.18 282.67C154.19 298.65 157.59 314.75 160.63 330.94C161.75 336.87 163.22 342.73 164.55 348.62C164.8 349.74 165.39 351.14 163.85 351.54C162.16 351.98 162.08 350.1 161.9 349.22C160.31 341.68 158.88 334.1 157.42 326.54C154.79 313 151.93 299.51 148.36 286.18Z" fill="#1A273D"/>
<path d="M226.52 376.07C227.13 379.49 225.42 380.86 222.23 381.25C218.46 381.71 214.72 382.4 210.96 382.98C207.53 383.51 205.46 382.32 205.43 378.58C206.57 371.85 206.57 371.89 213.34 372.16C216.12 372.27 218.93 372.46 221.67 372.13C224.91 371.73 226.19 373.17 226.52 376.07Z" fill="#01BE91"/>
<path d="M260.57 470.69C270.86 471.05 280.83 472.26 290.78 473.6C296.78 474.4 302.86 475.16 308.63 476.89C315.51 478.95 320.07 484.61 324.94 489.57C325.41 490.05 325.46 490.85 324.79 491.31C324.16 491.75 323.53 491.44 323.02 490.97C321.93 489.95 320.81 488.95 319.81 487.85C313.97 481.45 306.92 477.74 298.15 476.95C286.91 475.95 275.72 474.45 264.5 473.16C262.97 472.98 261.07 473.46 260.57 470.69Z" fill="#1A273D"/>
<path d="M296.71 495.04C295.56 496.73 294.3 496.21 293.25 496.1C282.06 494.91 270.87 493.67 259.69 492.42C258.61 492.3 257.07 492.6 256.86 491.07C256.67 489.69 257.94 489.66 258.94 489.78C271.11 491.18 283.27 492.6 295.43 494.05C295.83 494.09 296.17 494.6 296.71 495.04Z" fill="#1A273D"/>
<path d="M418.8 395.29C418.86 397.88 418.92 400.47 418.97 403.05C415.83 402.93 412.68 402.75 409.54 402.71C406.35 402.67 405.05 400.69 404.99 397.95C404.92 394.83 407.54 395.6 409.36 395.51C412.51 395.37 415.65 395.36 418.8 395.29Z" fill="#01BE91"/>
<path d="M373.25 318.07C369.9 318.33 367.72 320.92 364.92 322.3C335.34 336.89 305.65 337.27 275.77 323.3C274.58 322.75 273.31 322.38 272.08 321.93C269.5 310.02 266.91 298.12 264.34 286.21C262.29 276.71 260.34 267.18 258.15 257.71C257.69 255.7 257.96 255 259.91 254.08C270.79 248.98 274.35 239.38 275.26 228.26C276.59 222.31 277.93 216.36 279.26 210.41C279.74 210.53 280.29 210.54 280.69 210.79C301.36 223.79 321.21 220.82 340.67 207.9C345.56 204.66 348.52 199.32 353.68 196.45C355.79 206.64 357.39 217.02 364.15 225.54C364.38 227.82 365.76 229.43 367.19 231.07C371.85 236.41 378.3 238.75 384.55 241.3C386.48 242.08 387.09 242.49 386.66 244.69C383.84 259.07 381.03 273.46 378.58 287.91C376.86 297.98 374.18 307.87 373.25 318.07Z" fill="#C3C3C3"/>
<path d="M353.67 196.45C348.51 199.32 345.55 204.65 340.66 207.9C321.2 220.82 301.35 223.79 280.68 210.79C280.28 210.54 279.73 210.53 279.25 210.41C266.62 197.78 260.64 182.03 257.81 164.8C257.54 163.17 257.45 161.51 257.28 159.86C262.77 159.81 268.26 159.74 273.74 159.73C285.62 159.71 285.58 159.72 285.77 148.01C285.81 145.85 284.82 143.14 288.31 141.97C287.99 146.75 287.5 151.4 287.39 156.07C287.21 163.41 293.73 167.61 300.95 164.96C300.17 162.77 298.17 163.59 296.69 163.28C290.56 161.95 289.17 160.18 289.92 153.93C290.38 150.14 291.32 146.39 291.56 142.6C291.67 140.85 292.2 140.69 293.52 140.81C296.68 141.08 298.91 142.15 298.73 145.94C298.57 149.43 298.76 152.93 298.68 156.42C298.62 158.63 299.24 159.79 301.75 159.77C310.4 159.67 319.05 159.67 327.7 159.77C330.48 159.8 331.06 158.42 331 156.04C330.91 152.05 331.29 148.02 330.89 144.07C330.43 139.56 332.25 137.86 336.51 136.67C347.85 133.48 359.37 130.85 370.37 126.52C374.15 126.99 377.98 127.17 381.68 127.98C389.78 129.75 394.33 135.91 394.05 144.2C393.63 156.76 385.51 166.23 373.19 168.5C371.76 168.76 369.89 168.4 369.23 170.02C365.34 179.58 358.86 187.63 353.67 196.45ZM298.75 189.76C305.16 189.86 310.66 187.33 315.7 183.68C316.87 182.83 319.39 181.92 318.02 180.1C316.83 178.51 315.47 180.69 314.41 181.46C304.93 188.35 295.23 189.9 285.04 182.99C284.31 182.49 283.44 181.32 282.57 182.51C281.59 183.86 282.91 184.55 283.84 185.19C288.32 188.27 293.28 189.84 298.75 189.76ZM291.7 195.11C296.58 199.86 302.98 199.8 307.17 194.56C301.64 197.04 297.12 196.04 291.7 195.11Z" fill="#E7E8F4"/>
<path d="M373.25 318.07C374.18 307.87 376.86 297.98 378.57 287.92C381.02 273.47 383.83 259.08 386.65 244.7C387.08 242.5 386.47 242.09 384.54 241.31C378.28 238.76 371.84 236.42 367.18 231.08C365.74 229.43 364.36 227.83 364.14 225.55C377.18 225.32 389.27 229.44 401.34 233.66C409.72 261.47 417.99 289.32 426.59 317.06C428.02 321.69 427.5 323.79 422.76 325.82C406.3 332.9 390.08 340.55 373.75 347.93C371.95 348.74 370.03 349.27 368.17 349.93C369.86 339.3 371.56 328.68 373.25 318.07Z" fill="#E7E8F4"/>
<path d="M275.26 228.26C274.35 239.38 270.79 248.97 259.91 254.08C257.96 254.99 257.69 255.7 258.15 257.71C260.34 267.18 262.29 276.7 264.34 286.21C266.91 298.12 269.5 310.03 272.08 321.93C273.91 331.11 275.74 340.29 277.58 349.47C261.34 343.12 245.83 335.15 229.89 328.14C226.42 326.61 221.58 325.63 220.06 322.9C218.48 320.06 221.78 315.9 223 312.34C231.47 287.51 240.02 262.72 248.55 237.91C257.63 235.19 266.49 231.85 275.26 228.26Z" fill="#E7E8F4"/>
<path d="M255.35 131.5C255.12 124.86 255.37 118.24 255.92 111.61C256.16 108.72 257.11 107.38 260.19 106.78C278.16 103.27 292.39 93.99 302.13 78.34C303.59 76 305.15 75.7801 307.47 76.2301C315.32 77.7501 321.14 82.1901 325.03 88.9601C328.08 94.2701 330.96 99.7601 333.11 105.48C336.99 115.79 344.49 121.49 354.75 124.12C357.63 124.86 360.59 125.27 363.5 125.83C353.67 129.97 343.23 132.07 333.07 135.13C332.05 135.44 330.34 136.08 330.44 134.22C330.6 131.08 328.52 131.68 326.83 131.67C318.69 131.63 310.55 131.74 302.42 131.61C299.18 131.56 297.9 132.79 298.17 136.04C298.26 137.17 299.02 139.4 297.42 139.38C295.79 139.36 293.59 138.96 292.44 137.09C292 136.37 293.16 135.01 291.33 134.74C291 135.23 290.37 135.73 290.32 136.29C290.11 138.5 288.46 139.12 286.88 138.86C285.11 138.57 285.73 136.67 285.82 135.51C286.06 132.39 284.7 131.55 281.73 131.59C272.95 131.71 264.15 131.56 255.35 131.5ZM328.72 124.98C323.78 118.84 311.55 118.75 306.52 122.31C305.85 122.79 305 123.31 305.47 124.27C306.13 125.62 307.17 124.89 307.98 124.43C313.79 121.12 319.49 122.27 325.17 124.77C326.32 125.27 327.45 126.31 328.72 124.98ZM287.4 122.65C287.04 122.33 286.61 121.88 286.12 121.49C281.75 118.04 269.06 118.61 264.85 122.42C264.33 122.89 263.77 123.44 264.14 124.07C264.8 125.2 265.88 124.79 266.75 124.36C272.83 121.36 278.95 120.27 285.23 123.77C286.27 124.35 287.11 124.39 287.4 122.65Z" fill="#E7E8F4"/>
<path d="M255.35 131.5C264.15 131.55 272.95 131.71 281.75 131.6C284.72 131.56 286.07 132.4 285.84 135.52C285.75 136.68 285.13 138.58 286.9 138.87C288.48 139.13 290.13 138.51 290.34 136.3C290.39 135.74 291.02 135.23 291.35 134.75C293.17 135.02 292.02 136.38 292.46 137.1C293.61 138.97 295.8 139.37 297.44 139.39C299.04 139.41 298.28 137.18 298.19 136.05C297.92 132.8 299.2 131.57 302.44 131.62C310.58 131.74 318.71 131.64 326.85 131.68C328.55 131.69 330.62 131.09 330.46 134.23C330.36 136.08 332.07 135.44 333.09 135.14C343.24 132.08 353.69 129.97 363.52 125.84C365.71 127.1 368.45 122.73 370.38 126.52C359.38 130.85 347.86 133.48 336.52 136.67C332.27 137.87 330.45 139.57 330.9 144.07C331.3 148.02 330.92 152.05 331.01 156.04C331.06 158.41 330.48 159.8 327.71 159.77C319.06 159.67 310.41 159.67 301.76 159.77C299.25 159.8 298.63 158.63 298.69 156.42C298.78 152.93 298.58 149.43 298.74 145.94C298.92 142.15 296.69 141.08 293.53 140.81C292.22 140.7 291.68 140.86 291.57 142.6C291.34 146.4 290.39 150.14 289.93 153.93C289.18 160.17 290.57 161.95 296.7 163.28C298.17 163.6 300.18 162.77 300.96 164.96C293.73 167.62 287.22 163.41 287.4 156.07C287.51 151.41 287.99 146.75 288.32 141.97C284.84 143.14 285.82 145.85 285.78 148.01C285.59 159.72 285.63 159.71 273.75 159.73C268.26 159.74 262.78 159.81 257.29 159.86C255.86 159.57 254.25 159.57 254.27 157.41C254.38 149.18 254.43 140.95 254.56 132.71C254.56 132.31 255.07 131.91 255.35 131.5ZM313.95 157.46C318.22 157.46 321.71 157.37 325.19 157.49C327.5 157.57 328.49 156.78 328.44 154.36C328.33 148.72 328.33 143.07 328.44 137.43C328.49 135.03 327.56 134.21 325.24 134.26C320.6 134.36 315.95 134.29 311.3 134.29C301.34 134.29 301.25 134.29 301.38 144.11C301.44 148.37 299.52 153.82 302.26 156.57C305.02 159.36 310.48 157.01 313.95 157.46ZM269.14 157.47C273.4 157.47 276.89 157.34 280.37 157.51C282.8 157.63 283.55 156.7 283.48 154.35C283.31 148.71 283.15 143.06 283.36 137.43C283.47 134.47 282.09 134.22 279.79 134.27C275.15 134.37 270.5 134.3 265.85 134.3C256.23 134.3 256.1 134.3 256.29 143.8C256.38 148.2 254.27 153.79 257.38 156.68C260.22 159.3 265.65 157.09 269.14 157.47Z" fill="#1A273D"/>
<path d="M366.79 695.47C366.3 655.35 365.82 615.23 365.33 575.11C382.42 575.02 382.24 575.03 383.14 591.72C384.92 624.71 386.87 657.69 388.93 690.66C389.2 694.96 388.81 697 383.65 696.26C378.11 695.48 372.42 695.7 366.79 695.47Z" fill="#E7E8F4"/>
<path d="M278.95 695.53C273.25 696.65 267.44 695.74 261.72 696.4C259.17 696.69 258.24 695.71 258.43 693.04C258.85 686.8 258.99 680.55 259.24 674.31C260.26 671.95 259.69 669.59 259.23 667.22C259.7 663.32 258.75 659.3 260.32 655.51C261.2 653.42 260.65 651.36 260.22 649.3C259.55 642.99 262.35 636.95 261.67 630.65C262.43 628.21 262.56 625.73 262.09 623.22C263.22 606.67 264.49 590.12 265.39 573.55C265.62 569.27 266.76 567.5 271.24 568.56C274.93 569.44 278.86 568.53 282.54 569.75C281.7 596.92 280.83 624.1 280.03 651.28C279.59 666.02 279.3 680.77 278.95 695.53Z" fill="#E7E8F4"/>
<path d="M262.08 623.21C262.55 625.72 262.42 628.2 261.66 630.64C260.99 630.6 260.32 630.56 259.65 630.53C259.5 627.91 258.76 625.2 260.75 622.89C261.19 622.99 261.64 623.1 262.08 623.21Z" fill="#028791"/>
<path d="M481.48 622.62C480.79 623.19 480.1 623.2 479.43 622.6C480.12 621.82 480.8 621.79 481.48 622.62Z" fill="#028791"/>
<path d="M230.13 581.43C217.52 583.52 205.09 586.79 192.24 587.29C187.83 587.46 183.36 588.11 179.04 585.68C198.94 585.63 218.16 581.48 237.33 576.97C237.02 581.84 232.31 579.6 230.13 581.43Z" fill="#1A273D"/>
<path d="M165.25 605C166.03 604.63 166.81 604.26 167.59 603.89C166.28 613.9 164.33 623.77 162.01 633.62C160.19 641.35 159.32 649.37 157.66 657.2C157.45 658.19 158.49 659.95 156.59 659.79C154.53 659.62 155.42 657.65 155.61 656.58C157.76 644.94 160.04 633.32 162.25 621.69C163.3 616.14 164.25 610.56 165.25 605Z" fill="#1A273D"/>
<path d="M259.65 630.52C260.32 630.56 260.99 630.6 261.66 630.63C262.34 636.94 259.53 642.97 260.21 649.27C259.7 648.93 259.2 648.6 258.69 648.27C259.01 642.36 259.33 636.44 259.65 630.52Z" fill="#1A273D"/>
<path d="M259.22 667.21C259.68 669.57 260.25 671.94 259.23 674.29C258.19 673.56 258.82 671.81 257.4 671.32C257.13 669.86 256.89 668.41 257.58 666.99C258.12 667.07 258.67 667.14 259.22 667.21Z" fill="#028791"/>
<path d="M258.69 648.28C259.2 648.61 259.7 648.94 260.21 649.28C260.64 651.35 261.2 653.41 260.31 655.5C259.67 654.78 259.03 654.05 258.4 653.32C258.13 651.62 257.8 649.92 258.69 648.28Z" fill="#028791"/>
<path d="M258.39 653.32C259.03 654.05 259.67 654.78 260.3 655.5C258.73 659.29 259.68 663.31 259.21 667.21C258.66 667.14 258.11 667.07 257.56 667C257.85 662.44 258.12 657.88 258.39 653.32Z" fill="#1A273D"/>
<path d="M510.39 698.91C507.05 699.78 503.72 700.15 500.42 698.78C503.75 698.34 507.08 698.16 510.39 698.91Z" fill="#028791"/>
<path d="M217.21 406.12C210.11 406.12 210.11 406.12 209.47 399.27C208.47 388.57 208.47 388.45 219.12 388.39C221.5 388.38 225.06 386.48 226.17 389.84C227.67 394.37 228.57 399.6 226.41 403.91C224.87 406.98 220.49 406.04 217.21 406.12Z" fill="#01BE91"/>
<path d="M210.48 428.36C218.28 428.31 225.93 426.94 233.6 425.73C234.86 425.53 236.66 424.7 237.03 426.33C237.55 428.63 235.29 428.08 233.99 428.3C224.37 429.91 214.74 431.48 204.94 431.21C203.41 431.17 200.99 431.57 201.19 429.34C201.36 427.5 203.66 428.49 205.02 428.39C206.83 428.26 208.66 428.36 210.48 428.36Z" fill="#028791"/>
<path d="M200.27 415.69C203.9 413.43 207.2 414.29 210.34 413.85C218.2 412.74 226.09 411.91 233.96 410.9C235.16 410.75 236.48 410.35 236.81 411.87C237.09 413.19 235.69 413.35 234.79 413.5C223.85 415.31 212.9 417.01 201.75 416.1C201.24 416.05 200.76 415.83 200.27 415.69Z" fill="#028791"/>
<path d="M201.87 421.84C213.61 421.16 225.21 418.99 237.91 417.91C233.38 422.39 208.96 424.85 201.87 421.84Z" fill="#028791"/>
<path d="M237.79 433.66C228.78 437.72 207.5 439.31 202.1 436.61C214.08 436.47 225.84 433.97 237.79 433.66Z" fill="#01BE91"/>
<path d="M298.74 189.76C293.28 189.84 288.32 188.27 283.83 185.18C282.9 184.54 281.58 183.85 282.56 182.5C283.42 181.31 284.29 182.48 285.03 182.98C295.21 189.89 304.92 188.34 314.4 181.45C315.46 180.68 316.82 178.5 318.01 180.09C319.37 181.92 316.86 182.82 315.69 183.67C310.65 187.33 305.16 189.86 298.74 189.76Z" fill="#1A273D"/>
<path d="M291.7 195.11C297.12 196.04 301.63 197.04 307.17 194.56C302.98 199.8 296.58 199.86 291.7 195.11Z" fill="#1A273D"/>
<path d="M328.72 124.98C327.45 126.31 326.32 125.27 325.17 124.77C319.49 122.27 313.79 121.12 307.98 124.43C307.17 124.89 306.13 125.62 305.47 124.27C305 123.31 305.85 122.79 306.52 122.31C311.55 118.75 323.78 118.84 328.72 124.98Z" fill="#1A273D"/>
<path d="M287.4 122.65C287.11 124.38 286.27 124.35 285.22 123.77C278.94 120.27 272.82 121.36 266.74 124.36C265.87 124.79 264.79 125.2 264.13 124.07C263.76 123.44 264.32 122.88 264.84 122.42C269.05 118.61 281.74 118.04 286.11 121.49C286.6 121.88 287.04 122.33 287.4 122.65Z" fill="#1A273D"/>
<path d="M313.95 157.46C310.49 157.01 305.02 159.35 302.27 156.58C299.53 153.83 301.45 148.38 301.39 144.12C301.26 134.3 301.35 134.29 311.31 134.3C315.96 134.3 320.61 134.38 325.25 134.27C327.57 134.22 328.51 135.04 328.45 137.44C328.33 143.08 328.34 148.73 328.45 154.37C328.5 156.79 327.5 157.58 325.2 157.5C321.7 157.37 318.22 157.46 313.95 157.46ZM318.26 149.49C317.94 147.64 317.01 146.36 315.03 146.41C313.08 146.46 311.98 147.6 312.03 149.58C312.07 151.54 313.17 152.68 315.14 152.65C317.12 152.62 318.01 151.33 318.26 149.49Z" fill="#E7E8F4"/>
<path d="M269.14 157.47C265.65 157.09 260.22 159.3 257.39 156.68C254.28 153.79 256.39 148.2 256.3 143.8C256.11 134.31 256.24 134.3 265.86 134.3C270.51 134.3 275.15 134.37 279.8 134.27C282.1 134.22 283.48 134.48 283.37 137.43C283.16 143.06 283.32 148.71 283.49 154.35C283.56 156.7 282.82 157.63 280.38 157.51C276.89 157.34 273.4 157.47 269.14 157.47ZM272.54 144.96C270.73 145.17 269.42 146.07 269.33 147.98C269.25 149.89 270.41 151.1 272.28 151.16C274.1 151.22 275.43 150.32 275.47 148.28C275.52 146.32 274.34 145.37 272.54 144.96Z" fill="#E7E8F4"/>
<path d="M318.26 149.49C318.01 151.32 317.11 152.62 315.13 152.65C313.16 152.68 312.07 151.54 312.02 149.58C311.98 147.6 313.07 146.46 315.02 146.41C317.02 146.36 317.94 147.65 318.26 149.49Z" fill="#1A273D"/>
<path d="M272.54 144.96C274.34 145.37 275.52 146.32 275.48 148.28C275.43 150.32 274.11 151.23 272.29 151.16C270.41 151.09 269.25 149.89 269.34 147.98C269.41 146.07 270.72 145.17 272.54 144.96Z" fill="#1A273D"/>
<path d="M161.12 219.79C149.64 220.44 138.17 219.18 126.65 219.69C112.38 220.32 98.06 219.84 83.76 219.84C71.8 219.84 59.83 219.77 47.87 219.86C28.37 220 11.37 231.65 4.16 249.75C1.99 255.2 1.41 260.93 0.870001 266.75C-2.66 304.47 20.47 328.93 59.33 325.62C61.28 325.45 63.24 325.34 65.2 325.26V325.09H72.15C73.61 325.08 75.07 325.08 76.54 325.09H115.07V325.47C117.58 325.47 120.1 325.55 122.61 325.6C126.53 323.43 127.36 319.08 129.48 315.68C135.66 305.78 140.9 295.27 148.37 286.19C148.55 285 148.72 283.81 148.9 282.62C147.91 275.76 148.52 268.89 148.7 262.01C129.3 261.91 109.91 261.85 90.51 261.67C86.95 261.64 81.92 263.06 81.84 257.17C81.76 251.29 86.73 252.48 90.35 252.48C110.91 252.44 131.48 252.5 152.04 252.52C157.98 239.68 167.65 229.77 177.6 220.08C172.14 218.14 166.64 219.47 161.12 219.79Z" fill="#42BA80"/>
<path d="M65.19 325.08V325.25C67.5 325.15 69.82 325.1 72.14 325.08H65.19Z" fill="#42BA80"/>
</g>
<defs>
<clipPath id="clip0_73_253">
<rect width="651.22" height="727.63" fill="white"/>
</clipPath>
</defs>
</svg>
