<svg width="168" height="136" viewBox="0 0 168 136" fill="none" xmlns="http://www.w3.org/2000/svg">
<path d="M92.7436 79.3588C98.5663 75.4704 102.423 68.8428 102.423 61.334C102.423 49.4005 92.7436 39.689 80.85 39.689C68.9563 39.689 59.2773 49.4005 59.2773 61.334C59.2773 68.8619 63.1336 75.4895 68.9563 79.3588C55.7836 84.2433 46.3336 96.9239 46.3336 111.826H52.08C52.08 95.9087 64.9854 82.9791 80.8309 82.9791C96.6763 82.9791 109.582 95.9278 109.582 111.826H115.328C115.328 96.9431 105.897 84.2433 92.7054 79.3588H92.7436ZM65.0427 61.334C65.0427 52.5802 72.1445 45.4738 80.85 45.4738C89.5554 45.4738 96.6573 52.5994 96.6573 61.334C96.6573 70.0687 89.5554 77.1943 80.85 77.1943C72.1445 77.1943 65.0427 70.0687 65.0427 61.334Z" fill="#5D937B"/>
<path d="M121.495 64.9352C127.317 61.0468 131.174 54.4192 131.174 46.9105C131.174 34.9769 121.495 25.2654 109.601 25.2654C103.835 25.2654 98.6046 27.564 94.7291 31.2609C93.2973 32.64 92.0564 34.2107 91.0446 35.9155C92.8391 36.6434 94.5382 37.5437 96.1227 38.6164C97.1346 36.9499 98.4518 35.4941 99.9791 34.3257C102.652 32.2761 105.974 31.031 109.582 31.031C118.306 31.031 125.389 38.1566 125.389 46.8913C125.389 54.151 120.502 60.2806 113.839 62.1578C112.484 62.5409 111.052 62.7707 109.563 62.7707C109.047 62.7707 108.551 62.7324 108.055 62.6941C107.959 64.7628 107.635 66.7933 107.081 68.7279C107.902 68.6513 108.723 68.5555 109.563 68.5555C110.727 68.5555 111.873 68.6513 112.999 68.7854C127.241 70.5093 138.314 82.6727 138.314 97.4028H144.06C144.06 82.5195 134.629 69.8198 121.437 64.9352H121.495Z" fill="#003836"/>
<path d="M52.0991 68.5362C52.9391 68.5362 53.76 68.6512 54.5809 68.7086C54.0464 66.774 53.7218 64.7627 53.6073 62.6748C53.1109 62.7131 52.6146 62.7514 52.0991 62.7514C50.61 62.7514 49.1973 62.5216 47.8227 62.1385C41.1791 60.2613 36.2727 54.1317 36.2727 46.872C36.2727 38.1182 43.3746 31.0117 52.08 31.0117C55.6882 31.0117 59.0291 32.2568 61.6827 34.3064C63.21 35.494 64.5273 36.9498 65.5391 38.5971C67.1237 37.5244 68.8227 36.6241 70.6173 35.8962C69.6055 34.1723 68.3646 32.6016 66.9327 31.2416C63.0573 27.5447 57.8264 25.2461 52.0609 25.2461C40.1673 25.2461 30.4882 34.9576 30.4882 46.8912C30.4882 54.4191 34.3446 61.0467 40.1673 64.916C26.9946 69.8005 17.5446 82.481 17.5446 97.3836H23.2909C23.2909 82.6534 34.3636 70.4709 48.6055 68.7661C49.7318 68.632 50.8773 68.5362 52.0418 68.5362H52.0991Z" fill="#003836"/>
</svg>
