<svg width="696" height="773" viewBox="0 0 696 773" fill="none" xmlns="http://www.w3.org/2000/svg">
<path d="M564.9 269.16C567.59 267.24 571 267.58 574.13 270.54C580.27 276.35 589.79 275.92 596.03 270.22C600.88 265.79 605.05 269.4 609.82 269.33C625.75 269.1 641.69 269.23 657.62 269.23C680.3 269.23 697.08 281.17 704.33 302.46C704.64 303.37 704.57 304.48 705.6 305.04V338.99C702.71 346 700.03 353.05 694.79 358.87C686 368.62 675.23 374.4 662.19 374.76C646.43 375.2 630.64 374.74 614.87 374.68C614.84 368.55 614.72 362.42 614.8 356.29C615.01 339.88 611.47 324.55 602.77 310.4C600.61 306.89 596.92 303.95 596.98 299.22C612.94 299.24 628.9 299.24 644.86 299.3C648.03 299.31 650.65 298.61 650.74 294.86C650.83 291.18 648.44 290.07 645.17 290.08C626.38 290.15 607.6 290.19 588.81 290.25C581.41 283.65 574.37 276.6 565.88 271.32C565.09 270.81 564.88 270.03 564.9 269.16Z" fill="#72DBA4"/>
<path d="M564.9 269.16C564.88 270.03 565.09 270.81 565.88 271.3C574.37 276.58 581.41 283.63 588.81 290.23C590.81 293.87 593.04 297.32 596.97 299.21C596.91 303.94 600.6 306.88 602.76 310.39C611.46 324.54 615 339.87 614.79 356.28C614.71 362.41 614.83 368.54 614.86 374.67C614.82 386.4 614.79 398.14 614.75 409.87C613.87 412.52 613.57 415.17 614.73 417.83C614.89 419.48 614.3 420.91 613.46 422.26C611.14 420.68 609.97 421.3 609.35 424.05C608.25 428.91 607.08 433.76 605.61 438.51C604.38 442.48 603.24 446.57 600.14 450.8C601.03 431.47 601.88 413.23 602.67 394.98C602.74 393.31 603.51 390.76 600.78 390.72C598.54 390.68 598.84 393.04 598.78 394.62C597.03 439.95 594.41 485.23 590.88 530.45C588.35 562.77 585.28 595.01 579.94 627.04C577.43 642.11 570.03 651.98 556.26 658.26C541.7 664.9 526.78 670.45 511.53 675.17C458.12 691.68 403.45 702.86 348.64 713.45C342.44 714.65 336.22 715.69 330.02 716.86C328.72 717.11 327.17 717.48 327.5 719.3C327.84 721.15 329.36 720.79 330.69 720.58C332 720.37 333.38 720.36 334.62 719.95C337.71 718.94 339.1 719.44 339.03 723.19C338.92 729.49 339.38 735.81 339.59 742.12C331.98 742.2 324.38 742.26 316.77 742.35C314.78 742.37 313.01 742.22 313.42 739.46C315.24 727.12 313.75 714.71 314.27 702.34C314.95 701.41 315.97 701.54 316.95 701.38C322.55 700.42 322.92 699.9 321.16 694.74C318.29 686.33 315.1 678.01 312.45 669.53C309.7 660.74 305.9 652.28 304.29 643.14C305.49 642.57 306.66 641.95 307.88 641.43C357.88 620.16 407.96 599.04 457.83 577.47C465.88 573.99 473.56 572.88 481.96 574.55C486.55 575.46 491.01 576.65 495.3 578.5C496.69 579.1 498.57 580.8 499.61 578.63C500.78 576.2 498.19 575.64 496.65 574.95C489.11 571.57 481.09 570.29 472.91 569.76C470.58 569.61 467.81 570.68 466.84 567.09C465.94 563.77 466.04 560.81 468.76 558.41C471.75 555.77 475.3 554.57 479.27 554.47C486.62 554.29 493.38 556.39 499.85 559.66C501.26 560.37 503.06 561.84 504.16 559.73C505.28 557.6 503.06 556.99 501.63 556.27C495.48 553.19 489.04 550.87 482.11 550.77C478.49 550.72 477.62 549.32 477.83 546.01C478.04 542.54 477.75 539.03 477.66 535.54C476.36 483.31 476.29 431.1 481.19 379.01C482.93 360.48 484.9 341.93 491.51 324.29C493.27 319.6 495.3 315.03 499.86 312.24C501.07 311.5 503.06 310.86 501.9 309C500.66 307.02 498.89 308.29 497.56 309.19C493.7 311.79 491.38 315.65 489.5 319.77C484.2 331.4 481.97 343.86 480.11 356.35C474.68 392.8 473.83 429.55 473.37 466.31C473.04 492.93 473.39 519.54 474.27 546.15C474.39 549.86 473.32 551.65 469.88 553.17C463.78 555.88 461.19 560.63 462.97 566.39C464.19 570.34 462.86 571.42 459.64 572.77C431.77 584.51 403.96 596.41 376.14 608.26C370.5 610.66 370.43 610.62 370.91 604.52C373.37 573.35 375.64 542.17 378.37 511.03C380.21 490 381.48 468.9 384.59 448C390.9 405.63 402.1 364.42 414.33 323.48C419.04 307.73 424.41 292.18 429.25 276.46C430.22 273.31 432.29 272.39 434.97 271.83C437.88 271.23 438.02 273.87 438.93 275.43C441.12 279.16 443.47 282.84 445.15 286.8C446.89 290.92 449.08 291.33 453.17 290.02C483.86 280.17 514.63 270.58 545.37 260.91C549.94 261.97 554.06 263.97 557.98 266.53C560.08 267.91 562.26 269.24 564.9 269.16ZM532.76 295.46C530.11 295.58 526.62 295.71 523.14 295.91C521.84 295.98 520.15 295.93 520.16 297.76C520.17 299.88 521.87 299.9 523.44 299.67C529.26 298.82 535.07 299.28 540.84 300.02C562.04 302.74 579.72 311.25 590.3 330.94C595.83 341.23 598.14 352.41 598.77 363.99C598.86 365.6 598.66 367.74 601.06 367.61C602.65 367.53 602.8 365.87 602.72 364.48C601.72 346.8 597.45 330.23 585.16 316.83C571.36 301.78 553.34 296.45 532.76 295.46ZM415.58 463.01C423.57 460.82 433.5 458.13 443.4 455.34C445.37 454.78 445.3 452.8 445.59 451.19C447.56 440.23 449.53 429.26 451.47 418.29C451.77 416.61 453.03 414.25 450.44 413.66C447.73 413.04 447.95 415.79 447.65 417.41C445.79 427.55 443.93 437.7 442.34 447.89C441.85 451.01 440.49 452.46 437.47 453.15C431.96 454.41 426.52 455.98 421.07 457.49C410.52 460.4 408.89 459.84 402.73 451.03C402.26 450.35 401.77 449.67 401.19 449.08C400.56 448.44 399.7 448.24 398.9 448.66C397.8 449.23 397.92 450.25 398.19 451.26C399.8 457.26 407.32 463.03 415.58 463.01ZM406.33 393.93C403.92 393.63 402.71 393.68 402.42 395.19C402.06 397.09 403.64 397.38 404.89 397.6C408.64 398.27 412.42 398.78 416.18 399.38C426.81 401.07 437.44 402.77 448.07 404.49C449.61 404.74 451.35 405.05 451.76 403.14C452.21 401.03 450.32 400.94 448.85 400.69C446.24 400.25 443.63 399.76 441.01 399.35C429.06 397.48 417.11 395.62 406.33 393.93Z" fill="#E6E1F2"/>
<path d="M545.43 260.94C514.69 270.61 483.92 280.2 453.23 290.05C449.14 291.36 446.95 290.95 445.21 286.83C443.53 282.87 441.18 279.18 438.99 275.46C438.07 273.9 437.94 271.26 435.03 271.86C432.35 272.42 430.28 273.34 429.31 276.49C424.46 292.2 419.09 307.75 414.39 323.51C402.16 364.46 390.96 405.67 384.65 448.03C381.54 468.94 380.27 490.03 378.43 511.06C375.7 542.2 373.43 573.39 370.97 604.55C370.49 610.65 370.56 610.69 376.2 608.29C404.03 596.44 431.83 584.54 459.7 572.8C462.92 571.44 464.25 570.37 463.03 566.42C461.25 560.66 463.84 555.91 469.94 553.2C473.38 551.67 474.45 549.88 474.33 546.18C473.45 519.58 473.1 492.96 473.43 466.34C473.89 429.58 474.74 392.83 480.17 356.38C482.03 343.88 484.26 331.43 489.56 319.8C491.44 315.68 493.75 311.82 497.62 309.22C498.95 308.33 500.72 307.05 501.96 309.03C503.12 310.89 501.13 311.53 499.92 312.27C495.36 315.06 493.32 319.64 491.57 324.32C484.96 341.95 482.99 360.5 481.25 379.04C476.35 431.12 476.42 483.34 477.72 535.57C477.81 539.06 478.1 542.57 477.89 546.04C477.69 549.35 478.55 550.75 482.17 550.8C489.1 550.9 495.53 553.22 501.69 556.3C503.11 557.01 505.33 557.62 504.22 559.76C503.11 561.87 501.32 560.4 499.91 559.69C493.43 556.42 486.67 554.33 479.33 554.5C475.36 554.59 471.81 555.8 468.82 558.44C466.1 560.85 466 563.8 466.9 567.12C467.87 570.71 470.64 569.64 472.97 569.79C481.15 570.32 489.17 571.59 496.71 574.98C498.25 575.67 500.84 576.23 499.67 578.66C498.63 580.83 496.75 579.13 495.36 578.53C491.06 576.67 486.6 575.49 482.02 574.58C473.61 572.9 465.93 574.02 457.89 577.5C408.02 599.08 357.94 620.19 307.94 641.46C306.72 641.98 305.54 642.59 304.35 643.17C302.5 642.84 300.84 642.37 301.92 639.88C307.1 637.56 312.27 635.24 317.45 632.92C321.91 631.15 326.28 629.09 330.86 627.71C335.13 626.43 336.28 624.07 336.11 619.75C334.95 590.26 334.04 560.75 333.04 531.25C332.92 527.78 333.43 524.23 332.11 520.9C329.36 513.97 326.51 507.08 323.71 500.17C321.51 492.29 319.31 484.41 317.1 476.52C316.15 471.64 315.2 466.76 314.24 461.88C313.9 458.17 313.56 454.46 313.23 450.75C314.64 440.99 317.9 431.81 321.72 422.76C328.64 406.36 337.48 390.96 345.8 375.28C348.3 370.98 350.8 366.69 353.3 362.39C354.13 361.78 354.7 361.07 354.32 359.96L354.28 360.06C355.5 359.96 355.76 358.87 356.24 358.07C369.63 335.86 383.76 314.13 398.2 292.59C400.9 288.56 404.63 285.09 405.7 280.07C404.8 275.73 402.89 273.59 397.8 274.69C391.21 276.12 391.12 275.72 392.22 269.34C393.58 265.31 395.03 261.31 396.29 257.25C398.66 249.66 403 243.81 410.44 240.55C412.75 239.76 414.04 240.04 414.02 243.02C413.99 247.08 414.38 251.15 414.59 255.21C413.9 261.52 414.94 267.79 415.05 274.08C415.07 275.25 414.25 277.48 416.79 277.38C418.71 277.31 420.04 276.59 420.48 274.23C422.07 265.77 423.94 257.37 425.71 248.95C426.38 247.3 427.17 245.68 427.68 243.98C429.73 237.09 433.43 231.97 441.15 230.96C449.77 229.37 458.38 227.66 467.02 226.2C482.35 223.61 497.7 221.18 513.05 218.68C517.76 218.01 522.48 217.44 527.17 216.63C529.51 216.22 530.67 216.64 531.4 219.18C532.52 223.09 534.24 226.82 535.7 230.63C537.86 237.04 540.02 243.45 542.18 249.86C543.21 253.53 544.32 257.24 545.43 260.94Z" fill="#182840"/>
<path d="M317.05 476.5C319.25 484.38 321.45 492.26 323.65 500.14C321.15 517 320.34 534.01 319.29 551C279.89 550.97 240.48 550.92 201.08 550.9C173.98 550.88 146.88 550.95 119.78 550.88C93.18 550.81 72.72 530.28 72.74 503.76C72.75 494.65 72.21 485.55 75.38 476.65C81.74 458.83 98.33 445.84 117.23 445.75C179.41 445.46 241.6 445.59 303.78 445.53C305.93 445.53 308.08 445.31 310.23 445.2C312.13 446.55 311.71 449.14 313.18 450.72C313.52 454.43 313.86 458.14 314.19 461.85C278.32 461.85 242.45 461.85 206.58 461.87C200.67 461.87 197.45 464.63 197.54 469.39C197.63 473.93 200.76 476.54 206.45 476.55C243.32 476.56 280.18 476.52 317.05 476.5Z" fill="#42BA80"/>
<path d="M613.81 528.36C613.81 545.58 615.22 562.68 617.49 579.76C619.04 591.37 619.78 603.1 620.72 614.78C622.1 631.9 623.83 649.02 624.51 666.17C625.18 682.9 626.3 699.64 625.77 716.41C625.55 723.55 625.58 730.71 625.8 737.85C625.9 741.3 624.82 742.49 621.29 742.42C611.15 742.22 601.01 742.35 590.87 742.35C516.57 742.35 442.27 742.35 367.97 742.33C365.49 742.33 363.01 742.08 360.52 741.95C361.03 735.15 362.05 728.34 361.88 721.56C361.75 715.98 364.03 714.37 369.1 713.39C415.79 704.4 462.23 694.31 507.73 680.35C526.8 674.5 545.69 668.17 563.37 658.58C574.09 652.76 580.33 644.49 582.7 632.44C587.13 609.87 589.73 587.08 591.94 564.24C595.18 530.65 597.35 496.97 599.4 463.29C599.49 461.83 599.46 460.05 600.24 458.98C606.49 450.47 609.04 440.46 612.17 430.66C614.39 431.71 613.73 433.76 613.71 435.47C613.63 443.9 613.23 452.32 612.97 460.73C612.35 480.78 612.82 500.86 612.84 520.92C613.3 523.39 612.32 526.03 613.81 528.36Z" fill="#E6E1F2"/>
<path d="M349.07 58.51C344.99 38.73 359.17 15.94 378.06 12.1C385.6 10.57 392.9 12.05 400.13 14.22C409.81 17.13 419.2 21.28 429.43 21.92C436.71 22.38 444.04 21.99 451.32 22.35C468.9 23.23 485.89 26.75 501.93 34.26C507.38 36.82 512.37 40.08 516.92 44.01C523.59 49.77 526.87 56.99 526.94 65.9C527.08 85.77 521.96 104.7 516.81 123.6C513.58 135.46 509.83 147.18 505.56 158.72C504.76 160.9 503.39 163.24 507.2 164.03C507.58 164.11 508.07 164.65 508.15 165.05C510.49 177.04 519.76 177.98 530.08 178.66C523.23 188.21 513.58 190.76 502.92 191.21C491.93 189.28 481.45 185.48 470.92 181.99C466.52 180.53 466.46 182.18 467.26 185.54C467.82 187.91 468.17 190.32 468.61 192.74C467.88 192.81 467.55 192.93 467.25 192.86C466.61 192.7 465.97 192.49 465.36 192.23C453.78 187.3 446.62 178.41 442.19 166.87C440.81 163.28 440.16 161.4 445.07 159.95C452.99 157.63 457.3 151.4 457.73 143.2C458.14 135.46 454.73 129.38 447.8 125.54C438.77 120.53 428.64 123.29 422.32 132.77C420.71 135.18 418.68 136.27 416.18 136.24C413.52 136.2 413.71 133.45 413.13 131.73C409.26 120.2 409.29 108.59 412.59 96.9C413.46 93.84 414.91 90.86 414.78 87.05C413.67 87.74 412.98 88.16 412.31 88.59C411.47 89.13 410.69 89.77 409.8 90.21C398.97 95.59 388.15 100.1 376.62 91.72C371.51 88 371.39 88.17 369.1 93.65C368.02 91.99 366.95 90.33 365.53 88.14C363.7 92.46 365.37 96.77 364.08 101.61C352.99 91.43 351.72 78.29 350.11 65.29C350.46 62.93 349.95 60.69 349.07 58.51Z" fill="#028791"/>
<path d="M212.4 588.5C214.8 596.79 216.98 605.15 221.43 612.67C222.2 619.49 226.34 625.24 227.58 631.92C227.43 632.46 227.27 633 227.12 633.53C218.45 632.72 209.77 632.34 201.06 632.5C192.32 632.66 189.16 634.86 186.45 643.21C185.5 643.68 185.2 644.54 185.07 645.51C172.92 648.25 170.57 655.1 178.62 664.19C179.05 664.67 179.33 665.28 179.69 665.84C180.04 666.51 180.4 667.18 180.75 667.85C179.85 673.06 180.18 677.93 184.58 681.67C184.75 683.7 186.25 684.23 187.89 684.76C190.84 685.72 193.75 686.82 196.68 687.86C196.32 693.95 197.61 695.79 203.59 697.29C220.55 701.56 237.1 707.4 254.39 710.42C258.68 726.9 260.59 743.73 262.06 760.96C259.07 760.63 257.93 758.12 256.08 756.71C240.21 744.63 222.52 738.13 202.42 737.17C185.13 736.34 167.94 733.61 150.66 732.59C140.42 731.99 130.26 730.64 120.01 730.31C115.23 730.16 110.51 729.14 105.67 729.25C103.05 729.31 101.29 727.84 100.3 725C94.07 707.19 87.68 689.45 81.25 671.71C75.26 655.2 69.14 638.75 63.13 622.25C62.41 620.26 61.32 618.28 61.94 616C91.72 624.77 121.52 633.49 151.26 642.39C155.46 643.65 157.23 643.05 157.67 638.32C158.34 631.22 159.41 624.12 160.83 617.13C163.37 604.6 166.07 592.05 173.25 581.11C179.2 572.03 187.14 570.39 196.34 576.12C200.76 578.87 204.48 582.4 207.97 586.22C209.14 587.52 210.09 589.35 212.4 588.5Z" fill="#E6E1F2"/>
<path d="M369.13 93.65C371.42 88.17 371.54 88 376.65 91.72C388.18 100.1 399 95.59 409.83 90.21C410.72 89.77 411.5 89.13 412.34 88.59C413.02 88.16 413.7 87.74 414.81 87.05C414.94 90.86 413.48 93.84 412.62 96.9C409.31 108.59 409.29 120.19 413.16 131.73C413.74 133.45 413.55 136.21 416.21 136.24C418.71 136.27 420.74 135.19 422.35 132.77C428.67 123.29 438.8 120.53 447.83 125.54C454.76 129.38 458.17 135.46 457.76 143.2C457.33 151.4 453.01 157.63 445.1 159.95C440.18 161.39 440.84 163.27 442.22 166.87C446.65 178.41 453.81 187.3 465.39 192.23C466 192.49 466.64 192.7 467.28 192.86C467.57 192.93 467.91 192.81 468.64 192.74C468.19 190.33 467.85 187.91 467.29 185.54C466.5 182.19 466.56 180.54 470.95 181.99C481.49 185.49 491.96 189.28 502.95 191.21C502.92 193.84 504.15 196.11 505.05 198.47C506.14 200.44 505.48 203.59 508.82 204.05C508.35 209.45 512.15 213.62 513.01 218.63C497.67 221.13 482.31 223.57 466.98 226.15C458.33 227.61 449.73 229.31 441.11 230.91C441.96 227.55 442.94 224.22 443.64 220.84C444.96 214.51 446.34 208.14 443.59 201.65C440.63 203.32 439.77 206.04 437.88 207.92C426.44 219.27 412.08 223.56 396.59 225.16C393.71 225.46 390.52 224.4 388.21 227.11C382.81 225.1 377.33 223.29 372.04 221.03C364.32 217.73 362.35 210.53 361.29 203.26C359.57 191.47 359.48 179.6 361.15 167.76C361.31 166.62 361.18 165.45 361.19 164.29C362.52 153.91 364.07 143.56 365.03 133.15C365.27 130.6 367.67 127.84 365.13 125.21C366.04 123.48 365.39 120.7 368.38 120.37C369.55 121.71 369.1 124.87 371.99 124.16C373.79 123.72 373.99 121.62 374.02 119.99C374.06 118.35 373.86 116.52 372.28 115.58C370.32 114.42 369.89 116.61 368.85 117.45C364.87 114.15 368.37 110.3 368.58 106.94C368.83 102.52 369.05 98.09 369.13 93.65ZM367.49 179.35C366.34 179.24 365.19 179.1 364.04 179.02C363.15 178.96 362.36 179.27 362.11 180.19C361.86 181.13 362.46 181.68 363.26 182.1C366.59 183.86 377.1 182.14 379.84 179.37C380.54 178.66 381.4 177.89 380.75 176.83C379.92 175.47 378.78 175.94 377.81 176.72C374.77 179.18 371.18 179.43 367.49 179.35ZM383.34 109.29C383.53 105.97 377.16 97.99 373.8 97.27C372.9 97.08 372.14 97.11 371.7 98C371.24 98.92 371.67 99.67 372.43 100.11C376.35 102.35 379.07 105.53 380.36 109.89C380.6 110.7 381.15 111.44 382.16 111.2C383.09 110.97 383.37 110.19 383.34 109.29Z" fill="#E1E1E1"/>
<path d="M254.37 710.41C237.09 707.39 220.53 701.55 203.57 697.28C197.6 695.78 196.3 693.94 196.66 687.85C200.96 689.05 205.26 690.29 209.58 691.45C214.71 692.83 219.82 694.27 225.16 694.57C226.36 694.64 227.77 694.61 227.9 693.15C228.03 691.68 226.69 691.47 225.47 691.33C213.18 689.94 201.67 685.65 190.07 681.72C188.27 681.11 186.42 679.77 184.57 681.66C180.17 677.92 179.84 673.05 180.74 667.84C193.88 674.28 207.78 677.57 222.39 677.91C223.88 677.95 226.32 678.69 226.41 676.35C226.5 673.97 224.01 674.58 222.53 674.54C209.1 674.21 196.26 671.43 184.15 665.55C182.5 664.75 181.09 664.36 179.68 665.82C179.33 665.27 179.04 664.66 178.61 664.17C170.56 655.08 172.92 648.23 185.06 645.49C199.58 651.8 214.83 655.41 230.39 657.93C231.62 658.13 232.98 658.01 233.02 656.49C233.07 654.71 231.4 654.67 230.13 654.49C215.12 652.44 200.77 647.87 186.45 643.19C189.16 634.83 192.32 632.64 201.06 632.48C209.77 632.32 218.45 632.7 227.12 633.51C227.25 633.61 227.37 633.76 227.51 633.81C239.91 638.16 252.9 640.02 265.68 642.8C266.67 643.02 267.82 642.81 267.96 641.52C268.1 640.25 267 639.89 266.03 639.67C260.04 638.3 254.08 636.71 248.03 635.71C241.18 634.58 234.69 631.55 227.58 631.89C226.34 625.22 222.2 619.47 221.43 612.64C230.01 613.61 238.45 611.45 247.18 612.12C260.06 613.1 270.04 619.29 280.2 625.85C287.42 630.51 294.65 635.17 301.87 639.83C300.79 642.32 302.45 642.79 304.3 643.12C305.9 652.26 309.7 660.73 312.46 669.51C315.12 677.99 318.3 686.3 321.17 694.72C322.93 699.88 322.56 700.4 316.96 701.36C315.99 701.53 314.96 701.39 314.28 702.32C301.54 704.75 288.79 707.08 276.08 709.64C268.86 711.12 261.6 710 254.37 710.41Z" fill="#E1E1E1"/>
<path d="M58.5801 612.57C44.3601 609.42 30.6101 604.63 16.6401 600.6C12.4901 599.4 10.6201 592.72 12.0201 586.27C14.3501 575.52 21.3401 568.78 30.8001 564.09C42.4901 558.29 54.8601 559.15 67.2601 560.34C68.9101 560.5 70.5701 560.69 72.2101 560.61C85.3201 559.99 98.3701 561.5 111.45 561.86C125.32 562.24 139.23 562.86 153.05 563.91C163.94 564.74 174.94 563.43 185.7 565.69C190.86 566.78 196.45 567.39 199.3 572.95C198.1 572.41 196.88 571.89 195.69 571.32C186.35 566.83 178.12 568.52 171.71 576.56C169.67 579.13 167.95 582.04 166.54 585.02C159.39 600.07 156.53 616.25 154.31 632.58C153.46 638.86 153.54 638.83 147.24 636.98C119.55 628.81 91.8601 620.67 64.1601 612.53C62.3101 611.97 60.4201 610.79 58.5801 612.57Z" fill="#E6E1F2"/>
<path d="M297.27 404.86C295.89 408.96 292.71 410.08 288.8 410.02C286.68 410.01 284.56 409.99 282.44 409.98C245.19 409.96 207.94 409.93 170.69 409.9C162.29 409.89 161.32 409.08 160.42 400.79C158.43 382.35 156.82 363.88 155.4 345.38C154.08 328.24 152.71 311.06 150.22 294.07C149.54 289.4 150.53 284.97 149.72 280.37C148.81 275.2 148.95 269.73 147.49 264.7C145.92 259.32 148.28 253.59 146.23 248.82C144.46 244.7 146.58 240.5 144.4 236.76C143.42 235.08 146.39 233.93 145.33 232.29C143.38 229.28 144.09 226.28 144.19 222.95C144.32 218.77 143.72 214.38 143.31 210.1C142.42 200.88 141.46 191.66 140.59 182.44C138.95 164.97 137.33 147.5 135.78 130.02C135.49 126.71 135.48 123.38 135.48 120.05C135.48 114.49 138.55 111.74 143.95 112.49C155.09 114.05 166.21 115.68 177.34 117.28C176.89 119.45 176.44 121.62 175.99 123.79C175.33 122.99 174.51 122.52 173.45 122.39C167.54 121.71 161.63 120.97 155.72 120.3C147.07 119.31 146.59 120.06 147.64 128.9C149.44 144 151.03 159.13 152.47 174.27C153.99 190.24 155.11 206.26 156.64 222.23C158.46 241.15 160.64 260.04 162.47 278.96C163.98 294.6 165.13 310.27 166.6 325.92C168.49 346 170.6 366.06 172.48 386.14C172.87 390.27 174.2 392.08 178.87 392.06C213.47 391.85 248.08 391.95 282.68 391.94C288.77 391.94 288.83 391.5 287.89 385.14C286.15 373.37 284.8 361.55 283.27 349.75C281.76 338.12 280.18 326.49 278.73 314.85C276.87 299.93 275.1 284.99 273.29 270.06C276.41 274.49 278.6 279.54 282.28 283.59C283.12 284.52 283.17 285.64 283.31 286.81C284.62 297.22 285.98 307.63 287.33 318.04C286.74 321.4 287.97 324.59 288.33 327.86C289.7 340.29 291.46 352.68 292.79 365.12C294.22 378.37 296.79 391.5 297.27 404.86Z" fill="#C4C5C5"/>
<path d="M392.15 269.3C391.06 275.68 391.14 276.08 397.73 274.65C402.83 273.55 404.73 275.69 405.63 280.02C403.77 280.66 401.93 281.36 400.05 281.95C386.13 286.3 375.78 294.71 370.64 308.6C366.28 320.39 362.17 332.29 358.42 344.29C356.81 349.45 354.29 354.44 354.21 360.03L354.25 359.93C353.26 360.47 353.37 361.47 353.23 362.36C350.73 366.66 348.23 370.95 345.73 375.25C342.87 368.55 340.01 361.85 337.15 355.14C329.29 336.71 321.43 318.28 313.56 299.85C313.25 298.41 312.92 296.98 312.64 295.54C310.9 286.73 307.56 278.3 306.36 269.36C334.96 268.8 363.56 268.74 392.15 269.3Z" fill="#72DBA4"/>
<path d="M313.58 299.85C321.44 318.28 329.3 336.71 337.17 355.14C340.03 361.84 342.89 368.55 345.75 375.25C337.43 390.93 328.59 406.33 321.67 422.73C317.85 431.78 314.59 440.96 313.18 450.72C311.71 449.14 312.13 446.55 310.23 445.2C310.21 439.17 307.49 433.78 306.05 428.09C304.41 421.59 301.78 415.36 300.35 408.78C299.98 407.06 299.63 405.11 297.27 404.86C296.79 391.5 294.22 378.37 292.81 365.11C291.48 352.67 289.72 340.29 288.35 327.85C287.99 324.59 286.76 321.39 287.35 318.03C289.17 318.21 290.38 317.2 291.75 316.16C298.97 310.65 306.29 305.28 313.58 299.85Z" fill="#E6E1F2"/>
<path d="M317.28 606.77C300 606.74 282.72 606.74 265.44 606.68C250.53 606.64 239.31 595.36 239.32 580.5C239.33 565.55 250.36 554.46 265.43 554.42C283.37 554.37 301.32 554.45 319.26 554.47C318.16 571.89 318.99 589.38 317.28 606.77Z" fill="#72DBA4"/>
<path d="M313.58 299.85C306.29 305.27 298.97 310.65 291.75 316.16C290.38 317.2 289.17 318.22 287.35 318.03C286 307.62 284.64 297.21 283.33 286.8C283.18 285.63 283.13 284.51 282.3 283.58C278.63 279.52 276.44 274.47 273.31 270.05C270.52 262.79 269.22 255.24 268.07 247.57C267.41 243.15 269.08 236.5 261.18 236.12C256.91 231.84 252.65 227.57 248.38 223.29C246.35 219.52 244.14 215.84 242.35 211.96C240.86 208.73 240.06 204.74 242.55 202.09C245.01 199.46 248.01 202.4 250.76 203.33C255.86 205.05 259.04 210.04 264.45 211.16C265.74 215.26 269.8 216.79 272.39 219.69C272.91 220.27 273.57 221.08 274.48 220.64C275.64 220.08 275.38 218.89 275.05 218.02C273.96 215.11 274.36 212.12 274.37 209.14C279.97 210.34 281.22 215.82 284.34 219.41C295.4 232.17 300.96 247.48 304.39 263.73C304.8 265.66 305.69 267.48 306.36 269.35C307.56 278.29 310.9 286.72 312.64 295.54C312.94 296.99 313.27 298.42 313.58 299.85Z" fill="#E1E1E1"/>
<path d="M612.16 430.66C609.04 440.45 606.48 450.47 600.23 458.98C599.44 460.05 599.47 461.82 599.39 463.29C597.34 496.97 595.17 530.65 591.93 564.24C589.72 587.08 587.12 609.87 582.69 632.44C580.32 644.49 574.08 652.77 563.36 658.58C545.69 668.17 526.79 674.5 507.72 680.35C462.22 694.31 415.78 704.4 369.09 713.39C364.02 714.37 361.74 715.97 361.87 721.56C362.03 728.34 361.02 735.15 360.51 741.95C353.55 742.98 346.57 742.66 339.59 742.12C339.37 735.81 338.92 729.5 339.03 723.19C339.09 719.44 337.71 718.94 334.62 719.95C333.37 720.36 332 720.37 330.69 720.58C329.36 720.79 327.84 721.15 327.5 719.3C327.17 717.48 328.72 717.11 330.02 716.86C336.22 715.69 342.45 714.65 348.64 713.45C403.44 702.86 458.12 691.68 511.53 675.17C526.78 670.46 541.69 664.91 556.26 658.26C570.03 651.98 577.43 642.1 579.94 627.04C585.28 595.01 588.35 562.77 590.88 530.45C594.42 485.23 597.03 439.94 598.78 394.62C598.84 393.04 598.54 390.68 600.78 390.72C603.52 390.76 602.75 393.32 602.67 394.98C601.88 413.22 601.02 431.46 600.14 450.8C603.24 446.57 604.38 442.48 605.61 438.51C607.08 433.76 608.26 428.9 609.35 424.05C609.97 421.31 611.14 420.68 613.46 422.26C613.02 425.06 612.59 427.86 612.16 430.66Z" fill="#26354C"/>
<path d="M317.28 606.77C318.98 589.38 318.16 571.89 319.26 554.48C319.27 553.32 319.28 552.16 319.29 551C320.34 534.01 321.15 517 323.65 500.14C326.46 507.05 329.3 513.94 332.05 520.87C333.37 524.2 332.87 527.75 332.98 531.22C333.97 560.72 334.88 590.22 336.05 619.72C336.22 624.05 335.08 626.4 330.8 627.68C326.22 629.05 321.85 631.12 317.39 632.89C317.36 624.18 317.32 615.47 317.28 606.77Z" fill="#E6E1F2"/>
<path d="M542.11 249.82C539.95 243.41 537.79 237 535.63 230.59C564.06 230.53 592.49 230.41 620.92 230.45C626.8 230.46 629.75 233.74 629.9 239.52C630.07 245.82 627.45 249.17 621.42 249.56C616.29 249.89 611.12 249.67 605.96 249.68C584.67 249.73 563.39 249.77 542.11 249.82Z" fill="#42BA80"/>
<path d="M613.81 528.36C612.32 526.03 613.31 523.39 612.85 520.93C614.48 520.6 616.1 520.24 617.73 519.94C644.2 515.13 661.75 493.43 660.92 466.52C660.15 441.34 640.83 420.98 614.73 417.83C613.57 415.17 613.87 412.52 614.75 409.87C645.66 412.18 669.78 439.02 668.9 470.5C668.05 500.92 643.49 527.19 613.81 528.36Z" fill="#42BA80"/>
<path d="M175.98 123.79C176.43 121.62 176.88 119.45 177.33 117.28C178.81 111.59 183.34 111.21 187.97 111.38C191.39 111.51 193.75 111.34 194.59 107C195.46 102.53 199.2 101.19 203.52 102.17C209.21 103.47 212.55 107.56 214.86 112.52C215.98 114.93 217.33 116.57 220.05 117.19C224.23 118.13 226.78 121.2 228.87 124.71C229.49 127.15 230.46 129.41 232.24 131.25C233.3 134.7 231.03 134.22 229.01 133.97C212.39 131.96 195.78 129.87 179.15 127.98C176.23 127.64 175.54 126.32 175.98 123.79Z" fill="#182840"/>
<path d="M58.58 612.57C60.43 610.8 62.31 611.98 64.17 612.52C91.87 620.66 119.56 628.81 147.25 636.97C153.55 638.83 153.47 638.86 154.32 632.57C156.54 616.24 159.39 600.06 166.55 585.01C167.96 582.04 169.68 579.12 171.72 576.55C178.13 568.51 186.36 566.82 195.7 571.31C196.89 571.88 198.1 572.4 199.31 572.94C203.41 576.02 207.21 579.44 210.63 583.27C211.96 584.76 213.45 586.19 212.41 588.49C210.1 589.34 209.15 587.52 207.95 586.21C204.46 582.4 200.74 578.86 196.32 576.11C187.12 570.38 179.19 572.03 173.23 581.1C166.05 592.04 163.35 604.58 160.81 617.12C159.4 624.11 158.32 631.21 157.65 638.31C157.21 643.04 155.44 643.64 151.24 642.38C121.5 633.48 91.7 624.77 61.92 615.99C60.3 615.36 58.43 614.94 58.58 612.57Z" fill="#26354C"/>
<path d="M388.19 227.11C390.5 224.39 393.69 225.45 396.57 225.16C412.06 223.56 426.42 219.27 437.86 207.92C439.75 206.05 440.61 203.32 443.57 201.65C446.32 208.14 444.94 214.51 443.62 220.84C442.91 224.23 441.94 227.56 441.09 230.91C433.38 231.91 429.68 237.04 427.62 243.93C427.11 245.63 426.31 247.24 425.65 248.9C421.29 249.84 418.59 253.69 414.54 255.17C414.33 251.11 413.93 247.04 413.97 242.98C413.99 240.01 412.7 239.72 410.39 240.51C410.34 240.07 410.3 239.62 410.25 239.17C414.87 238.76 414.64 236.18 413.01 232.98C404.78 230.81 396.25 229.95 388.19 227.11Z" fill="#C4C5C5"/>
<path d="M232.24 131.25C230.46 129.41 229.49 127.15 228.87 124.71C235.7 124.12 242.24 126.33 248.97 126.77C252.25 126.99 255.49 127.69 258.74 128.21C262.11 128.74 263.98 130.68 264.4 134.11C266.01 147.21 267.51 160.32 269.37 173.39C271.06 185.3 271.43 197.4 274.37 209.14C274.36 212.11 273.95 215.1 275.05 218.02C275.38 218.89 275.64 220.07 274.48 220.64C273.57 221.08 272.91 220.28 272.39 219.69C269.8 216.79 265.74 215.27 264.45 211.16C264.39 207.17 264.69 203.13 264.21 199.19C261.69 178.36 258.94 157.55 256.35 136.73C256.08 134.53 255.18 133.58 252.98 133.26C246.09 132.28 239.24 131.04 232.24 131.25Z" fill="#C4C5C5"/>
<path d="M365.11 125.21C367.66 127.84 365.25 130.6 365.01 133.15C364.04 143.56 362.5 153.92 361.17 164.29C357.51 163.31 354.86 160.75 352.29 158.23C349.28 155.27 349.62 151.69 351.26 148.11C354.99 139.95 359.72 132.38 365.11 125.21Z" fill="#C4C5C5"/>
<path d="M565.98 131.61C565.56 128.53 567.45 128.47 569.61 128.43C572.18 128.38 572.45 129.83 572.46 131.88C572.47 134.64 570.86 135 568.63 135.02C565.99 135.05 565.75 133.48 565.98 131.61Z" fill="#72DBA4"/>
<path d="M368.83 117.45C369.87 116.62 370.31 114.42 372.26 115.58C373.84 116.52 374.04 118.35 374 119.99C373.96 121.63 373.77 123.72 371.97 124.16C369.07 124.87 369.52 121.71 368.36 120.37C368.52 119.4 368.67 118.42 368.83 117.45Z" fill="#26354C"/>
<path d="M603.68 131.46C603.85 133.52 603.62 135.04 600.93 135.05C598.5 135.05 597.2 134.41 597.28 131.72C597.35 129.52 598.03 128.38 600.46 128.41C602.68 128.44 604.03 128.99 603.68 131.46Z" fill="#72DBA4"/>
<path d="M285.51 128.48C287.84 128.28 288.86 129.3 288.93 131.62C289.01 134.27 287.71 135 285.3 135.04C282.69 135.08 282.43 133.67 282.38 131.59C282.33 129.25 283.2 128.17 285.51 128.48Z" fill="#72DBA4"/>
<path d="M565.96 61.89C565.6 59.52 566.68 58.64 569.02 58.7C571.18 58.75 572.43 59.37 572.46 61.8C572.49 64.38 571.36 65.25 568.87 65.26C566.36 65.28 565.67 64.1 565.96 61.89Z" fill="#72DBA4"/>
<path d="M282.45 62.22C282.23 60.14 282.58 58.66 285.22 58.7C287.56 58.73 289 59.28 288.94 62C288.89 64.28 287.95 65.23 285.65 65.25C283.45 65.28 282.1 64.7 282.45 62.22Z" fill="#72DBA4"/>
<path d="M568.9 93.72C571.42 93.52 572.46 94.51 572.46 96.87C572.45 99.24 571.33 100.01 569.1 100.08C566.76 100.15 565.85 99.3 565.88 96.92C565.91 94.59 566.8 93.51 568.9 93.72Z" fill="#72DBA4"/>
<path d="M285.42 93.72C287.92 93.52 288.94 94.54 288.93 96.88C288.92 99.25 287.8 100.02 285.57 100.09C283.22 100.16 282.34 99.29 282.37 96.92C282.41 94.59 283.31 93.52 285.42 93.72Z" fill="#72DBA4"/>
<path d="M285.59 198.28C287.85 198 289.09 198.75 288.92 201.26C288.77 203.45 287.78 204.62 285.55 204.72C283.16 204.83 282.42 203.62 282.38 201.36C282.34 198.99 283.22 197.94 285.59 198.28Z" fill="#72DBA4"/>
<path d="M565.98 166.62C565.65 164.23 566.51 163.14 568.92 163.23C570.86 163.3 572.53 163.31 572.45 165.99C572.38 168.32 571.5 169.72 569.02 169.78C566.74 169.83 565.64 168.81 565.98 166.62Z" fill="#72DBA4"/>
<path d="M282.45 166.42C282.12 164.08 283.16 163.18 285.55 163.22C287.72 163.25 289.09 163.7 288.92 166.26C288.78 168.44 287.85 169.67 285.6 169.78C283.25 169.89 282.2 168.79 282.45 166.42Z" fill="#72DBA4"/>
<path d="M569.24 198.28C571.25 198.1 572.51 198.64 572.44 200.96C572.37 203.38 571.39 204.69 568.87 204.73C566.34 204.77 565.95 203.3 565.88 201.18C565.8 198.59 567.13 198.02 569.24 198.28Z" fill="#72DBA4"/>
<path d="M345.35 131.96C345.17 129.89 345.48 128.4 348.11 128.41C350.37 128.42 351.41 129.14 351.34 131.53C351.28 133.55 351.09 135.03 348.48 135.03C346.22 135.03 345.02 134.34 345.35 131.96Z" fill="#72DBA4"/>
<path d="M320.04 131.65C320.3 133.86 319.63 135.04 317.1 135.04C314.48 135.04 314.16 133.65 314.17 131.56C314.18 129.59 314.66 128.46 316.93 128.43C319.29 128.39 320.35 129.27 320.04 131.65Z" fill="#72DBA4"/>
<path d="M603.68 61.95C603.99 64.18 603.22 65.27 600.75 65.26C598.36 65.25 597.61 64.3 597.63 62.02C597.64 59.82 598.21 58.67 600.67 58.69C603.04 58.7 604.02 59.63 603.68 61.95Z" fill="#72DBA4"/>
<path d="M540.65 61.7701C540.86 63.8901 540.43 65.2601 537.81 65.2701C535.3 65.2801 534.73 64.1301 534.78 61.9301C534.82 60.0501 535.07 58.7301 537.42 58.7101C539.64 58.6801 541 59.2701 540.65 61.7701Z" fill="#72DBA4"/>
<path d="M320.04 61.93C320.34 64.18 319.55 65.26 317.07 65.26C314.44 65.27 314.17 63.86 314.16 61.79C314.15 59.78 314.74 58.74 316.96 58.7C319.31 58.67 320.38 59.55 320.04 61.93Z" fill="#72DBA4"/>
<path d="M534.86 131.81C534.59 129.6 535.25 128.36 537.78 128.42C539.91 128.47 540.75 129.3 540.7 131.4C540.65 133.34 540.71 135.04 537.95 135.04C535.59 135.04 534.54 134.17 534.86 131.81Z" fill="#72DBA4"/>
<path d="M534.86 96.81C534.63 94.78 535.26 93.64 537.54 93.66C539.9 93.69 540.75 94.75 540.72 97.03C540.7 99.05 540.11 100.06 537.88 100.09C535.42 100.12 534.57 99.05 534.86 96.81Z" fill="#72DBA4"/>
<path d="M351.27 201.35C351.51 203.59 350.83 204.86 348.3 204.76C345.85 204.67 345.28 203.38 345.29 201.22C345.29 199.16 345.96 198.23 348.16 198.2C350.49 198.19 351.62 198.98 351.27 201.35Z" fill="#72DBA4"/>
<path d="M314.28 201.6C314.05 198.29 315.7 198.29 317.46 198.24C320.25 198.16 320.06 200.03 320.07 201.89C320.09 204.44 318.49 204.8 316.47 204.72C313.56 204.6 314.37 202.4 314.28 201.6Z" fill="#72DBA4"/>
<path d="M597.7 96.8C597.48 94.78 598.14 93.63 600.38 93.67C602.52 93.71 603.77 94.32 603.75 96.79C603.74 99.01 603.17 100.12 600.69 100.1C598.25 100.07 597.44 99.01 597.7 96.8Z" fill="#72DBA4"/>
<path d="M351.28 96.97C351.58 99.28 350.48 100.11 348.17 100.09C346.04 100.07 345.34 99.22 345.28 97.15C345.2 94.57 346.29 93.62 348.77 93.66C351.1 93.7 351.45 95.05 351.28 96.97Z" fill="#72DBA4"/>
<path d="M314.22 96.6C313.97 94.41 314.99 93.63 317.11 93.67C319.59 93.72 320.1 95.07 320.1 97.22C320.11 99.42 319.13 100.04 317.07 100.08C314.45 100.13 314.01 98.69 314.22 96.6Z" fill="#72DBA4"/>
<path d="M534.85 166.57C534.62 164.51 535.11 163.15 537.7 163.22C539.73 163.28 540.7 163.9 540.71 166.07C540.72 168.42 540.15 169.85 537.44 169.83C535.11 169.81 534.71 168.5 534.85 166.57Z" fill="#72DBA4"/>
<path d="M351.28 166.38C351.47 168.5 350.98 169.9 348.44 169.83C346.16 169.76 345.3 168.78 345.29 166.53C345.28 164.37 345.8 163.2 348.27 163.22C350.61 163.23 351.57 164.13 351.28 166.38Z" fill="#72DBA4"/>
<path d="M320.02 166.28C320.25 168.95 319.05 169.79 316.81 169.81C314.02 169.84 314.25 167.97 314.18 166.12C314.09 163.99 315.03 163.24 317.11 163.23C319.55 163.22 320.4 164.31 320.02 166.28Z" fill="#72DBA4"/>
<path d="M379.98 233.13C382.37 232.78 383.16 233.91 383.12 236.25C383.08 238.47 382.07 239.09 380.04 239.1C377.85 239.11 376.61 238.46 376.51 236.03C376.4 233.41 377.8 232.9 379.98 233.13Z" fill="#72DBA4"/>
<path d="M534.86 201.48C534.56 199.29 535.29 198.14 537.78 198.21C539.86 198.27 540.74 199 540.71 201.12C540.68 203.15 540.36 204.64 537.86 204.77C535.4 204.88 534.6 203.74 534.86 201.48Z" fill="#72DBA4"/>
<path d="M348.51 233.13C350.74 232.83 351.3 234 351.34 236.01C351.4 238.4 350.35 239.12 348.1 239.11C345.91 239.1 345.34 238.11 345.28 236.11C345.22 233.7 346.24 232.81 348.51 233.13Z" fill="#72DBA4"/>
<path d="M320.04 236.02C320.26 238.1 319.46 239.06 317.27 239.1C314.83 239.15 314.15 238.08 314.16 235.81C314.17 233.52 315.29 233.09 317.25 233.07C319.41 233.04 320.29 233.94 320.04 236.02Z" fill="#72DBA4"/>
<path d="M603.68 166.31C603.91 168.41 603.08 169.33 600.9 169.36C598.61 169.39 597.59 168.63 597.64 166.23C597.69 164.19 598.32 163.24 600.5 163.22C602.77 163.21 604.02 163.87 603.68 166.31Z" fill="#72DBA4"/>
<path d="M600.68 204.23C598.15 204.56 597.66 203.14 597.65 200.97C597.64 198.7 598.78 198.24 600.73 198.23C602.74 198.22 603.75 198.81 603.75 201.03C603.75 203.24 603.17 204.57 600.68 204.23Z" fill="#72DBA4"/>
<path d="M412.99 232.99C414.61 236.19 414.85 238.77 410.23 239.18C407.19 238.59 408.16 236.16 408.5 234.55C409.02 232.05 411.45 233.48 412.99 232.99Z" fill="#72DBA4"/>
<path d="M349.07 58.51C349.95 60.69 350.45 62.93 350.13 65.3C348.37 64.76 345.57 66.49 345.27 62.76C345.04 59.77 346.07 58.37 349.07 58.51Z" fill="#72DBA4"/>
<path d="M282.44 409.98C284.56 409.99 286.68 410.01 288.8 410.02C289.15 412.29 288.34 413.46 285.89 413.51C283.36 413.56 282.13 412.59 282.44 409.98Z" fill="#67FEA1"/>
<path d="M508.79 204.06C505.45 203.6 506.11 200.45 505.02 198.48C510.57 197.44 508.67 201.43 508.79 204.06Z" fill="#72DBA4"/>
<path d="M532.76 295.46C553.34 296.45 571.36 301.78 585.16 316.82C597.45 330.22 601.72 346.8 602.72 364.47C602.8 365.86 602.65 367.52 601.06 367.6C598.66 367.73 598.86 365.59 598.77 363.98C598.14 352.4 595.83 341.22 590.3 330.93C579.72 311.24 562.04 302.73 540.84 300.01C535.07 299.27 529.26 298.82 523.44 299.66C521.87 299.89 520.18 299.87 520.16 297.75C520.15 295.92 521.84 295.97 523.14 295.9C526.62 295.71 530.11 295.58 532.76 295.46Z" fill="#26354C"/>
<path d="M415.58 463.01C407.33 463.03 399.81 457.26 398.19 451.26C397.92 450.25 397.8 449.23 398.9 448.66C399.7 448.24 400.56 448.44 401.19 449.08C401.77 449.67 402.25 450.35 402.73 451.03C408.89 459.84 410.52 460.4 421.07 457.49C426.52 455.99 431.96 454.41 437.47 453.15C440.49 452.46 441.85 451.01 442.34 447.89C443.93 437.7 445.79 427.56 447.65 417.41C447.95 415.79 447.73 413.04 450.44 413.66C453.03 414.25 451.76 416.61 451.47 418.29C449.54 429.26 447.57 440.23 445.59 451.19C445.3 452.8 445.37 454.78 443.4 455.34C433.5 458.13 423.56 460.82 415.58 463.01Z" fill="#26354C"/>
<path d="M406.33 393.93C417.11 395.61 429.06 397.48 441.01 399.36C443.63 399.77 446.24 400.25 448.85 400.7C450.32 400.95 452.22 401.05 451.76 403.15C451.35 405.05 449.61 404.75 448.07 404.5C437.44 402.78 426.81 401.08 416.18 399.39C412.42 398.79 408.64 398.28 404.89 397.61C403.64 397.39 402.07 397.1 402.42 395.2C402.71 393.69 403.92 393.63 406.33 393.93Z" fill="#26354C"/>
<path d="M354.22 360.03C354.3 354.44 356.82 349.45 358.43 344.29C362.18 332.29 366.29 320.4 370.65 308.6C375.78 294.71 386.14 286.29 400.06 281.95C401.94 281.36 403.78 280.66 405.64 280.02C404.58 285.05 400.85 288.52 398.15 292.55C383.71 314.09 369.58 335.82 356.19 358.03C355.7 358.84 355.44 359.93 354.22 360.03Z" fill="#E6E1F2"/>
<path d="M414.53 255.17C418.58 253.7 421.29 249.84 425.64 248.9C423.88 257.32 422 265.73 420.42 274.18C419.98 276.54 418.65 277.26 416.73 277.33C414.2 277.43 415.01 275.2 414.99 274.03C414.88 267.75 413.83 261.48 414.53 255.17Z" fill="#E1E1E1"/>
<path d="M353.24 362.37C353.39 361.48 353.28 360.48 354.26 359.94C354.64 361.05 354.07 361.76 353.24 362.37Z" fill="#E6E1F2"/>
<path d="M179.69 665.83C181.1 664.37 182.51 664.76 184.16 665.56C196.27 671.43 209.11 674.22 222.54 674.55C224.02 674.59 226.51 673.98 226.42 676.36C226.33 678.7 223.89 677.96 222.4 677.92C207.8 677.57 193.89 674.29 180.75 667.85C180.39 667.17 180.04 666.5 179.69 665.83Z" fill="#26354C"/>
<path d="M186.45 643.2C200.77 647.88 215.13 652.45 230.13 654.5C231.41 654.67 233.07 654.71 233.02 656.5C232.98 658.02 231.62 658.14 230.39 657.94C214.83 655.42 199.58 651.81 185.06 645.5C185.2 644.54 185.5 643.68 186.45 643.2Z" fill="#26354C"/>
<path d="M227.58 631.91C234.69 631.57 241.18 634.59 248.03 635.73C254.08 636.73 260.04 638.32 266.03 639.69C267 639.91 268.1 640.28 267.96 641.54C267.82 642.83 266.67 643.03 265.68 642.82C252.91 640.04 239.92 638.17 227.51 633.83C227.36 633.78 227.25 633.63 227.12 633.53C227.28 632.98 227.43 632.45 227.58 631.91Z" fill="#26354C"/>
<path d="M184.58 681.65C186.43 679.76 188.28 681.1 190.08 681.71C201.69 685.64 213.19 689.93 225.48 691.32C226.7 691.46 228.05 691.67 227.91 693.14C227.78 694.61 226.37 694.63 225.17 694.56C219.83 694.26 214.71 692.82 209.59 691.44C205.27 690.28 200.98 689.04 196.67 687.84C193.74 686.8 190.84 685.7 187.88 684.74C186.24 684.21 184.75 683.68 184.58 681.65Z" fill="#26354C"/>
<path d="M367.5 179.34C371.19 179.43 374.77 179.18 377.82 176.71C378.79 175.93 379.93 175.46 380.76 176.82C381.41 177.88 380.55 178.65 379.85 179.36C377.12 182.13 366.61 183.85 363.27 182.09C362.47 181.67 361.87 181.12 362.12 180.18C362.37 179.26 363.15 178.95 364.05 179.01C365.19 179.1 366.34 179.24 367.5 179.34Z" fill="#26354C"/>
<path d="M383.34 109.29C383.37 110.2 383.09 110.98 382.15 111.2C381.14 111.44 380.6 110.7 380.35 109.89C379.05 105.52 376.33 102.35 372.42 100.11C371.66 99.68 371.23 98.92 371.69 98C372.14 97.1 372.9 97.07 373.79 97.27C377.16 97.99 383.53 105.97 383.34 109.29Z" fill="#028791"/>
<path d="M232.24 131.25C239.24 131.04 246.09 132.28 252.97 133.27C255.18 133.59 256.07 134.54 256.34 136.74C258.93 157.56 261.67 178.37 264.2 199.2C264.68 203.14 264.38 207.18 264.44 211.17C259.03 210.06 255.84 205.06 250.75 203.34C248.01 202.41 245.01 199.47 242.54 202.1C240.06 204.75 240.85 208.74 242.34 211.97C244.13 215.85 246.34 219.54 248.37 223.3C245.06 223.11 241.73 223.08 238.44 222.69C225.27 221.11 225.37 221.05 227.4 233.94C227.85 236.82 228.95 237.81 231.81 237.95C240.26 238.38 248.72 238.93 257.14 239.76C260.28 240.07 261.42 239.12 261.16 236.13C269.06 236.51 267.39 243.16 268.05 247.58C269.2 255.25 270.51 262.81 273.29 270.06C275.1 284.99 276.87 299.93 278.73 314.85C280.18 326.49 281.76 338.11 283.27 349.75C284.8 361.55 286.15 373.37 287.89 385.14C288.83 391.5 288.77 391.94 282.68 391.94C248.08 391.95 213.47 391.85 178.87 392.06C174.19 392.09 172.86 390.28 172.48 386.14C170.59 366.06 168.49 346 166.6 325.92C165.13 310.28 163.98 294.6 162.47 278.96C160.64 260.04 158.46 241.15 156.64 222.23C155.1 206.26 153.99 190.24 152.47 174.27C151.03 159.13 149.43 144 147.64 128.9C146.59 120.06 147.07 119.31 155.72 120.3C161.63 120.98 167.54 121.71 173.45 122.39C174.51 122.51 175.33 122.99 175.99 123.79C175.55 126.32 176.24 127.64 179.16 127.97C195.79 129.86 212.4 131.95 229.02 133.96C231.03 134.22 233.3 134.69 232.24 131.25ZM185.37 300.81C185.8 300.83 186.96 300.92 188.12 300.96C194.75 301.18 194.71 301.18 193.95 294.75C191.35 272.66 188.77 250.56 186.2 228.47C184.99 218.06 185 218.06 174.55 217C174.22 216.97 173.89 216.94 173.56 216.91C167.15 216.18 167.08 216.18 167.71 222.78C169.89 245.57 172.14 268.36 174.34 291.16C175.25 300.62 175.22 300.62 185.37 300.81ZM215.46 301.14C215.46 301.36 215.46 301.57 215.46 301.79C220.27 301.79 225.08 301.7 229.88 301.83C232.53 301.9 233.36 301.04 232.97 298.32C231.45 287.81 230.04 277.28 228.79 266.74C228.46 263.98 227.34 263.23 224.66 263.19C215.38 263.04 206.09 262.74 196.82 262.25C193.59 262.08 193.32 263.42 193.66 266.06C194.98 276.43 196.31 286.81 197.28 297.21C197.6 300.62 199.14 301.26 202.05 301.17C206.51 301.03 210.99 301.14 215.46 301.14ZM247.92 264.23C247.92 264.01 247.92 263.79 247.92 263.57C243.44 263.57 238.97 263.61 234.49 263.55C232.46 263.52 231.38 264.04 231.72 266.4C233.27 277.24 234.8 288.09 236.16 298.95C236.5 301.69 237.97 301.98 240.21 302C248.34 302.06 256.47 302.18 264.59 302.42C267.3 302.5 268.47 301.93 268.05 298.81C266.73 288.77 265.53 278.72 264.64 268.63C264.31 264.92 262.88 263.87 259.35 264.16C255.57 264.47 251.73 264.23 247.92 264.23ZM210 259.18C210 259.47 210 259.76 210 260.05C214.97 260.05 219.93 260.01 224.9 260.07C226.59 260.09 227.83 260 227.5 257.72C226.79 252.8 226.18 247.87 225.58 242.93C225.37 241.19 224.59 240.33 222.73 240.21C212.98 239.56 203.24 238.85 193.5 238.07C191.05 237.87 190.26 238.67 190.62 241.13C191.36 246.21 191.98 251.32 192.48 256.43C192.68 258.51 193.52 259.26 195.61 259.22C200.41 259.11 205.21 259.18 210 259.18ZM247.31 260.71C247.31 260.84 247.31 260.97 247.32 261.11C251.63 261.11 255.95 260.97 260.25 261.16C262.96 261.28 263.73 260.36 263.31 257.74C262.71 253.97 262.26 250.17 261.95 246.36C261.75 243.93 260.8 242.94 258.26 242.81C250.97 242.44 243.69 241.82 236.41 241.25C228.44 240.62 228.43 240.6 229.53 248.69C230.02 252.29 229.46 256.76 231.4 259.24C233.53 261.96 238.28 259.85 241.84 260.43C243.64 260.71 245.49 260.62 247.31 260.71ZM219.07 236.83C224.84 237.29 224.85 237.29 224.07 231.41C223.77 229.11 223.28 226.82 223.13 224.5C222.97 222.05 221.93 221.16 219.44 220.97C210.17 220.27 200.92 219.43 191.68 218.41C188.49 218.06 187.94 219.25 188.4 221.99C188.89 224.93 189.31 227.91 189.46 230.89C189.61 233.77 190.79 234.87 193.73 235.02C202.2 235.47 210.63 236.21 219.07 236.83ZM239.96 162.33C245.85 162.4 250.09 158.43 250.29 152.68C250.52 146.1 244.89 140.22 238.25 140.09C232.43 139.98 228.06 144.07 227.88 149.81C227.67 156.4 233.31 162.25 239.96 162.33ZM201.65 331.21C208.45 331.21 215.25 331.25 222.05 331.18C223.57 331.17 225.84 331.69 225.8 329.23C225.77 327.38 223.88 327.22 222.35 327.22C208.58 327.21 194.81 327.2 181.04 327.22C179.5 327.22 177.73 327.44 177.79 329.41C177.85 331.56 179.82 331.18 181.23 331.19C188.04 331.23 194.84 331.21 201.65 331.21ZM195.44 157.39C196.9 157.13 199.26 158.8 199.81 155.93C200.15 154.13 198.42 153.89 197.11 153.73C184.9 152.27 172.68 150.84 160.46 149.43C159.14 149.28 157.45 149.13 157.17 150.82C156.84 152.87 158.61 153.11 160.14 153.29C171.87 154.65 183.59 156.01 195.44 157.39ZM195.02 345.52C199.83 345.52 204.65 345.52 209.46 345.52C211 345.52 212.73 345.55 212.69 343.43C212.66 341.53 211.01 341.74 209.7 341.74C200.07 341.73 190.45 341.74 180.82 341.73C179.44 341.73 177.81 341.74 177.79 343.46C177.77 345.47 179.54 345.51 181.08 345.51C185.72 345.52 190.37 345.52 195.02 345.52ZM182.46 198.93C185.14 199.15 189.78 199.54 194.42 199.9C195.9 200.02 197.8 200.36 198.06 198.36C198.38 195.81 196.17 196.19 194.59 196.07C184.65 195.29 174.71 194.54 164.78 193.77C163.13 193.64 160.99 193.11 160.85 195.44C160.7 197.82 163.09 197.49 164.6 197.63C169.88 198.1 175.19 198.41 182.46 198.93ZM160.35 157.73C158.81 157.74 157.42 157.72 157.16 159.13C156.84 160.91 158.29 161.3 159.67 161.49C168.07 162.66 176.47 163.81 184.87 164.96C186.27 165.15 187.71 165.06 187.92 163.3C188.1 161.84 186.92 161.34 185.69 161.17C177.13 160 168.56 158.84 160.35 157.73ZM182.9 173.87C184.09 173.55 186.39 174.85 186.7 172.33C187 169.89 184.79 170.12 183.18 169.97C176.4 169.32 169.62 168.64 162.84 168.08C161.32 167.96 159.06 167.17 158.75 169.56C158.43 172.01 160.73 171.72 162.29 171.88C169.06 172.57 175.85 173.2 182.9 173.87ZM169.22 203.22C168.23 203.14 167.24 202.96 166.25 203C164.59 203.07 162.03 201.94 161.88 204.67C161.74 207.21 164.28 206.85 166.02 206.98C172.78 207.49 179.55 207.96 186.31 208.44C187.78 208.54 189.68 208.94 189.97 206.97C190.36 204.4 187.99 204.75 186.52 204.61C180.76 204.06 174.98 203.67 169.22 203.22ZM190.38 370.61C187.91 370.61 185.44 370.59 182.96 370.62C181.77 370.64 180.54 370.79 180.39 372.32C180.25 373.76 181.23 374.56 182.46 374.58C187.56 374.69 192.67 374.7 197.78 374.62C199.03 374.6 199.99 373.73 199.86 372.35C199.72 370.9 198.54 370.61 197.3 370.6C194.99 370.6 192.69 370.6 190.38 370.61Z" fill="#E6E1F2"/>
<path d="M261.17 236.13C261.43 239.12 260.29 240.07 257.15 239.76C248.73 238.93 240.27 238.38 231.82 237.95C228.96 237.81 227.86 236.81 227.41 233.94C225.38 221.05 225.28 221.1 238.45 222.69C241.74 223.09 245.07 223.11 248.38 223.3C252.64 227.58 256.9 231.85 261.17 236.13Z" fill="#182840"/>
<path d="M185.37 300.81C175.22 300.62 175.24 300.62 174.33 291.16C172.13 268.37 169.89 245.58 167.7 222.78C167.07 216.18 167.14 216.17 173.55 216.91C173.88 216.95 174.21 216.97 174.54 217C184.99 218.06 184.98 218.07 186.19 228.47C188.77 250.56 191.34 272.66 193.94 294.75C194.7 301.18 194.73 301.18 188.11 300.96C186.96 300.93 185.8 300.84 185.37 300.81Z" fill="#182840"/>
<path d="M215.46 301.14C210.99 301.14 206.51 301.03 202.04 301.18C199.13 301.27 197.59 300.64 197.27 297.22C196.3 286.81 194.97 276.44 193.65 266.07C193.31 263.43 193.59 262.09 196.81 262.26C206.08 262.75 215.37 263.05 224.65 263.2C227.32 263.24 228.45 263.99 228.78 266.75C230.03 277.29 231.45 287.82 232.96 298.33C233.35 301.05 232.53 301.91 229.87 301.84C225.07 301.71 220.26 301.8 215.45 301.8C215.46 301.57 215.46 301.36 215.46 301.14Z" fill="#182840"/>
<path d="M247.92 264.23C251.74 264.23 255.57 264.47 259.36 264.16C262.89 263.87 264.32 264.92 264.65 268.63C265.54 278.71 266.73 288.77 268.06 298.81C268.47 301.94 267.31 302.5 264.6 302.42C256.47 302.18 248.34 302.06 240.22 302C237.98 301.98 236.51 301.69 236.17 298.95C234.81 288.08 233.28 277.24 231.73 266.4C231.39 264.04 232.48 263.52 234.5 263.55C238.98 263.61 243.45 263.57 247.93 263.57C247.92 263.79 247.92 264.01 247.92 264.23Z" fill="#182840"/>
<path d="M210 259.18C205.2 259.18 200.41 259.1 195.61 259.22C193.53 259.27 192.69 258.52 192.48 256.43C191.98 251.32 191.36 246.21 190.62 241.13C190.26 238.67 191.05 237.87 193.5 238.07C203.24 238.85 212.98 239.56 222.73 240.21C224.58 240.33 225.36 241.19 225.58 242.93C226.18 247.86 226.78 252.8 227.5 257.72C227.83 259.99 226.6 260.09 224.9 260.07C219.93 260.01 214.97 260.05 210 260.05C210 259.76 210 259.47 210 259.18Z" fill="#182840"/>
<path d="M247.31 260.71C245.49 260.63 243.64 260.71 241.85 260.42C238.29 259.84 233.54 261.95 231.41 259.23C229.46 256.75 230.03 252.28 229.54 248.68C228.43 240.59 228.44 240.61 236.42 241.24C243.7 241.81 250.98 242.43 258.27 242.8C260.81 242.93 261.76 243.92 261.96 246.35C262.27 250.16 262.71 253.96 263.32 257.73C263.74 260.35 262.97 261.27 260.26 261.15C255.96 260.95 251.64 261.1 247.33 261.1C247.31 260.97 247.31 260.84 247.31 260.71Z" fill="#182840"/>
<path d="M219.07 236.83C210.63 236.21 202.19 235.46 193.74 235.02C190.8 234.87 189.62 233.76 189.47 230.89C189.32 227.91 188.9 224.94 188.41 221.99C187.95 219.25 188.5 218.06 191.69 218.41C200.92 219.44 210.18 220.27 219.45 220.97C221.94 221.16 222.98 222.05 223.14 224.5C223.29 226.81 223.77 229.1 224.08 231.41C224.85 237.29 224.84 237.29 219.07 236.83Z" fill="#182840"/>
<path d="M239.96 162.33C233.31 162.25 227.67 156.4 227.88 149.81C228.06 144.07 232.43 139.98 238.25 140.09C244.89 140.21 250.52 146.09 250.29 152.68C250.09 158.43 245.85 162.4 239.96 162.33Z" fill="#182840"/>
<path d="M201.65 331.21C194.85 331.21 188.05 331.23 181.25 331.19C179.84 331.18 177.87 331.56 177.81 329.41C177.75 327.44 179.52 327.22 181.06 327.22C194.83 327.2 208.6 327.2 222.37 327.22C223.9 327.22 225.79 327.39 225.82 329.23C225.86 331.7 223.59 331.17 222.07 331.18C215.25 331.24 208.45 331.21 201.65 331.21Z" fill="#26354C"/>
<path d="M195.44 157.39C183.59 156.01 171.86 154.66 160.14 153.29C158.61 153.11 156.84 152.87 157.17 150.82C157.45 149.13 159.14 149.28 160.46 149.43C172.68 150.84 184.9 152.27 197.11 153.73C198.42 153.89 200.15 154.12 199.81 155.93C199.27 158.79 196.91 157.12 195.44 157.39Z" fill="#26354C"/>
<path d="M195.02 345.52C190.37 345.52 185.73 345.52 181.08 345.52C179.53 345.52 177.76 345.48 177.79 343.47C177.81 341.74 179.44 341.74 180.82 341.74C190.45 341.75 200.07 341.74 209.7 341.75C211.01 341.75 212.66 341.54 212.69 343.44C212.72 345.56 210.99 345.53 209.46 345.53C204.64 345.52 199.83 345.52 195.02 345.52Z" fill="#26354C"/>
<path d="M182.46 198.93C175.2 198.42 169.89 198.1 164.59 197.62C163.08 197.48 160.68 197.81 160.84 195.43C160.99 193.1 163.13 193.63 164.77 193.76C174.71 194.54 184.65 195.29 194.58 196.06C196.16 196.18 198.37 195.8 198.05 198.35C197.8 200.35 195.89 200.01 194.41 199.89C189.78 199.54 185.14 199.15 182.46 198.93Z" fill="#26354C"/>
<path d="M160.35 157.73C168.56 158.85 177.13 160 185.69 161.18C186.93 161.35 188.1 161.85 187.92 163.31C187.7 165.07 186.27 165.16 184.87 164.97C176.47 163.83 168.07 162.67 159.67 161.5C158.29 161.31 156.83 160.91 157.16 159.14C157.42 157.72 158.81 157.73 160.35 157.73Z" fill="#26354C"/>
<path d="M182.9 173.87C175.84 173.2 169.06 172.57 162.28 171.89C160.72 171.73 158.42 172.02 158.74 169.57C159.05 167.18 161.32 167.96 162.83 168.09C169.62 168.65 176.39 169.33 183.17 169.98C184.78 170.13 186.99 169.9 186.69 172.34C186.39 174.85 184.09 173.55 182.9 173.87Z" fill="#26354C"/>
<path d="M169.22 203.22C174.99 203.67 180.76 204.06 186.52 204.6C187.99 204.74 190.36 204.4 189.97 206.96C189.67 208.93 187.78 208.53 186.31 208.43C179.55 207.95 172.78 207.48 166.02 206.97C164.28 206.84 161.75 207.2 161.88 204.66C162.03 201.92 164.6 203.06 166.25 202.99C167.23 202.96 168.23 203.14 169.22 203.22Z" fill="#26354C"/>
<path d="M190.38 370.61C192.69 370.61 194.99 370.6 197.3 370.61C198.54 370.62 199.71 370.91 199.86 372.36C199.99 373.74 199.04 374.61 197.78 374.63C192.68 374.71 187.57 374.7 182.46 374.59C181.24 374.56 180.25 373.77 180.39 372.33C180.54 370.8 181.77 370.65 182.96 370.63C185.43 370.59 187.91 370.61 190.38 370.61Z" fill="#26354C"/>
<path d="M564.9 267.97C564.9 268.7 564.95 269.41 565.02 270.11C566.56 270.43 568.04 270.9 569.45 271.49C569.47 271.5 569.49 271.51 569.51 271.51C571.62 272.41 573.59 273.59 575.38 275C575.4 275.02 575.43 275.04 575.45 275.06C575.78 275.32 576.1 275.61 576.42 275.89C579.82 278.02 582.71 280.93 585 284.28C586.31 286.12 587.44 288.11 588.35 290.19H668.95C668.95 277.91 658.99 267.95 646.71 267.95H564.9V267.97Z" fill="#72DBA4"/>
</svg>
